Regular.Mono.sfdir
StartChar: quotedbl
Encoding: 34 34 1
Width: 500
Flags: W
HStem: 499.8 214.3
VStem: 112 88<567.197 708.868> 114.1 97.9004<512.553 697.364> 317.5 94<538.5 698.216> 330.1 81.4004<538.5 664.215>
LayerCount: 2
Back
Fore
SplineSet
140.799804688 714.099609375 m 0xc0
 151.599609375 717.5 166.299804688 715.900390625 176 710.299804688 c 0
 182.900390625 706.200195312 189.400390625 699.599609375 192.799804688 693.200195312 c 0
 198.400390625 682.799804688 199 678.299804688 199 649.400390625 c 0
 199 635 199.5 618.599609375 200 612.900390625 c 0xc0
 201.700195312 595.400390625 205 575.700195312 207.099609375 570.799804688 c 0
 209.900390625 563.900390625 212 552.799804688 212 544.5 c 0
 212 522.099609375 196.5 503.799804688 174 499.799804688 c 0
 155.5 496.599609375 134.900390625 507.5 126.900390625 524.900390625 c 0
 125.299804688 528.5 123.200195312 532.599609375 122.400390625 534 c 0
 116.799804688 543.299804688 113.799804688 555.200195312 114.099609375 567 c 0xa0
 114.099609375 571.099609375 113.200195312 581.5 112 590 c 0
 110.200195312 602.700195312 109.700195312 611.900390625 109.299804688 641.099609375 c 0
 108.799804688 672.700195312 108.900390625 677.299804688 110.5 682.5 c 0
 112.900390625 691 115.5 695.599609375 121.299804688 701.799804688 c 0
 127.299804688 708 132.700195312 711.5 140.799804688 714.099609375 c 0xc0
347.099609375 706.099609375 m 0
 351.5 707.700195312 354.5 708 363 707.700195312 c 0
 372.400390625 707.5 374.200195312 707.099609375 380.299804688 704.299804688 c 0
 389.200195312 700.099609375 398 691.299804688 402 682.799804688 c 0
 403.900390625 678.700195312 405.599609375 672.400390625 406.900390625 664.5 c 0
 410.900390625 640.099609375 411.5 629.900390625 411.5 583.5 c 2
 411.5 538.5 l 1x90
 408.299804688 531.700195312 l 2
 404.5 523.700195312 396.099609375 514.400390625 389.200195312 510.700195312 c 0
 368.5 499.5 343.099609375 505.700195312 330.099609375 525.099609375 c 0x88
 322.799804688 536 322.799804688 536.299804688 322 585 c 0
 321.400390625 619.599609375 320.900390625 631 319.400390625 641 c 0
 318.299804688 647.900390625 317.5 658.5 317.5 664.5 c 0x90
 317.5 674.799804688 317.700195312 675.900390625 320.700195312 682.099609375 c 0
 326.400390625 693.700195312 335.099609375 701.599609375 347.099609375 706.099609375 c 0
EndSplineSet
EndChar
StartChar: parenleft
Encoding: 40 40 9
Width: 500
InSpiro: 1
Flags: W
VStem: 126.601 80.0556<139.639 522.371>
LayerCount: 2
Fore
SplineSet
282.47605859 739.676484467 m 0
 325.423135215 762.73950099 381.308892455 728.903136949 307.366607484 659.648380346 c 0
 276.623553618 630.85426459 236.467712763 593.244080029 218.741745792 482.30770034 c 0
 218.407099429 480.21334599 206.656294672 387.323882855 206.656294672 270.560149724 c 0
 206.656294672 212.700413406 213.053749307 162.000423316 251.551152362 86.9799655125 c 0
 308.763440579 -24.5104653596 367.788535899 -41.4530912471 359.973985001 -95.4491330267 c 0
 350.164556724 -163.229138045 329.675358578 -143.788859747 293.835932996 -109.784190437 c 0
 252.116988653 -70.200997255 170.592023505 65.5671932935 146.69732738 140.089186822 c 0
 134.593218586 177.83908381 126.600706494 226.985304766 126.600706494 322.550270145 c 0
 126.600706494 437.718395322 130.886711363 508.988379037 139.322880991 540.291622216 c 0
 146.937271258 568.545571667 174.357390952 633.41176379 202.435789553 668.871206382 c 0
 203.099187229 669.708993186 246.601121034 720.411278483 282.47605859 739.676484467 c 0
  Spiro
    338.278 699.795 o
    326.372 679.517 o
    309.412 661.564 o
    251.192 588.96 o
    218.712 482.122 o
    208.232 328.751 o
    213.958 188.273 o
    252.108 85.8956 o
    351.078 -54.5818 o
    358.584 -72.3083 o
    360.078 -94.7287 o
    355.245 -117.082 o
    342.858 -139.428 o
    325.41 -137.102 o
    292.745 -108.749 o
    260.439 -69.9132 o
    222.023 -12.1015 o
    185.453 52.7093 o
    146.508 140.679 o
    130 230 o
    127.12 368.334 o
    130.456 478.468 o
    139.245 540.001 o
    152.12 576.668 o
    173.245 622.001 o
    201.88 668.169 o
    257.928 722.493 o
    311.495 747.501 o
    326.99 743.404 o
    338.355 732.797 o
    0 0 z
  EndSpiro
EndSplineSet
Validated: 33
EndChar
StartChar: parenright
Encoding: 41 41 10
Width: 500
InSpiro: 1
Flags: W
VStem: 298.5 90.0996<191.538 508.379>
LayerCount: 2
Fore
SplineSet
205.5 718.5 m 0
 213.5 720.299804688 221.200195312 720.299804688 228.700195312 718.5 c 0
 235.099609375 717 249.200195312 710.299804688 256.900390625 705.099609375 c 0
 263.299804688 700.799804688 273.299804688 690.700195312 279.799804688 682 c 0
 282.900390625 677.900390625 288.099609375 671.599609375 291.299804688 668.099609375 c 0
 297.900390625 660.900390625 304.099609375 651.900390625 309 642 c 0
 310.799804688 638.400390625 314.799804688 632.099609375 317.900390625 628 c 0
 345.700195312 591.299804688 364.599609375 542.700195312 379.400390625 469.900390625 c 0
 381.400390625 460.200195312 383.700195312 450.099609375 384.5 447.400390625 c 0
 386.599609375 440 390.700195312 417 392.700195312 400.799804688 c 0
 394.099609375 389.099609375 394.400390625 379 394.400390625 345.5 c 0
 394.299804688 305.099609375 394.200195312 304.200195312 391.099609375 282 c 2
 388 259.5 l 1
 388.599609375 229 l 2
 389.200195312 201.099609375 389.099609375 197.200195312 387.099609375 183.299804688 c 0
 385.900390625 175 384.099609375 165.5 383.099609375 162.299804688 c 0
 382.099609375 159.099609375 380.700195312 152.700195312 380.099609375 148 c 0
 377.400390625 128.599609375 373.599609375 113.099609375 369.5 105 c 0
 368.299804688 102.5 366.900390625 98.5 366.5 96 c 0
 364.799804688 85.5 355.299804688 62.7998046875 345.299804688 45 c 0
 331.599609375 20.599609375 317.299804688 -3 312 -10 c 0
 308.900390625 -14.099609375 304.200195312 -20.599609375 301.5 -24.5 c 0
 298.799804688 -28.2998046875 289.799804688 -38.2001953125 281.599609375 -46.5 c 0
 273.299804688 -54.7001953125 264.599609375 -64.2001953125 262.099609375 -67.5 c 0
 259.700195312 -70.7998046875 252.099609375 -79.2001953125 245.099609375 -86.2001953125 c 0
 234.400390625 -97 231.299804688 -99.599609375 224.5 -103 c 0
 194.799804688 -117.900390625 161 -99.599609375 158.299804688 -67 c 0
 157 -51.400390625 161.5 -41.900390625 178.299804688 -25 c 0
 185 -18.099609375 191.900390625 -10.7001953125 193.5 -8.5 c 0
 196.099609375 -4.7998046875 203.700195312 3.2998046875 221.799804688 21.7998046875 c 0
 229.299804688 29.400390625 243.299804688 47.7001953125 246.5 54 c 0
 247.5 55.900390625 252.400390625 64.5 257.5 73 c 0
 269.200195312 92.599609375 275.599609375 105.299804688 276.5 110.900390625 c 0
 277.299804688 115.799804688 281.200195312 127.700195312 285.799804688 139 c 0
 287.700195312 143.799804688 289.599609375 151.5 291 160.5 c 0
 292.200195312 168.200195312 294.400390625 179 295.799804688 184.5 c 2
 298.5 194.5 l 1
 298.5 234 l 2
 298.599609375 272 298.700195312 274.200195312 301.299804688 291 c 0
 303.599609375 305.5 304.200195312 313.099609375 304.700195312 335.5 c 0
 305.599609375 376.799804688 302.799804688 406.299804688 295.900390625 427.799804688 c 0
 294.299804688 432.900390625 293 438.599609375 293 440.5 c 0
 293 447.400390625 284.299804688 485 277.400390625 507.700195312 c 0
 269.400390625 534.200195312 258.099609375 557.900390625 245.700195312 574.400390625 c 0
 238 584.599609375 234.700195312 589.599609375 231 597 c 0
 229.200195312 600.599609375 225.900390625 605.5 223.599609375 608 c 0
 221.299804688 610.5 216.900390625 615.900390625 213.700195312 620 c 2
 208.099609375 627.599609375 l 1
 201.400390625 628.700195312 l 2
 192.799804688 630.200195312 185.299804688 633.900390625 178.5 640.200195312 c 0
 166.099609375 651.5 161.299804688 668.099609375 165.599609375 684.5 c 0
 170.200195312 702.400390625 183.5 713.700195312 205.5 718.5 c 0
EndSplineSet
EndChar
StartChar: plus
Encoding: 43 43 12
Width: 500
Flags: W
HStem: 311.86 99.2422<301.731 407.523> 334.44 74.6254<75.5823 175.31>
VStem: 189.852 84.4102<438.757 592.042> 218.314 103.439<192.888 241.218>
LayerCount: 2
Fore
SplineSet
292.795898438 275.808485317 m 0xa0
 292.795898438 231.448514616 321.753060462 219.883849991 321.753060462 198.188839991 c 0
 321.753060462 177.373352933 302.09844188 156.23387658 279.139478419 156.23387658 c 0
 268.722704727 156.23387658 236.204497384 156.23387658 218.31381232 277.087421338 c 0
 211.403320312 323.768554688 205.231445312 330.1953125 157.533055133 334.440349139 c 0
 89.9293700805 340.456906907 63.7264458832 354.593236129 63.7264458832 370.004431607 c 0
 63.7264458832 382.931176673 82.1619692009 396.754876078 130.404039921 409.065784543 c 0x50
 177.690429688 421.1328125 185.724609375 431.944335938 189.85174348 487.004316068 c 0
 193.820313647 539.948899162 206.026105118 620.237252317 243.559399265 620.237252317 c 0
 261.033534686 620.237252317 273.773422476 595.94421503 274.261897105 531.048236021 c 0
 274.880859375 448.81640625 295.326171875 411.102539062 369.319876216 411.102539062 c 0
 401.694459906 411.102539062 420.52161963 403.882826416 420.52161963 377.543340004 c 0
 420.52161963 311.860351562 367.139229712 311.860351562 346.902005214 311.860351562 c 0
 308.467773438 311.860351562 292.795898438 302.00390625 292.795898438 275.808485317 c 0xa0
EndSplineSet
Validated: 1
EndChar
StartChar: four
Encoding: 52 52 33
Width: 500
InSpiro: 1
Flags: W
HStem: 254.171 73.6076<138.364 284.712>
VStem: 59.2707 69.8007<339.05 462.161> 114.483 86.1646<607.783 638.599> 310.133 65.7323<355.231 527.36> 313.602 69.1944<98.9703 242.212>
LayerCount: 2
Back
Fore
SplineSet
55.5082410801 442.673552086 m 0xc8
 62.0804207335 486.443078629 88.2994853815 520.926382908 102.986448666 567.449115418 c 0
 106.735351562 579.32421875 109.936523438 592.666992188 114.482915105 604.936271283 c 0
 126.371680738 637.020305024 146.290348395 649.997915447 164.073946174 649.997915447 c 0
 181.515112063 649.997915447 196.902640079 637.51527376 200.647518716 618.331536848 c 0xa0
 201.366837223 614.6467133 201.740819229 611.162573198 201.740819229 607.616472342 c 0
 201.740819229 592.467879382 194.915968882 576.188555872 179.033106685 538.30314611 c 0
 178.381549704 536.748986483 129.071383432 418.448506598 129.071383432 373.886936167 c 0
 129.071383432 371.250954859 129.243927544 368.87299772 129.609294146 366.792492938 c 0
 134.399330098 339.516620777 167.010226314 327.778823103 202.93747703 327.778823103 c 0
 241.551684513 327.778823103 283.996848581 341.337986725 299.849035189 363.738023695 c 0
 302.331146031 367.245386812 310.13342532 379.725751762 310.13342532 397.989345141 c 0
 310.13342532 413.31658823 304.746767642 446.695755448 304.746767642 477.547895897 c 0
 304.746767642 497.109859175 306.912344771 515.655891665 313.989690357 527.940278875 c 0
 318.98954193 536.618689723 330.356841322 544.24347784 342.012971573 544.24347784 c 0
 357.813552196 544.24347784 374.144871697 530.232608321 375.865714573 485.842765841 c 0xd0
 378.031786937 429.968047454 378.338511985 428.824962019 390.054193633 385.163627006 c 0
 397.361997499 357.929319827 403.963664089 333.326604826 403.963664089 303.689205483 c 0
 403.963664089 290.556157187 402.667367179 276.434503109 399.561794874 260.657189504 c 0
 382.796316466 175.483126692 382.796316466 175.483126692 382.796316466 172.080974219 c 0
 382.796316466 116.174751345 418.671602328 87.0310524055 418.671602328 55.7492864589 c 0
 418.671602328 49.169431515 417.084351784 42.4949808644 413.242121235 35.4569780999 c 0
 405.67905602 21.6033393852 383.772176783 10.5188344231 363.41624664 10.5188344231 c 0
 345.738653265 10.5188344231 329.230726035 18.8783416641 324.302462424 41.0433632779 c 0
 322.915330664 47.2820322836 313.601915174 183.916048947 313.601915174 190.018709508 c 0
 313.601915174 196.130000081 320.294640368 211.507444208 320.294640368 221.325768841 c 0
 320.294640368 239.359030423 306.670636441 240.643571874 295.572177077 241.689991941 c 0
 294.66273192 241.775739127 241.198073324 254.171248462 205.65450388 254.171248462 c 0
 203.849636299 254.171248462 202.090978403 254.139286533 200.387757947 254.072127911 c 0
 185.685115723 253.492397207 167.353781145 249.650568109 153.890845013 249.650568109 c 0
 152.639261256 249.650568109 85.3289371666 251.64688726 68.6990476881 265.212706887 c 0
 58.421000635 273.597015913 55.6233266258 284.554507234 55.6233266258 296.964230933 c 0
 55.6233266258 304.11834229 56.5531153511 311.755093613 57.5155181457 319.659718195 c 0
 58.7818228373 330.060418662 59.2707243647 339.208707128 59.2707243647 347.50911924 c 0
 59.2707243647 375.641258836 53.6547177488 394.033851832 53.6547177488 418.436374756 c 0
 53.6547177488 425.819819307 54.1688515858 433.753460562 55.5082410801 442.673552086 c 0xc8
  Spiro
    102.617 566.28 o
    200.635 618.398 o
    198.937 590.211 o
    180.84 542.613 o
    162.136 496.054 o
    145.429 447.127 o
    134.173 405.946 o
    129.672 366.437 o
    141.521 344.384 o
    174.173 331.502 o
    207.131 328.23 o
    242.911 332.25 o
    273.061 342.613 o
    299.899 363.809 o
    310.008 394.372 o
    306.135 442.613 o
    307.381 507.685 o
    329.834 542.258 o
    363.862 531.502 o
    375.809 487.294 o
    388.711 390.171 o
    399.728 261.502 o
    409.285 88.1561 o
    401.048 21.9659 o
    368.617 11.5017 o
    338.657 17.3322 o
    324.421 40.5075 o
    320.84 89.28 o
    317.348 130.15 o
    315.617 162.28 o
    313.617 190.28 o
    315.953 234.506 o
    309.617 239.28 o
    295.147 241.73 o
    279.643 244.831 o
    265.173 248.17 o
    241.42 251.278 o
    200.331 254.07 o
    154.499 249.658 o
    104.564 254.444 o
    68.6169 265.28 o
    56.6169 312.28 o
    56 386 o
    72.6169 496.28 o
    0 0 z
  EndSpiro
EndSplineSet
Validated: 1
EndChar
StartChar: seven
Encoding: 55 55 36
Width: 500
InSpiro: 1
Flags: W
HStem: 282.726 87.8046<390.999 436.631> 300.122 93.8779<29.5793 195.818> 561.421 87.1916<45.6455 308.936>
VStem: 154.521 84.9774<17.8638 123.635> 325.358 99.8093<458.745 563.388>
LayerCount: 2
Back
Fore
SplineSet
6.52378864078 604.755515356 m 0x78
 36.1671122619 636.419644621 127.405292443 648.612067848 215.13711881 648.612067848 c 0
 296.132179898 648.612067848 374.13870513 638.220220384 397.930373838 623.164389397 c 0
 416.76240232 611.247115269 425.167493777 581.510889597 425.167493777 545.264737955 c 0
 425.167493777 508.16092063 416.359929455 464.235453357 400.913593549 425.619298528 c 0
 394.153445125 408.718789577 390.993524693 396.623205243 390.993524693 388.154660482 c 0
 390.993524693 374.899449711 398.735144657 370.530273438 412.529928788 370.530273438 c 0
 437.551757812 370.530273438 453.979492188 356.155273438 453.979492188 338.033073625 c 0
 453.979492188 307.426112838 407.120142508 278.657755589 382.220080702 278.657755589 c 0
 378.187850078 278.657755589 374.731467807 279.412161253 372.143174715 281.035330751 c 0
 370.320547075 282.178336388 368.330387677 282.725667981 366.193688791 282.725667981 c 0xb8
 333.121228675 282.725667981 264.941178035 151.597234538 239.498217927 68.6064777055 c 0
 224.133789062 18.490234375 206.735351562 -4.9794921875 186.108658596 -4.9794921875 c 0
 166.176716852 -4.9794921875 154.520860528 16.9358390979 154.520860528 55.9963148159 c 0
 154.520860528 91.4697298818 164.134218844 141.083883494 185.89246898 201.265785594 c 0
 195.720412073 228.449235799 201.224964475 248.371884335 201.224964475 262.892636258 c 0
 201.224964475 293.535247961 176.712027164 300.122070312 116.586244628 300.122070312 c 0
 33.8779296875 300.122070312 8.0615234375 312.5859375 8.0615234375 338.249784633 c 0
 8.0615234375 374.543945312 59.6943359375 394 127.428519782 394 c 0
 249.423812021 394 325.358225051 457.11391453 325.358225051 505.808256553 c 0
 325.358225051 534.997228835 298.073521168 559.004969706 237.069721541 561.131719406 c 0
 231.382590941 561.329987438 223.038734969 561.420514324 213.199426265 561.420514324 c 0
 182.226951906 561.420514324 136.436282006 560.523498273 112.049059128 559.266401878 c 0
 102.534947147 558.775974742 93.6966559842 558.543153861 85.5056917249 558.543153861 c 0
 23.2790426933 558.543153861 -1.58764450929 571.980227462 -1.58764450929 587.98712578 c 0
 -1.58764450929 593.422118563 1.27918259935 599.153380933 6.52378864078 604.755515356 c 0x78
  Spiro
    33.3295 633.387 o
    130.371 651.882 o
    290.248 645.639 o
    404.695 618.884 o
    424.199 576.426 o
    420.616 500.658 o
    394.837 410.428 o
    389.537 387.585 o
    396.56 374.607 o
    416.429 370.53 o
    435.536 366.127 o
    448.948 354.391 o
    453.98 337.673 o
    436.476 305.063 o
    398.005 284.947 o
    360.103 288.586 o
    326.68 255.547 o
    276.975 161.494 o
    233.488 48.9996 o
    221.917 21.469 o
    207.648 2.22099 o
    193.47 -4.97993 o
    160.817 19.3123 o
    154.472 83.4137 o
    175.814 173.387 o
    196.719 256.155 o
    168.313 292.267 o
    76.1234 300.122 o
    39.7325 304.101 o
    16.3035 315.411 o
    8.0619 332.979 o
    25.4984 367.245 o
    79.0636 387.429 o
    170 394 o
    291.747 435.98 o
    329.681 515.221 o
    249.796 560.688 o
    204.502 561.217 o
    148.835 560.389 o
    94.899 558.382 o
    28.3366 564.012 o
    7.4627 589.441 o
    0 0 z
  EndSpiro
EndSplineSet
Validated: 1
EndChar
StartChar: eight
Encoding: 56 56 37
Width: 500
InSpiro: 1
Flags: W
HStem: -24.5482 102.732<203.22 324.24> 249.736 153.173<220.798 288.382> 624.214 101.188<187.51 335.576>
VStem: 49.3054 103.504<122.741 204.562 475.645 587.716> 347.107 77.9598<100.253 204.873 456.127 611.218>
LayerCount: 2
Back
Fore
SplineSet
268.515068699 78.1835473895 m 0
 313.309340691 78.1835473895 347.107068038 109.222157702 347.107068038 148.201673301 c 0
 347.107068038 176.359372015 311.922434019 249.735579711 261.980092176 249.735579711 c 0
 252.627669647 249.735579711 242.757724494 247.162426208 232.504399917 241.237310147 c 0
 225.701523013 237.306113499 218.96583755 232.468647955 212.424341925 228.272219193 c 0
 202.880513967 222.149767014 193.280319033 217.090488929 185.202596345 212.180184982 c 0
 162.104941927 198.139531691 152.808928047 181.967662499 152.808928047 165.824200778 c 0
 152.808928047 121.898716069 221.632395932 78.1835473895 268.515068699 78.1835473895 c 0
  Spiro
    212 228 o
    160 190 o
    156 149 o
    183 114 o
    250 80 o
    319 94 o
    347 152 o
    329 200 o
    299 235 o
    256 250 o
    0 0 z
  EndSpiro
268.882657064 624.214064151 m 0
 224.152752021 624.214064151 183.063031428 624.214064151 157.063083631 553.163722065 c 0
 153.559480779 543.589388181 152.00588426 534.852039541 152.00588426 526.753575527 c 0
 152.00588426 506.822014226 161.416446371 490.760353112 174.327939288 475.615331262 c 0
 183.486804655 464.872095218 194.105222719 454.766759492 203.357017762 444.699645371 c 0
 211.193477351 436.17259385 217.8614565 427.877537695 224.377321884 420.687138816 c 0
 229.469736436 415.067548827 240.488073782 402.908574412 255.244278425 402.908574412 c 0
 261.894535125 402.908574412 269.303983364 405.378161947 277.27233762 412.028907192 c 0
 291.793830417 424.14919528 286.828573423 426.368553055 318.602679682 448.767620139 c 0
 337.270160871 461.927208643 347.054335644 473.729066134 347.054335644 498.317520339 c 0
 347.054335644 499.96517307 347.010402416 501.670240604 346.922264901 503.436978785 c 0
 345.639223374 529.155861878 345.190417504 538.152285988 345.190417504 544.176930695 c 0
 345.190417504 547.418096301 345.320314196 549.79914768 345.520093298 553.461167849 c 0
 345.70097876 556.776861042 345.793254636 559.9527496 345.793254636 562.993462723 c 0
 345.793254636 609.233674747 324.454114589 624.214064151 268.882657064 624.214064151 c 0
  Spiro
    210 618 o
    168 576 o
    152 528 o
    174 476 o
    204 444 o
    225 420 o
    254 403 o
    295 430 o
    336 464 o
    344 478 o
    345 528 o
    344 585 o
    315 618 o
    251 624 o
    0 0 z
  EndSpiro
155.779619821 688.704799907 m 0
 192.858224891 710.335017201 218.685612516 725.401711468 254.505723557 725.401711468 c 0
 281.137180085 725.401711468 313.292206463 717.073457526 359.701301529 696.922450804 c 0
 403.868854577 677.744730206 424.05232311 658.319442122 424.05232311 582.376237754 c 0
 424.05232311 578.039395482 423.986501998 573.518240382 423.855567568 568.80229312 c 0
 419.458328601 410.424186585 369.656069471 391.846615784 369.656069471 344.229139877 c 0
 369.656069471 328.663663721 374.97765594 309.995148289 388.946339 282.326139111 c 0
 409.243192109 242.122362379 425.066903011 184.860991487 425.066903011 130.669126995 c 0
 425.066903011 49.6282138578 389.679490814 -24.5481977133 280.944481538 -24.5481977133 c 0
 263.092606932 -24.5481977133 243.263695521 -22.548820753 221.289761876 -18.2521910408 c 0
 126.937840968 0.19672544936 107.568864602 42.4721912671 74.6961366146 114.475212062 c 0
 62.8544837458 140.412663255 49.3053893216 170.090021579 49.3053893216 198.820579225 c 0
 49.3053893216 222.514021595 58.5200316915 245.563551585 85.5060549372 265.340595234 c 0
 92.6544828116 270.579409742 100.875330097 275.375269835 108.29135929 280.669093294 c 0
 130.148372261 296.27140081 137.876056272 313.803767313 137.876056272 330.922143107 c 0
 137.876056272 362.545800498 111.503730275 392.756628649 99.1180603613 406.776635274 c 0
 67.5111037616 442.554251179 49.3780151719 470.025441669 49.3780151719 507.177455972 c 0
 49.3780151719 527.409215621 54.755440232 550.511854343 66.2627221607 579.390188134 c 0
 88.8870783286 636.167602061 109.082749889 661.463660666 155.779619821 688.704799907 c 0
  Spiro
    263.75 725 o
    289.454 721.061 o
    324.571 710.706 o
    361.25 696.25 o
    401.152 670.545 o
    419.765 631.457 o
    423.75 565 o
    418.749 504.855 o
    406.682 446.758 o
    390 402.5 o
    371.774 359.788 o
    372.181 323.031 o
    391.383 277.5 o
    421.214 181.236 o
    419.786 84.6838 o
    387.5 15 o
    220 -18 o
    126 27 o
    74 116 o
    51.5942 176.142 o
    54.9755 227.975 o
    85 264.97 o
    128.758 300.754 o
    134.218 352.007 o
    100 405.778 o
    74.837 435.788 o
    56.8388 469.705 o
    50 500 o
    65.9021 578.485 o
    105.244 649.019 o
    155 688.25 o
    178.097 701.217 o
    204 716 o
    0 0 z
  EndSpiro
EndSplineSet
Validated: 1
EndChar
StartChar: H
Encoding: 72 72 51
Width: 500
InSpiro: 1
Flags: W
HStem: 263.462 89.9424<77.7471 102.584 210.549 280.199> 277.824 90.0254<133.624 289.556 350.106 354.263 372.736 387.669>
VStem: 36.3047 90<16.7483 50.7695 126.495 261.043 394.484 466.17 564.23 600.282> 57.584 74.6152<283.625 332.533> 340.021 90.2559<-3.09673 35.3848 44.2988 80.6354> 356.075 72.2783<46.3176 80.6354 295.372 337.732> 358.927 90.9502<376.635 430.079 494.533 632.884>
LayerCount: 2
Back
Fore
SplineSet
122.25 552.577148438 m 0x20
 122.25 556.48046875 122.583984375 564.11328125 122.583984375 564.23046875 c 0
 122.583984375 589.06640625 102.419921875 609.23046875 77.583984375 609.23046875 c 0
 53.6611328125 609.23046875 34.07421875 590.5234375 32.6650390625 566.952148438 c 0
 30.689453125 533.909179688 36.544921875 500.16796875 36.544921875 481.720703125 c 0
 36.544921875 481.565429688 36.3046875 467.8359375 36.3046875 466.169921875 c 0x20
 36.3046875 444.749023438 40.5439453125 419.072265625 40.5439453125 393.05078125 c 0
 40.5439453125 380.501953125 39.90234375 367.096679688 39.90234375 352.98828125 c 0
 39.90234375 319.944335938 42.6689453125 329.428710938 42.6689453125 312.991210938 c 0
 42.6689453125 305.337890625 42.19921875 296.659179688 42.19921875 287.307617188 c 0
 42.19921875 279.9921875 43.037109375 262.486328125 42.5634765625 255.104492188 c 0
 37.6162109375 237.1640625 41.0830078125 208.626953125 38.6298828125 186.555664062 c 0
 36.5576171875 167.903320312 30.1796875 148.612304688 30.1796875 126.495117188 c 0
 30.1796875 125.73828125 30.6611328125 144.8671875 30.6611328125 50.76953125 c 0
 30.6611328125 25.9326171875 50.82421875 5.76953125 75.6611328125 5.76953125 c 0
 100.497070312 5.76953125 120.661132812 25.9326171875 120.661132812 50.76953125 c 0
 120.661132812 132.549804688 120.293945312 129.618164062 120.311523438 129.755859375 c 0
 122.004882812 143.303710938 126.068359375 158.45703125 128.076171875 176.520507812 c 0
 130.485351562 198.20703125 129.125976562 216.073242188 130.03125 233.737304688 c 0
 132.119140625 241.416015625 132.743164062 250.244140625 132.743164062 261.572265625 c 0
 132.743164062 271.219726562 132.19921875 280.350585938 132.19921875 287.307617188 c 0x10
 132.19921875 294.865234375 132.668945312 303.568359375 132.668945312 312.991210938 c 0
 132.668945312 340.13671875 129.90234375 330.3984375 129.90234375 352.98828125 c 0
 129.90234375 365.536132812 130.543945312 378.94140625 130.543945312 393.05078125 c 0
 130.543945312 423.689453125 126.3046875 450.748046875 126.3046875 466.169921875 c 0
 126.3046875 466.325195312 126.544921875 480.0546875 126.544921875 481.720703125 c 0
 126.544921875 502.4609375 122.25 531.029296875 122.25 552.577148438 c 0x20
  Spiro
    122.25 552.577 o
    122.336 557.302 o
    122.498 562.028 o
    122.584 564.23 o
    116.448 586.915 o
    100.269 603.095 o
    77.584 609.23 o
    55.6386 603.518 o
    39.6088 588.371 o
    32.665 566.952 o
    32.7912 534.3 o
    35.1024 504.647 o
    36.5449 481.721 o
    36.4827 477.997 o
    36.3669 470.901 o
    36.3047 466.17 o
    37.4019 443.499 o
    39.4468 418.787 o
    40.5439 393.051 o
    40.3779 380.235 o
    40.0684 366.843 o
    39.9023 352.988 o
    40.6184 331.598 o
    41.9529 323.317 o
    42.6689 312.991 o
    42.5474 305.017 o
    42.3208 296.413 o
    42.1992 287.308 o
    42.3986 277.36 o
    42.6797 265.097 o
    42.5635 255.104 o
    39.8909 234.287 o
    39.6405 210.126 o
    38.6299 186.556 o
    35.5218 167.629 o
    31.9069 147.731 o
    30.1797 126.495 o
    30.3043 127.439 o
    30.5365 112.022 o
    30.6611 50.7695 o
    36.7968 28.0842 o
    52.9758 11.9052 o
    75.6611 5.76953 o
    98.346 11.9052 o
    114.525 28.0842 o
    120.661 50.7695 o
    120.567 107.529 o
    120.394 127.398 o
    120.312 129.756 o
    122.628 143.872 o
    125.55 159.395 o
    128.076 176.521 o
    129.452 197.048 o
    129.657 215.89 o
    130.031 233.737 o
    131.661 241.841 o
    132.505 251.037 o
    132.743 261.572 o
    132.602 270.977 o
    132.34 279.696 o
    132.199 287.308 o
    132.321 295.223 o
    132.547 303.833 o
    132.669 312.991 o
    131.953 330.395 o
    130.618 338.62 o
    129.902 352.988 o
    130.068 365.803 o
    130.378 379.195 o
    130.544 393.051 o
    129.447 422.17 o
    127.402 447.19 o
    126.305 466.17 o
    126.367 469.894 o
    126.483 476.99 o
    126.545 481.721 o
    125.433 504.496 o
    123.362 529.264 o
    0 0 z
  EndSpiro
189.997070312 347.440429688 m 0
 165.270507812 346.924804688 134.916015625 355.134765625 100.303710938 353.404296875 c 0
 76.525390625 352.215820312 57.583984375 332.533203125 57.583984375 308.461914062 c 0
 57.583984375 283.625 77.7470703125 263.461914062 102.583984375 263.461914062 c 0x94
 104.866210938 263.461914062 106.004882812 263.642578125 110.044921875 263.642578125 c 0
 135.828125 263.642578125 188.879882812 251.965820312 213.432617188 260.352539062 c 1
 261.071289062 264.920898438 257.015625 268.951171875 281.317382812 271.153320312 c 0
 294.012695312 271.13671875 299.163085938 270.861328125 299.34375 270.861328125 c 0
 312.801757812 270.861328125 309.578125 273.692382812 319.443359375 273.692382812 c 0
 325.435546875 273.692382812 336.677734375 273.20703125 350.106445312 277.82421875 c 0
 350.236328125 277.821289062 354.984375 277.712890625 363.12890625 277.237304688 c 0
 364.686523438 276.620117188 372.736328125 273.73046875 383.977539062 275.00390625 c 0
 408.526367188 275.337890625 428.353515625 295.372070312 428.353515625 320 c 0
 428.353515625 337.732421875 418.07421875 353.083007812 403.155273438 360.413085938 c 0
 399.140625 363.004882812 387.668945312 369.037109375 370.325195312 366.999023438 c 0
 352.314453125 367.849609375 352.314453125 367.849609375 348.157226562 367.849609375 c 0x54
 324.973632812 367.849609375 331.20703125 363.697265625 316.181640625 363.697265625 c 0
 303.926757812 363.697265625 296.694335938 362.685546875 289.555664062 361.163085938 c 0
 272.4375 361.15625 267.452148438 361.153320312 237.166992188 354.823242188 c 0
 224.297851562 352.1328125 219.5859375 351.147460938 210.548828125 350.436523438 c 0
 202.919921875 349.8359375 196.146484375 349.249023438 189.997070312 347.440429688 c 0
  Spiro
    189.997 347.44 o
    163.474 349.139 o
    133.414 352.515 o
    100.304 353.404 o
    78.6791 346.585 o
    63.3643 330.528 o
    57.584 308.462 o
    63.7196 285.777 o
    79.8987 269.598 o
    102.584 263.462 o
    104.633 263.509 o
    106.825 263.596 o
    110.045 263.643 o
    142.814 260.93 o
    181.483 257.477 o
    213.433 260.353 v
    246.783 264.69 o
    263.518 268.393 o
    281.317 271.153 o
    291.585 271.07 o
    297.415 270.933 o
    299.344 270.861 o
    308.338 271.594 o
    312.843 272.96 o
    319.443 273.692 o
    327.063 273.737 o
    337.532 274.703 o
    350.106 277.824 o
    351.727 277.777 o
    356.168 277.6 o
    363.129 277.237 o
    366.723 276.102 o
    373.931 274.879 o
    383.978 275.004 o
    406.373 281.333 o
    422.315 297.483 o
    428.354 320 o
    425.142 336.714 o
    416.308 350.63 o
    403.155 360.413 o
    396.722 363.722 o
    385.64 366.775 o
    370.325 366.999 o
    357.505 367.597 o
    351.746 367.818 o
    348.157 367.85 o
    332.912 366.775 o
    325.991 364.772 o
    316.182 363.697 o
    305.428 363.379 o
    296.9 362.496 o
    289.556 361.163 o
    275.109 360.924 o
    260.388 359.276 o
    237.167 354.823 o
    226.563 352.65 o
    218.599 351.291 o
    210.549 350.437 o
    203.204 349.795 o
    196.356 348.886 o
    0 0 z
  EndSpiro
451.516601562 511.536132812 m 0
 453.192382812 523.006835938 453.192382812 523.006835938 453.192382812 538.357421875 c 0
 457.579101562 555.884765625 455.564453125 566.694335938 448.744140625 603.283203125 c 0
 444.8515625 624.16796875 426.513671875 640 404.506835938 640 c 0
 379.669921875 640 359.506835938 619.8359375 359.506835938 595 c 0
 359.506835938 585.28515625 364.251953125 570.768554688 365.172851562 557.352539062 c 0
 362.930664062 548.13671875 363.102539062 540.215820312 363.3125 530.510742188 c 0
 359.330078125 502.270507812 358.821289062 498.658203125 358.821289062 482.8203125 c 0
 358.821289062 459.689453125 361.21484375 443.657226562 358.926757812 430.079101562 c 0x02
 358.8359375 429.538085938 355.482421875 403.333007812 355.482421875 375.323242188 c 0
 355.482421875 373.317382812 356.075195312 340.885742188 356.075195312 340.538085938 c 0x04
 356.075195312 339.698242188 353.737304688 294.892578125 353.737304688 256.538085938 c 0
 353.737304688 237.896484375 354.8046875 219.625976562 354.8046875 202.553710938 c 0
 354.8046875 170.30078125 351.522460938 184.38671875 351.522460938 162.247070312 c 0
 351.522460938 161.81640625 351.522460938 161.81640625 351.952148438 149.515625 c 0
 350.19140625 143.30859375 349.461914062 136.43359375 349.745117188 128.850585938 c 0
 348.2109375 123.221679688 347.837890625 118.856445312 347.837890625 114.046875 c 0
 341.83203125 93.1025390625 340.9296875 86.048828125 343.014648438 68.9609375 c 1
 339.91015625 59.197265625 340.020507812 51.283203125 340.020507812 46.0712890625 c 0
 340.020507812 43.451171875 340.276367188 35.4912109375 340.276367188 35.384765625 c 0
 340.276367188 10.5478515625 360.439453125 -9.615234375 385.276367188 -9.615234375 c 0
 410.112304688 -9.615234375 430.276367188 10.5478515625 430.276367188 35.384765625 c 0x08
 430.276367188 36.470703125 430.276367188 36.470703125 430.053710938 44.298828125 c 0
 434.88671875 57.296875 433.6328125 68.470703125 432.202148438 81.232421875 c 0
 432.354492188 81.880859375 436.586914062 97.361328125 436.627929688 97.525390625 c 0
 436.705078125 97.8330078125 440.8046875 115.205078125 439.907226562 129.051757812 c 0
 442.27734375 137.708984375 442.172851562 141.025390625 441.549804688 160.8515625 c 0
 444.081054688 169.318359375 444.8046875 185.771484375 444.8046875 202.553710938 c 0
 444.8046875 221.526367188 443.737304688 239.8515625 443.737304688 256.538085938 c 0
 443.737304688 279.311523438 444.192382812 300.856445312 445.572265625 322.923828125 c 0
 447.397460938 352.125 443.668945312 356.543945312 446.794921875 404.180664062 c 0
 447.873046875 420.611328125 449.876953125 423.622070312 449.876953125 443.65625 c 0x02
 449.876953125 462.92578125 447.950195312 480.342773438 449.301757812 494.533203125 c 0
 449.772460938 499.471679688 450.581054688 505.133789062 451.516601562 511.536132812 c 0
  Spiro
    451.517 511.536 o
    452.695 520.17 o
    453.131 527.138 o
    453.192 538.357 o
    455.504 554.832 o
    453.9 574.107 o
    448.744 603.283 o
    440.448 622.068 o
    424.873 635.131 o
    404.507 640 o
    381.822 633.864 o
    365.642 617.685 o
    359.507 595 o
    360.769 583.915 o
    363.297 570.903 o
    365.173 557.353 o
    363.648 548.463 o
    363.203 539.726 o
    363.312 530.511 o
    360.38 509.131 o
    359.1 495.936 o
    358.821 482.82 o
    359.356 461.903 o
    359.916 444.632 o
    358.927 430.079 o
    357.995 421.882 o
    356.354 401.824 o
    355.482 375.323 o
    355.636 365.506 o
    355.922 349.25 o
    356.075 340.538 o
    355.47 326.935 o
    354.342 295.139 o
    353.737 256.538 o
    354.014 238.069 o
    354.528 219.977 o
    354.805 202.554 o
    353.955 182.7 o
    352.372 175.362 o
    351.522 162.247 o
    351.538 161.49 o
    351.65 158.182 o
    351.952 149.516 o
    350.536 143.091 o
    349.8 136.192 o
    349.745 128.851 o
    348.57 123.585 o
    347.991 118.767 o
    347.838 114.047 o
    343.458 96.861 o
    342.004 83.5771 o
    343.015 68.9609 v
    340.86 59.8538 o
    340.107 52.1454 o
    340.021 46.0713 o
    340.087 42.1646 o
    340.21 37.6165 o
    340.276 35.3848 o
    346.412 12.6995 o
    362.591 -3.4796 o
    385.276 -9.61523 o
    407.961 -3.4796 o
    424.141 12.6995 o
    430.276 35.3848 o
    430.268 36.4375 o
    430.21 38.7535 o
    430.054 44.2988 o
    433.075 56.803 o
    433.354 68.8857 o
    432.202 81.2324 o
    433.406 85.7011 o
    435.498 93.3795 o
    436.628 97.5254 o
    437.71 102.749 o
    439.474 114.806 o
    439.907 129.052 o
    441.524 136.73 o
    441.927 145.731 o
    441.55 160.852 o
    443.517 171.684 o
    444.524 186.18 o
    444.805 202.554 o
    444.528 221.255 o
    444.014 239.36 o
    443.737 256.538 o
    443.906 278.945 o
    444.484 300.988 o
    445.572 322.924 o
    446.006 346.363 o
    445.494 368.458 o
    446.795 404.181 o
    448.072 417.255 o
    449.319 428.181 o
    449.877 443.656 o
    449.428 462.239 o
    448.85 479.334 o
    449.302 494.533 o
    449.877 499.708 o
    450.632 505.386 o
    0 0 z
  EndSpiro
EndSplineSet
Validated: 37
EndChar
StartChar: I
Encoding: 73 73 15
Width: 500
InSpiro: 1
Flags: W
HStem: 8.7002 91.3994<43.8512 188.9> 17.5 87.5<282.425 396.061> 555 90<63.2255 180.9> 563 89.5996<270.9 399.863>
VStem: 187.7 89.3994<230.79 554.934> 191.6 90.4004<322.5 342 398.4 414.2>
LayerCount: 2
Back
Fore
SplineSet
341 655.299804688 m 0x18
 350.599609375 657.5 354.5 657.900390625 364.5 657.700195312 c 0
 378.200195312 657.400390625 384.099609375 655.599609375 392.5 649.200195312 c 0
 403.200195312 641.099609375 409 630.099609375 409.799804688 616.200195312 c 0
 411.200195312 591.799804688 395 572.299804688 370.5 569 c 0
 366.099609375 568.400390625 356.900390625 566.700195312 350 565.200195312 c 0
 337.700195312 562.599609375 337 562.5 304.099609375 562.799804688 c 2
 270.799804688 563 l 1
 271.400390625 555.200195312 l 2
 271.700195312 551 272.5 538.099609375 273 526.5 c 0
 274.299804688 500.400390625 274.599609375 496.700195312 277.099609375 485.700195312 c 0x18
 278.200195312 480.900390625 279.5 470.299804688 280 462.200195312 c 0
 280.599609375 454.099609375 281.700195312 444.099609375 282.5 440 c 0
 283.299804688 435.900390625 284.400390625 422.599609375 285 410.5 c 0
 285.5 398.400390625 286.400390625 385.400390625 287 381.5 c 0
 289.5 365.099609375 289.799804688 355.5 289.5 318.5 c 0
 289.099609375 280.900390625 289 279.099609375 286.5 267.5 c 0
 282.5 249.200195312 282 238 283.099609375 190 c 0
 283.900390625 155.400390625 283.799804688 145 282.799804688 139 c 0
 282 134.599609375 281.700195312 127.900390625 282 122.700195312 c 0
 282.299804688 117.799804688 282.299804688 111.200195312 282 107.900390625 c 0
 281.700195312 104.700195312 281.599609375 102 281.900390625 102 c 0
 282.099609375 102 286.599609375 103.400390625 291.799804688 105 c 0
 298.599609375 107.200195312 304.599609375 108.299804688 313.400390625 109 c 0
 320 109.5 328.900390625 110.400390625 333 110.900390625 c 0
 346.299804688 112.700195312 368 112.299804688 374.900390625 110.099609375 c 0
 406.099609375 100.400390625 416.700195312 60.7998046875 394.299804688 36.900390625 c 0
 384.599609375 26.5 375.799804688 23.099609375 355.5 22 c 0
 330.200195312 20.5 317.599609375 19.2001953125 313.700195312 17.5 c 0x54
 307.200195312 14.7998046875 298.099609375 13.2001953125 274.099609375 10.5 c 0
 252.299804688 8.099609375 250 8 238.599609375 9.2001953125 c 0
 224.299804688 10.7001953125 225 10.7001953125 199 9 c 0
 183.700195312 8 177.099609375 7.900390625 173 8.7001953125 c 0
 169 9.5 162.700195312 9.5 150.5 8.7001953125 c 0
 133 7.599609375 94.2998046875 8.7998046875 76.5 11 c 0
 60.400390625 13 47.5 22.099609375 40.5 36.400390625 c 0
 29.599609375 58.400390625 39.099609375 85.7001953125 61.400390625 96.099609375 c 0
 70.7001953125 100.400390625 77.400390625 101.400390625 90.400390625 100.099609375 c 0
 110 98.2001953125 136.700195312 97.7001953125 151 98.900390625 c 0
 158.400390625 99.599609375 170 100.400390625 176.700195312 100.700195312 c 2
 188.900390625 101.299804688 l 1
 190.099609375 106.400390625 l 2
 190.799804688 109.200195312 191.5 118.700195312 191.599609375 127.5 c 0x84
 191.700195312 136.299804688 192.299804688 145.700195312 192.900390625 148.299804688 c 0
 193.700195312 151.799804688 193.799804688 164 193 192.299804688 c 0
 191.900390625 239 192.700195312 259.200195312 196.599609375 276.700195312 c 0
 199.099609375 288 199.200195312 290.099609375 199.5 322.5 c 0
 199.700195312 342 199.400390625 358.400390625 198.799804688 361 c 0
 197.5 367.400390625 195 397.700195312 195 409 c 0
 195 414.200195312 194.099609375 423.700195312 192.900390625 430 c 0
 191.799804688 436.299804688 190.5 447.099609375 190.099609375 454 c 0
 189.599609375 460.900390625 188.5 469.700195312 187.700195312 473.5 c 0
 185.599609375 482.900390625 184.299804688 497.099609375 183 524 c 0
 182.5 536.400390625 181.799804688 548.400390625 181.400390625 550.799804688 c 2
 180.900390625 555 l 1
 153.799804688 555 l 2
 139 555 120.299804688 554.5 112.299804688 553.900390625 c 0
 95 552.599609375 88.7998046875 553.400390625 78.7001953125 558.700195312 c 0
 61.2998046875 567.900390625 51.599609375 588.700195312 56.099609375 607.900390625 c 0
 59.7001953125 623.700195312 73.099609375 637.599609375 88.5 641.400390625 c 0
 98.2001953125 643.799804688 122.5 645 164.299804688 645 c 0xa8
 209.400390625 645.099609375 222.5 645.799804688 244 649.700195312 c 0
 258.900390625 652.299804688 260.900390625 652.5 294.5 652.599609375 c 0
 328.400390625 652.700195312 329.799804688 652.799804688 341 655.299804688 c 0x18
EndSplineSet
EndChar
StartChar: J
Encoding: 74 74 52
Width: 500
InSpiro: 1
Flags: W
HStem: 544.9 84.1992<266.134 322.7 414.057 471.477>
VStem: 11.2998 88.2998<158.936 223.076> 326.6 87.1006<210.45 539.9>
LayerCount: 2
Back
Fore
SplineSet
398.5 632.400390625 m 0
 404.5 634.099609375 424.799804688 634.400390625 437 633 c 0
 457.799804688 630.599609375 473.799804688 615.400390625 477.099609375 594.900390625 c 0
 480.599609375 573.400390625 465.599609375 550.700195312 444.099609375 545 c 0
 441.700195312 544.400390625 433.799804688 543.799804688 426.599609375 543.700195312 c 2
 413.5 543.5 l 1
 413.700195312 527.599609375 l 2
 413.900390625 518.900390625 415.099609375 493.900390625 416.5 472.099609375 c 0
 419.799804688 421.900390625 420.599609375 383.400390625 419.099609375 358.5 c 0
 417.799804688 338.299804688 410.700195312 265.200195312 408.900390625 253.5 c 0
 408.299804688 249.700195312 407 243.200195312 405.900390625 239.099609375 c 0
 404.799804688 235 403 226.400390625 401.900390625 220.099609375 c 0
 399.900390625 208 397.099609375 198.099609375 394 192.099609375 c 0
 391.5 187.099609375 382.700195312 159.400390625 380.099609375 148.5 c 0
 379 143.599609375 377.5 137.5 377 135.099609375 c 0
 376.400390625 132.700195312 374.400390625 127.5 372.5 123.599609375 c 0
 370.599609375 119.700195312 367.200195312 111.099609375 364.900390625 104.5 c 0
 360.599609375 92 354.799804688 79.5 350.099609375 72.599609375 c 0
 348.599609375 70.2998046875 346.700195312 66.900390625 346 65 c 0
 342.700195312 56.599609375 335.299804688 47.099609375 326.799804688 40.5 c 0
 323.700195312 38 319 34 316.299804688 31.5 c 0
 302 18.099609375 274.900390625 11.5 245.099609375 14 c 0
 216.799804688 16.400390625 168.599609375 28.5 139.200195312 40.599609375 c 0
 108.299804688 53.400390625 74.2001953125 75.2001953125 62.2998046875 89.900390625 c 0
 59.7998046875 93 52.5 101 46 107.599609375 c 2
 34.2998046875 119.799804688 l 1
 25.2001953125 138.099609375 l 2
 14.400390625 160.099609375 12 167.200195312 11.2998046875 180.299804688 c 0
 10.599609375 192.200195312 12.5 200.299804688 18 208.799804688 c 0
 31.099609375 229.099609375 58.599609375 235.5 79 223.099609375 c 0
 88.7001953125 217.200195312 98.099609375 204 99.599609375 194 c 0
 100.299804688 188.900390625 106 177.700195312 111.299804688 170.599609375 c 0
 120.299804688 158.799804688 133.599609375 145.900390625 142.799804688 139.900390625 c 0
 154.200195312 132.5 171 124.299804688 185 119.5 c 0
 205.5 112.400390625 238 104.799804688 253.599609375 103.5 c 2
 261.700195312 102.799804688 l 1
 264.700195312 106.599609375 l 2
 266.400390625 108.799804688 268.700195312 112.299804688 269.799804688 114.5 c 0
 270.900390625 116.700195312 273 120 274.400390625 121.900390625 c 0
 275.799804688 123.799804688 277.900390625 128.299804688 279.099609375 131.900390625 c 0
 280.299804688 135.5 283 143 285.200195312 148.5 c 0
 287.299804688 154 291.299804688 166.400390625 294.099609375 176 c 0
 300.900390625 199.5 306.700195312 217.200195312 310 224.599609375 c 0
 311.5 228 313.099609375 233.599609375 313.5 237.099609375 c 0
 313.900390625 240.599609375 315.5 248.599609375 317.099609375 254.900390625 c 0
 319.400390625 263.700195312 320.900390625 274.900390625 324 305.400390625 c 0
 326.099609375 326.900390625 328.400390625 352.200195312 329.099609375 361.5 c 0
 330.599609375 383.5 329.799804688 419.5 326.599609375 469 c 0
 325.200195312 490.200195312 323.799804688 514.799804688 323.400390625 523.700195312 c 2
 322.700195312 539.900390625 l 1
 318.599609375 540.400390625 l 2
 316.299804688 540.700195312 310 541.299804688 304.5 541.799804688 c 0
 299 542.400390625 292 543.799804688 289 544.900390625 c 0
 278.200195312 549 268.200195312 559.200195312 263.599609375 571 c 0
 261.200195312 576.900390625 260.400390625 590.5 261.900390625 596.700195312 c 0
 265.799804688 612 276.599609375 623.900390625 291.5 629.099609375 c 0
 298.799804688 631.599609375 313 631.799804688 332.599609375 629.599609375 c 0
 355.099609375 627.099609375 360.599609375 626.799804688 364.799804688 627.900390625 c 0
 367 628.5 374.400390625 629.5 381.200195312 630 c 0
 388 630.599609375 395.799804688 631.599609375 398.5 632.400390625 c 0
EndSplineSet
EndChar
StartChar: L
Encoding: 76 76 54
Width: 500
InSpiro: 1
Flags: W
HStem: 8.68964 105.835<202.492 321.285> 8.97938 98.1601<170.93 265.399 267.069 355.128> 12.8589 119.434<356.407 424.197> 17.264 91.9575<282.138 398.001>
VStem: 44.7504 121.257<302.479 635.433> 58.9982 104.279<274.412 599.125> 66.2023 109.445<140.554 419.341>
LayerCount: 2
Back
Fore
SplineSet
58.9981626212 376.030822011 m 0x44
 56.1995627471 422.977306295 55.746359233 470.088652246 52.4266208356 511.657917959 c 0
 50.0538740877 541.369096439 46.4287012308 565.595101309 45.0669774905 588.855898746 c 0
 44.8537363654 592.498457415 44.7504213433 595.970962974 44.7504213433 599.27998689 c 0
 44.7504213433 646.061604163 65.4001393095 660.167916771 88.0186475977 660.167916771 c 0
 106.068718735 660.167916771 125.372593097 651.184461272 136.436399963 642.654533991 c 0
 162.654991204 622.440634796 166.007280363 585.659933025 166.007280363 559.644256598 c 0x48
 166.007280363 555.756539048 165.932418499 552.109221364 165.847816412 548.793514591 c 0
 164.246011741 486.015931241 163.276920266 448.035507075 163.276920266 421.245185915 c 0x44
 163.276920266 380.21194684 165.550344758 365.429949163 171.305846606 328.007190999 c 0
 174.481791152 307.356931857 175.647577315 285.470247605 175.647577315 264.179135721 c 0
 175.647577315 205.387803973 166.758661195 151.137607629 166.758661195 140.000331801 c 0
 166.758661195 137.067804911 167.607290502 107.139433663 202.250850285 107.139433663 c 0x42
 207.391433412 107.139433663 213.233480672 107.766589957 219.86467342 109.142464565 c 0
 239.331854188 113.181617206 253.989552594 114.525049932 265.961860107 114.525049932 c 0x82
 289.749691359 114.525049932 302.936165039 109.22146052 322.182400357 109.22146052 c 0x12
 337.649885826 109.22146052 357.031214219 112.646911409 388.974589972 125.003628841 c 0
 402.146015896 130.098756844 413.19908268 132.292604553 422.229107727 132.292604553 c 0
 443.570472806 132.292604553 453.612023141 120.038743339 453.612023141 104.869685581 c 0
 453.612023141 95.9723597117 450.157385077 86.0721061456 443.502015898 77.053387201 c 0
 428.7966442 57.1260757672 428.7966442 57.1260757672 424.443842984 35.6331428507 c 0
 420.663058074 16.9646688236 409.447662177 12.8588901057 398.234485031 12.8588901057 c 0x22
 393.25565901 12.8588901057 388.277270416 13.6683439203 383.950321725 14.3718778163 c 0
 371.08867852 16.4630978885 362.562809401 17.263953094 356.102950421 17.263953094 c 0x12
 334.965832612 17.263953094 335.94834744 8.68963750896 279.535527525 8.68963750896 c 0x82
 274.663347751 8.68963750896 269.36304594 8.75359485797 263.58339669 8.89255710522 c 0
 261.137288206 8.95136979738 258.666651598 8.9793812072 256.174879398 8.9793812072 c 0
 206.138147002 8.9793812072 147.578745157 -2.31587734224 107.967103622 -2.31587734224 c 0
 90.9970685636 -2.31587734224 77.5046179193 -0.242797756839 69.6497089188 5.67961868985 c 0
 56.416465342 15.6571727771 46.1869150856 33.942754304 46.1869150856 66.6335170179 c 0
 46.1869150856 71.6372169757 46.4265714425 76.9783993406 46.9317953833 82.6789279187 c 0
 51.0178034462 128.782059327 66.2023084489 166.636854076 66.2023084489 247.52507489 c 0x42
 66.2023084489 255.540270023 66.0532150989 263.978001001 65.729456592 272.888161948 c 0
 64.5496932658 305.356439668 61.1078873014 340.640212063 58.9981626212 376.030822011 c 0x44
  Spiro
    52 517 o
    45 590 o
    47 625 o
    73.0716 657.607 o
    113.852 654.66 o
    136.763 642.403 o
    160 607 o
    163 465 o
    169 343 o
    176 260 o
    174 223 o
    171 177 o
    188.316 108.921 o
    220.966 109.371 o
    264.343 114.268 o
    390.341 125.532 o
    452.119 112.762 o
    443.618 77.211 o
    433.882 64.2148 o
    426.976 49.1634 o
    424.367 35.2539 o
    417.787 20.6391 o
    387.6 13.7784 o
    318.486 11.1896 o
    256.131 9.07174 o
    193.588 5.28547 o
    145.227 0.700859 o
    107.591 -2.42645 o
    81.9672 -0.751554 o
    69.7069 5.63652 o
    60.0776 164.016 o
    59 376 o
    0 0 z
  EndSpiro
EndSplineSet
Validated: 1
EndChar
StartChar: N
Encoding: 78 78 56
Width: 500
InSpiro: 1
Flags: W
HStem: 649.028 20G<364.816 377.085>
VStem: 31.5425 78.1562<587.734 647.334> 44.914 69.8615<110.867 424.351> 357.529 66.33<284.821 631.921>
LayerCount: 2
Back
Fore
SplineSet
354.768909574 662.040739074 m 0xd0
 358.012806177 666.824711141 362.353430704 669.027875474 367.278965434 669.027875474 c 0
 386.89196651 669.027875474 415.779041019 634.095491502 421.626442127 588.073339325 c 0
 423.161353821 575.992769124 423.859440604 557.239780675 423.859440604 533.794031423 c 0
 423.859440604 395.696051949 399.640461492 94.7904122032 379.553312096 35.6154379871 c 0
 373.673282145 18.2933872635 358.178624201 0.673435104674 336.657118835 0.673435104674 c 0
 297.111425877 0.673435104674 237.216722898 60.165331602 179.232002586 290.313496083 c 0
 158.824156904 371.314632235 139.672012126 425.016100611 127.633213872 425.016100611 c 0
 119.634166831 425.016100611 114.775514188 401.308020324 114.775514188 346.14726158 c 0
 114.775514188 295.834974322 118.81758122 219.356207588 128.205542152 110.834303889 c 0
 131.262630388 75.4953162714 133.103842777 51.0572407212 133.103842777 34.2558220615 c 0
 133.103842777 4.54331347728 127.345591383 -1.2861328125 112.370539801 -1.2861328125 c 0
 59.578125 -1.2861328125 50.3984375 71.1630859375 44.9139924664 292.810741758 c 0xb0
 42.2177734375 401.775390625 36.7890625 549.034179688 32.6492141109 598.04071561 c 0
 31.9399349479 606.436992844 31.5425125667 613.577062957 31.5425125667 619.636200876 c 0
 31.5425125667 645.727162133 38.9115507171 651.775390625 60.4814549961 651.775390625 c 0
 91.3989810953 651.775390625 109.698679392 639.349108024 109.698679392 622.534910248 c 0
 109.698679392 594.513751845 129.731998421 585.932663228 131.52566363 585.220571831 c 0
 167.7734375 570.830078125 224.643554688 429.326171875 258.008009307 281.278067555 c 0
 272.015625 219.122070312 289.8984375 159.298828125 296.851262839 147.035641751 c 0
 298.588032192 143.972379663 300.411251097 142.521368064 302.297750573 142.521368064 c 0
 325.235803163 142.521368064 357.529422381 357.04275427 357.529422381 496.238155896 c 0
 357.529422381 528.819373897 355.760121985 557.273637484 351.687407394 577.883911687 c 0
 349.240140701 590.268486266 347.292684897 607.163662578 347.292684897 622.999799797 c 0
 347.292684897 639.018583234 349.28532175 653.953757832 354.768909574 662.040739074 c 0xd0
  Spiro
    349.192 653.816 o
    375.984 663.766 o
    404.511 637.317 o
    421.83 586.47 o
    420.812 423.274 o
    404.045 193.209 o
    382.268 43.6123 o
    368.784 17.5688 o
    349.661 4.13035 o
    323.888 2.58496 o
    273.576 44.0932 o
    221.586 154.375 o
    168.889 331.367 o
    133.626 438.776 o
    107.623 466.945 o
    102.95 402.796 o
    124.333 124.971 o
    117.847 16.8049 o
    78.7206 -1.28613 o
    62.7106 24.3979 o
    52.1024 108.127 o
    45.7532 258.918 o
    41.7482 398.841 o
    37.4115 516.452 o
    33.7125 585.449 o
    32.9475 628.012 o
    43.4783 647.288 o
    69.9468 651.775 o
    90.4752 647.783 o
    104.94 637.413 o
    109.802 623.204 o
    112.456 607.096 o
    121.628 593.026 o
    135.625 583.594 o
    174.226 532.342 o
    218.973 421.001 o
    259.136 276.266 o
    273.15 220.017 o
    287.433 172.237 o
    298.792 143.612 o
    329.202 209.284 o
    355.085 397.925 o
    355.636 557.898 o
    348.843 600.934 o
    346.524 635.461 o
    0 0 z
  EndSpiro
EndSplineSet
Validated: 1
EndChar
StartChar: R
Encoding: 82 82 60
Width: 500
InSpiro: 1
Flags: W
HStem: 302.68 97.32<142.715 208.562> 577.726 88.2679<188.015 280.669>
VStem: 282 99.8312<437.99 577.464>
LayerCount: 2
Back
Fore
SplineSet
93.901803917 651.162258899 m 0
 97.502063715 650.845363629 101.150058342 650.700949478 104.844009092 650.700949478 c 0
 142.857289942 650.700949478 185.73724082 665.994145608 231.545492281 665.994145608 c 0
 259.07906106 665.994145608 287.670550837 660.469100328 316.899048039 642.777227586 c 0
 365.442370446 613.394181425 381.831225175 573.113066873 381.831225175 531.340776789 c 0
 381.831225175 474.793284375 351.798223721 415.513174115 330.842062448 376.836176196 c 0
 321.42359259 359.453310397 314.685951612 349.071814388 309.397808168 339.557011728 c 0
 303.434227321 328.826914198 300.744526416 320.331814812 300.744526416 312.955267793 c 0
 300.744526416 297.241808129 312.949627743 286.604022473 331.713034806 270.250114616 c 0
 350.887885114 253.537598915 357.66127466 239.6698581 367.956648686 217.85383818 c 0
 401.567420367 146.63221353 421.773774726 137.18058078 430.957461461 99.8991340481 c 0
 432.499052917 93.6409981376 433.211825914 87.720573757 433.211825914 82.2118761765 c 0
 433.211825914 56.3084225532 417.451372107 39.5088508737 397.996216208 39.5088508737 c 0
 388.335247715 39.5088508737 377.7632101 43.6514233006 367.757551471 52.8789033276 c 0
 340.220925939 78.273899453 344.778152042 102.138502481 279.328783004 173.473590613 c 0
 265.322589884 188.73933015 248.045707693 208.755575347 235.48824873 232.987518885 c 0
 230.697116618 242.232895929 226.193378312 252.863082701 221.110835427 262.767399701 c 0
 206.049784862 292.116767238 188.060984131 302.679969798 172.954490724 302.679969798 c 0
 154.963133905 302.679969798 141.060058551 287.69706187 141.060058551 271.622103624 c 0
 141.060058551 249.540191756 174.318952871 219.772054713 174.318952871 167.146145675 c 0
 174.318952871 161.545822433 173.940434847 155.691484403 173.102631627 149.566483205 c 0
 168.915719189 118.956856664 161.146914368 112.859368433 156.974188591 57.6071608427 c 0
 154.010740815 18.3673352514 139.07980984 5.07970947102 123.77396172 5.07970947102 c 0
 111.379693672 5.07970947102 98.7395801202 13.7928427697 92.0092159983 24.4942835275 c 0
 56.0034616639 81.7442985294 54.7005030458 427.56709229 21.4090815718 500.810198685 c 0
 7.80328897817 530.743751246 4.18242074464 538.709876618 -3.04768471762 591.677625135 c 0
 -4.32030220075 601.000820095 -4.94702917053 609.091058241 -4.94702917053 616.093284921 c 0
 -4.94702917053 648.804742164 8.73044286437 657.771814513 34.13164591 657.771814513 c 0
 41.8135917731 657.771814513 50.5677967785 656.951680949 60.340220612 655.720153054 c 0
 72.8018654953 654.149727584 83.5233053976 652.075775498 93.901803917 651.162258899 c 0
  Spiro
    128 652 o
    316.828 642.82 o
    382.138 540.718 o
    327.311 370.318 o
    308.683 338.271 o
    302.056 322.168 o
    332 270 o
    366 222 o
    419.806 127.773 o
    432 70 o
    404.555 40.2529 o
    368.101 52.5618 o
    333.282 103.333 o
    283.022 169.448 o
    236 232 o
    142.889 282.223 o
    141.081 270.552 o
    147.039 250.554 o
    159.442 226.667 o
    173.142 149.855 o
    156.983 57.7186 o
    120.667 5.58105 o
    92.1588 24.2564 o
    70.9028 113.391 o
    53.1074 288.889 o
    43.4399 387.221 o
    32.1828 463.075 o
    21.7773 500 o
    12.2314 520.22 o
    3.52317 551.887 o
    -2.66699 588.889 o
    -3.83161 630.027 o
    7.32704 650.992 o
    34 657.777 o
    61.9925 655.512 o
    94.3762 651.121 o
    0 0 z
  EndSpiro
282 536.511088645 m 0
 282 566.635969545 278.688096546 577.726268264 259.263004753 577.726268264 c 0
 255.087571322 577.726268264 250.167648605 577.213855178 244.376100465 576.267927766 c 0
 168.074408823 563.805653438 127.396529271 506.625905987 127.396529271 460.722154056 c 0
 127.396529271 427.387989616 148.847210308 400 193.683947723 400 c 0
 239.555664062 400 282 428.666992188 282 536.511088645 c 0
  Spiro
    282 502 o
    278.109 553.782 o
    257.275 573.341 o
    206 570 o
    137.119 519.226 o
    124.27 440.616 o
    178.444 400 o
    232.407 410.127 o
    268.758 443.008 o
    0 0 z
  EndSpiro
EndSplineSet
Validated: 1
EndChar
StartChar: Z
Encoding: 90 90 68
Width: 500
Flags: W
HStem: 19.1309 90.1045<117.808 430.691> 533.481 71.0071<64.8389 246.784>
VStem: 253.777 131.801<487.751 588.262>
LayerCount: 2
Back
Fore
SplineSet
121.822604935 532.057415108 m 0
 58.2754187353 523.677566379 18.9299404307 488.132124481 3.04779096038 488.132124481 c 0
 -2.35639653341 488.132124481 -5.0439453125 492.247658311 -5.0439453125 502.949353957 c 0
 -5.0439453125 541.44921875 29.7392578125 575.518554688 80.9031656554 588.112800254 c 0
 116.979492188 596.993164062 191.6953125 602.703125 294.330538937 604.488374494 c 0
 305.120978058 604.676064692 314.654098121 604.793136442 323.073624709 604.793136442 c 0
 378.163962592 604.793136442 385.578037755 599.780945154 385.578037755 576.743489121 c 0
 385.578037755 527.610625681 362.335012744 474.119250114 318.754667894 405.714405707 c 0
 263.592773438 319.130859375 243.225585938 259.373046875 219.235225638 223.968441734 c 0
 209.65234375 209.826171875 212.690848083 219.049073769 196.706846115 190.379411163 c 0
 179.578703498 159.657563728 175.943057395 148.804138094 175.943057395 143.080308696 c 0
 175.943057395 140.500097352 176.68184364 138.962252353 177.256507167 137.116665182 c 0
 183.600295929 116.742977619 217.615484348 109.235400087 272.463177692 109.235400087 c 0
 293.100653166 109.235400087 316.687557314 110.298309445 342.85957222 112.138671307 c 0
 374.775786656 114.382953378 405.732007987 115.673784006 429.463604798 115.673784006 c 0
 455.784146344 115.673784006 473.217773438 114.085950433 473.217773438 110.450003546 c 0
 473.217773438 107.703125 463.267578125 85.4345703125 456.127540525 72.1744384815 c 0
 431.13671875 25.7626953125 402.565429688 19.130859375 289.029247256 19.130859375 c 0
 180.826171875 19.130859375 92.146484375 25.154296875 65.2855810534 35.3618669224 c 0
 49.453399317 41.3783475353 40.3510057231 54.4523460378 40.3510057231 72.1760395937 c 0
 40.3510057231 91.8119397108 51.5234648487 117.154968112 77.0947612619 144.930856413 c 0
 109.590820312 180.228515625 145.78125 240.869140625 212.462572424 383.05760982 c 0
 239.770585836 441.288078004 253.777464083 473.928070996 253.777464083 493.562093652 c 0
 253.777464083 513.211924383 239.748021847 519.834833174 210.981688262 526.045746107 c 0
 183.46723849 531.986365944 161.315538032 533.481288152 145.861480358 533.481288152 c 0
 132.778256446 533.481288152 124.495311445 532.409859923 121.822604935 532.057415108 c 0
EndSplineSet
Validated: 1
EndChar
StartChar: d
Encoding: 100 100 76
Width: 500
InSpiro: 1
Flags: W
HStem: 9.71153 90.1138<132.001 237.671> 355.099 90.107<160.574 272.103>
VStem: 15.2525 90.0164<128.455 290.636> 318.698 89.987<409.763 688.531>
LayerCount: 2
Back
Fore
SplineSet
105.268827443 199.864137314 m 0
 105.268827443 134.673434662 139.572086682 99.8253719579 180.755148877 99.8253719579 c 0
 233.814166556 99.8253719579 298.292948497 157.669566577 315.544751672 282.993078679 c 1
 296.585206399 293.914163457 299.682537335 306.931701637 279.75876246 326.855476512 c 0
 268.790161188 337.824077784 246.630852205 355.099270098 215.133108891 355.099270098 c 0
 146.126139723 355.099270098 105.268827443 272.181060033 105.268827443 199.864137314 c 0
  Spiro
    105.269 197.001 o
    138.641 113.22 o
    212.229 106.617 o
    285.334 180.672 o
    299.243 213.177 o
    309.134 247.659 o
    315.545 282.993 v
    302.252 294.804 o
    293.464 309.276 o
    279.069 327.546 o
    264.892 339.245 o
    242.997 350.249 o
    213.78 355.099 o
    155.627 330.863 o
    118.341 271.333 o
    0 0 z
  EndSpiro
15.2524766002 194.338855799 m 0
 15.2524766002 331.12270002 98.1464967338 445.206259081 213.627683416 445.206259081 c 0
 237.944432761 445.206259081 279.97897937 440.096781911 321.125305651 409.763351701 c 1
 321.125305651 410.971903672 318.69789819 503.414919506 318.69789819 538.503794627 c 0
 318.69789819 693.937509575 338.469050841 728.991175974 374.021413598 728.991175974 c 0
 398.863343584 728.991175974 418.991175974 708.863104755 418.991175974 689.220088409 c 0
 418.991175974 675.164131132 408.684906156 619.946895484 408.684906156 529.743530708 c 0
 408.684906156 528.249649034 411.401107825 386.760721417 411.401107825 380.380058529 c 0
 411.401107825 339.481500256 409.853943388 277.896282711 393.987782791 216.130295448 c 1
 407.591644603 194.7464265 391.800715976 141.794673025 439.385830389 97.8145826602 c 0
 454.076423696 84.2369412247 458.991175974 72.1948824152 458.991175974 59.9390402311 c 0
 458.991175974 35.1366564157 438.863104755 15.0088240257 413.388107817 15.0088240257 c 0
 395.155725297 15.0088240257 384.845798681 25.3187506411 384.845570978 25.3189783443 c 0
 361.355147571 48.8094017517 346.455943748 68.616043716 334.803537526 91.8309651502 c 1
 313.977341287 65.7342613201 259.984490765 9.71152837366 180.256691126 9.71152837366 c 0
 92.4975144795 9.71152837366 15.2524766002 78.8930159007 15.2524766002 194.338855799 c 0
  Spiro
    321.125 409.763 v
    320.497 435.543 o
    319.326 487.514 o
    318.698 530.609 o
    319.226 566.871 o
    322.147 621.949 o
    329.437 690.217 o
    337.325 710.087 o
    353.116 723.866 o
    374 728.991 o
    396.695 722.864 o
    412.864 706.695 o
    418.991 684 o
    416.324 660.207 o
    411.352 608.14 o
    408.685 530.9 o
    408.878 506.952 o
    409.367 482.642 o
    410.008 458.127 o
    410.668 433.293 o
    411.19 408.111 o
    411.401 382.745 o
    410.415 334.1 o
    405.546 277.105 o
    393.988 216.13 v
    397.754 208.801 o
    400.144 200.739 o
    400.991 192.147 o
    402.68 171.6 o
    414.054 134.582 o
    444.524 93.0661 o
    452.514 83.2899 o
    457.366 72.0189 o
    458.991 60 o
    452.864 37.3052 o
    436.695 21.1363 o
    414 15.0088 o
    397.793 17.9632 o
    385.912 24.9486 o
    377.101 33.0637 o
    361.741 50.1205 o
    347.436 69.7972 o
    334.804 91.831 v
    328.697 84.4578 o
    322.256 77.2404 o
    315.51 70.233 o
    284.743 44.4529 o
    238.776 20.3249 o
    179.41 9.71153 o
    98.2959 31.9672 o
    38.454 95.9482 o
    15.2525 196.708 o
    19.0015 243.434 o
    39.0677 316.115 o
    88.4465 391.044 o
    118.308 415.649 o
    160.371 436.474 o
    214.277 445.206 o
    243.32 442.764 o
    280.436 432.418 o
    0 0 z
  EndSpiro
EndSplineSet
Validated: 1
EndChar
StartChar: i
Encoding: 105 105 25
Width: 500
Flags: W
HStem: 295 86<64.5093 129.923> 304 83<130.99 218.203>
VStem: 209 90<63.4395 156.974 157 281.795> 221 89<163.949 287>
LayerCount: 2
Back
Fore
SplineSet
309 642 m 0x00
 309 617 287 599 262 599 c 0
 255 599 240 601 228 615 c 2
 196 653 l 2
 189 661 185 674.047373864 185 684.047373864 c 0
 185 709.047373864 205 727 230 727 c 0
 237 727 252 725 264 711 c 2
 296 673 l 2
 303 665 309 652 309 642 c 0x00
209 161 m 0x60
 209 224 221 281 221 287 c 0
 221 287 219 304 185 304 c 0x50
 162 304 136 295 112 295 c 0
 70 295 57 322 57 341 c 0
 57 365 60 381 85 381 c 0x90
 86 381 129 388 130 388 c 0
 151 388 179 387 214 387 c 0
 305 387 310 321 310 283 c 0x50
 310 257 299 250 299 187 c 0
 299 179 298 158 298 157 c 0
 298 157 299 121 299 116 c 0
 299 38 333 88 357 18 c 0
 357.949995019 15.1500149432 358.392339111 12.3423341303 358.392339111 9.60709917697 c 0
 358.392339111 -10.6913441423 334.031265566 -27 312 -27 c 0
 301 -27 291 -23 243 19 c 1
 212 59 209 128 209 161 c 0x60
EndSplineSet
Validated: 1
EndChar
StartChar: m
Encoding: 109 109 20
Width: 500
InSpiro: 1
Flags: W
HStem: 307.263 89.9912<296.238 375.821> 328.485 90<139.052 195.212>
VStem: 46.5088 90.0303<76.9402 323.444> 197.898 89.9912<52.2427 268.94> 207.035 90.0742<157.332 300.456> 352.237 89.9854<78.0688 245.723> 377.112 89.9844<179.726 304.899>
LayerCount: 2
Back
Fore
SplineSet
120.07279826 10.0087890625 m 0x68
 75.7345821913 10.0087890625 46.5087890625 86.3230788185 46.5087890625 173.120052987 c 0
 46.5087890625 213.484375 52.900390625 246.232421875 52.900390625 275.387100104 c 0
 52.900390625 364.292035545 0.0087890625 353.102541016 0.0087890625 396.712461081 c 0
 0.0087890625 421.86328125 20.13671875 441.991210938 46.1211661897 441.991210938 c 0
 52.5321902792 441.991210938 70.2198692242 441.991210938 100.286132812 405.748046875 c 1
 117.166992188 412.989257812 137.829101562 418.485351562 161.035138973 418.485351562 c 0x68
 196.633789062 418.485351562 232.083984375 405.551757812 257.94140625 378.802734375 c 1
 280.086914062 388.870117188 307.875976562 397.25390625 338.662932219 397.25390625 c 0
 414.876953125 397.25390625 467.096679688 345.875976562 467.096679688 276.451076766 c 0xaa
 467.096679688 228.536132812 442.22265625 184.76171875 442.22265625 144.527728462 c 0
 442.22265625 99.7699840119 465.991210938 90.896652014 465.991210938 64.9473846368 c 0
 465.991210938 40.13671875 445.86328125 20.0087890625 421.704008793 20.0087890625 c 0
 379.624037609 20.0087890625 352.237304688 85.1850276356 352.237304688 144.542945697 c 0xa4
 352.237304688 201.225585938 377.112304688 247.1015625 377.112304688 275.758065963 c 0
 377.112304688 301.90625 356.401367188 307.262695312 339.55676983 307.262695312 c 0
 326.072265625 307.262695312 310.741210938 303.830078125 295.421875 296.989257812 c 1
 296.528320312 288.624023438 297.109375 279.810546875 297.109375 270.694678406 c 0xaa
 297.109375 234.3828125 287.889648438 192.815429688 287.889648438 155.206636755 c 0
 287.889648438 96.066143379 306.991210938 77.5797771675 306.991210938 57.9611331663 c 0
 306.991210938 33.13671875 286.86328125 13.0087890625 263.407074611 13.0087890625 c 0
 206.615913669 13.0087890625 197.8984375 117.669608888 197.8984375 155.607346453 c 0xb0
 197.8984375 200.145507812 207.03515625 240.202148438 207.03515625 270.310231384 c 0
 207.03515625 289.287323175 195.993232457 292.352776025 195.051757812 314.010742188 c 1
 188.212890625 322.560546875 177.665039062 328.485351562 162.191968615 328.485351562 c 0
 157.533203125 328.485351562 148.881835938 327.948242188 138.563476562 324.114257812 c 1
 141.427734375 309.844726562 143.015625 294.26953125 143.015625 276.690280005 c 0
 143.015625 241.1875 136.5390625 209.8671875 136.5390625 167.131024981 c 0
 136.5390625 98.5737301725 163.991210938 79.0229043602 163.991210938 54.9552343903 c 0
 163.991210938 30.13671875 143.86328125 10.0087890625 120.07279826 10.0087890625 c 0x68
  Spiro
    46.5091 171.883 o
    48.1634 210.798 o
    51.2466 245.724 o
    52.9008 278.258 o
    50.2146 306.349 o
    39.6762 335.664 o
    17.6903 361.229 o
    10.8863 367.7 o
    3.47285 379.597 o
    0.00882403 397 o
    6.13637 419.695 o
    22.3054 435.864 o
    45 441.991 o
    58.1295 440.092 o
    72.0369 432.888 o
    88.9336 418.2 o
    92.7904 414.225 o
    96.5851 410.067 o
    100.286 405.748 v
    118.385 412.263 o
    138.928 416.795 o
    161.656 418.485 o
    196.384 414.15 o
    229.29 400.961 o
    257.941 378.803 v
    281.857 388.052 o
    309.104 394.712 o
    339.009 397.254 o
    405.879 381.383 o
    450.78 338.492 o
    467.096 276.182 o
    460.659 229.879 o
    448.66 186.069 o
    442.222 145.058 o
    444.086 125.447 o
    449.539 106.797 o
    458.314 90.1655 o
    462.576 82.2366 o
    465.14 73.7409 o
    465.991 65 o
    459.864 42.3052 o
    443.695 26.1363 o
    421 20.0088 o
    411.48 21.0719 o
    397.545 26.555 o
    383.686 39.8345 o
    366.106 72.867 o
    355.663 108.393 o
    352.238 144.912 o
    358.676 197.458 o
    370.675 241.743 o
    377.113 276.063 o
    371.118 295.624 o
    356.667 304.922 o
    339.233 307.263 o
    325.444 306.122 o
    310.649 302.688 o
    295.421 296.989 v
    296.35 288.483 o
    296.918 279.651 o
    297.109 270.545 o
    294.723 232.948 o
    290.276 193.597 o
    287.89 154.693 o
    288.839 134.545 o
    293.256 107.138 o
    303.438 75.566 o
    305.41 69.8586 o
    306.597 63.9631 o
    306.991 58 o
    300.864 35.3052 o
    284.695 19.1363 o
    262 13.0088 o
    252.206 14.2179 o
    235.498 21.5403 o
    220.562 40.434 o
    209.403 72.0196 o
    201.121 110.463 o
    197.898 155.247 o
    200.263 198.321 o
    204.67 237.265 o
    207.035 270.83 o
    206.929 275.851 o
    206.569 281.165 o
    205.901 286.636 o
    200.355 294.697 o
    196.644 303.928 o
    195.052 314.011 v
    186.918 321.557 o
    175.87 326.636 o
    161.565 328.485 o
    156.11 328.205 o
    148.208 326.95 o
    138.563 324.114 v
    140.989 309.42 o
    142.499 293.784 o
    143.015 277.273 o
    141.339 242.38 o
    138.215 207.979 o
    136.539 171.695 o
    137.449 149.329 o
    143.313 115.756 o
    158.767 76.0795 o
    161.667 69.3133 o
    163.412 62.222 o
    163.991 55 o
    157.864 32.3052 o
    141.695 16.1363 o
    119 10.0088 o
    109.263 11.16 o
    93.8172 17.6417 o
    79.2326 33.9205 o
    60.8867 77.0556 o
    50.0475 123.034 o
    0 0 z
  EndSpiro
EndSplineSet
Validated: 1
EndChar
StartChar: o
Encoding: 111 111 82
Width: 500
InSpiro: 1
Flags: W
HStem: -1.97893 83.673<124.502 262.58> 357.52 90.4612<181.063 303.647>
VStem: 6.93261 85.1512<114.372 254.375> 350.444 90.6479<164.405 310.565>
LayerCount: 2
Back
Fore
SplineSet
92.8405917951 416.054890158 m 0
 103.403477854 425.949427426 164.314593938 447.981252623 226.951708247 447.981252623 c 0
 248.558463439 447.981252623 270.370597596 445.359654626 290.3923507 438.713944854 c 0
 303.063324372 434.508138643 385.392644126 403.956976841 419.20352268 334.761971253 c 0
 428.570251383 315.592672122 441.091833504 267.746527715 441.091833504 214.285588798 c 0
 441.091833504 148.88437344 422.352347257 75.0801972184 356.172506701 35.0957244993 c 0
 331.441323798 20.1536620857 274.203052752 -1.97893231112 211.512129975 -1.97893231112 c 0
 160.880531002 -1.97893231112 106.692277192 12.4577129792 63.1998154697 56.7786106025 c 0
 50.9965915743 69.2142791191 6.93261005061 118.897793496 6.93261005061 187.924864596 c 0
 6.93261005061 200.963599077 8.50483877742 214.692523017 12.1610149389 228.990964816 c 0
 21.7886892272 266.642526008 26.5275586224 257.904701674 48.0121612255 335.027775711 c 0
 57.5500610909 369.265884326 58.3115225563 370.3119352 83.8218264538 405.356486885 c 0
 85.498046875 407.659179688 88.880859375 412.345703125 92.8405917951 416.054890158 c 0
  Spiro
    192.969 446.132 o
    289.689 438.947 o
    343.357 413.159 o
    419.202 334.765 o
    439.265 247.912 o
    434.059 150.66 o
    405.612 80.895 o
    296.123 10.336 o
    170.632 1.31837 o
    63.6484 56.3217 o
    16.1553 133.312 o
    11.8741 227.868 o
    50.6077 344.345 o
    67.9954 383.863 o
    82.1229 403.022 o
    92.9902 416.195 o
    112.551 426.972 o
    148.413 436.553 o
    0 0 z
  EndSpiro
293.015241766 343.350161439 m 0
 277.230918836 352.565997519 260.494335264 357.520081314 243.287848262 357.520081314 c 0
 207.112864724 357.520081314 168.860860226 335.622527068 133.014302471 285.393693608 c 0
 104.343832634 245.220122004 92.0837831913 207.76169036 92.0837831913 176.20253849 c 0
 92.0837831913 119.389103121 131.816080499 81.6940195204 187.066811195 81.6940195204 c 0
 208.464020882 81.6940195204 232.188711383 87.3475917389 256.834441928 99.7337491379 c 0
 319.853166581 131.404948383 350.443927995 187.771235548 350.443927995 240.157695117 c 0
 350.443927995 281.933255122 330.990472735 321.177939971 293.015241766 343.350161439 c 0
  Spiro
    313.597 331.334 o
    247.913 354.258 o
    189.662 341.805 o
    139.192 294.05 o
    96.5099 164.49 o
    160.792 95.834 o
    300.556 121.707 o
    349.269 183.074 o
    354.55 267.964 o
    0 0 z
  EndSpiro
EndSplineSet
Validated: 1
EndChar
StartChar: s
Encoding: 115 115 24
Width: 500
InSpiro: 1
Flags: W
HStem: 13.0571 81.8413<139.159 286.057> 354.907 67.9489<279.287 383.449> 356.887 82.7268<169.288 348.744>
VStem: 55.0117 96.5228<280.777 343.692>
LayerCount: 2
Back
Fore
SplineSet
209.344010145 425.758993409 m 0xb0
 237.58203125 431.032226562 275.905273438 438.676757812 277.931798912 439.480782856 c 0
 278.157465205 439.570316076 278.502118628 439.613311909 278.955309967 439.613311909 c 0xb0
 285.658105292 439.613311909 316.10360527 430.207959305 336.484801337 422.855467293 c 0
 382.372537338 406.301521622 403.641879178 390.631909804 403.641879178 378.52087879 c 0
 403.641879178 364.239641364 374.066964698 354.906592919 320.408447506 354.906592919 c 0xd0
 310.476096302 354.906592919 299.718565929 355.226372199 288.170683408 355.893740433 c 0
 276.635338013 356.560384129 265.77848957 356.886557024 255.620192583 356.886557024 c 0
 188.185353231 356.886557024 151.534527667 342.512653972 151.534527667 317.947605562 c 0
 151.534527667 301.113378847 168.746667135 279.493136741 205.059062615 254.433016515 c 0
 240.154296875 230.212890625 305.818359375 193.99609375 343.463854294 178.642403727 c 0
 390.21693966 159.574189008 413.151903223 135.665342211 413.151903223 108.041747504 c 0
 413.151903223 90.3535582478 403.748080781 71.142243408 385.172307774 50.7034021892 c 0
 359.653571344 22.6252488987 335.753888062 13.0571497102 293.48271628 13.0571497102 c 0
 281.59579178 13.0571497102 268.256104246 13.8137667253 253.019124562 15.1281587531 c 0
 163.010742188 22.892578125 90.228515625 42.923828125 47.862861045 77.5977985251 c 0
 42.2349720422 82.2039177657 38.9215598402 85.6135278128 38.9215598402 88.126830356 c 0
 38.9215598402 93.7799970474 55.6852455013 94.8984375 100.580470282 94.8984375 c 0
 228.583007812 94.8984375 286.439453125 103.990234375 286.439453125 118.241577817 c 0
 286.439453125 126.190429688 268.440429688 135.713867188 246.722489345 135.713867188 c 0
 227.296875 135.713867188 209.297851562 143.333007812 209.297851562 150.934045927 c 0
 209.297851562 161.29296875 175.868164062 183.84375 132.509039652 203.917523284 c 0
 70.8935546875 232.443359375 55.01171875 254.08203125 55.01171875 317.76670248 c 0
 55.01171875 385.563476562 73.0107421875 400.299804688 209.344010145 425.758993409 c 0xb0
  Spiro
    193.869 422.869 o
    234.633 430.63 o
    265.209 436.729 o
    278.726 439.796 o
    290.603 437.452 o
    316.705 429.448 o
    350.726 417.718 o
    405.467 384.722 o
    383.761 360.868 o
    294.154 355.548 o
    184.238 348.128 o
    151.327 313.033 o
    201.583 256.832 o
    247.077 228.178 o
    298.436 199.851 o
    343.012 178.826 o
    398.607 143.124 o
    411.236 98.7327 o
    380.824 45.918 o
    349.602 22.8407 o
    303.028 14.1734 o
    227.297 17.3467 o
    162.424 27.107 o
    104.805 42.9652 o
    67.8691 61.2246 o
    46.9936 83.8687 o
    71.4114 93.1371 o
    156.583 94.8984 o
    222.192 97.6694 o
    268.807 104.995 o
    286.439 115.306 o
    281.021 125.425 o
    266.994 132.847 o
    247.868 135.714 o
    228.743 138.007 o
    214.716 143.945 o
    209.298 152.041 o
    199.032 165.131 o
    171.549 183.671 o
    132.154 204.082 o
    84.9617 231.662 o
    61.3843 263.785 o
    55.0117 309.184 o
    64.133 367.546 o
    104.216 400.363 o
    0 0 z
  EndSpiro
EndSplineSet
Validated: 1
EndChar
StartChar: u
Encoding: 117 117 19
Width: 500
InSpiro: 1
Flags: W
HStem: 19.4004 90.1992<179.211 261.86>
VStem: 18.4004 90.5<210.715 449.133> 347 104<204.357 446.087> 353.9 88.6992<21.6222 86.9984 390.222 467.645>
LayerCount: 2
Back
Fore
SplineSet
388.799804688 474.700195312 m 0xe0
 394.5 476.700195312 396.900390625 477 405.200195312 476.700195312 c 0
 413.700195312 476.400390625 415.599609375 475.900390625 422.400390625 472.700195312 c 0
 433.599609375 467.400390625 442 458 446.099609375 446.400390625 c 0
 448.299804688 440.099609375 451 408.799804688 451 389.299804688 c 0xe0
 451 381.700195312 450.5 367.900390625 450 358.5 c 0
 449.400390625 349.200195312 449 335.400390625 448.900390625 328 c 0
 448.799804688 320.599609375 448.400390625 310.700195312 447.799804688 306 c 0
 446.700195312 295.799804688 439.700195312 266.700195312 436.5 258.799804688 c 0
 429.900390625 242.5 429.400390625 233.400390625 432.400390625 186 c 0
 436.5 121.599609375 437.400390625 114.200195312 442.599609375 103.5 c 0
 444.400390625 99.599609375 447.5 90.099609375 449.400390625 82.2998046875 c 0
 451.299804688 74.5 453.900390625 65 455.099609375 61 c 0
 456.799804688 55.2001953125 457.200195312 52.099609375 456.799804688 44.099609375 c 0
 456.5 35.2001953125 456.099609375 33.599609375 452.799804688 26.7998046875 c 0
 446.200195312 13.5 433.700195312 4.400390625 419 2.099609375 c 0
 409.900390625 0.599609375 401.299804688 2.099609375 392 6.7998046875 c 0
 385.700195312 9.900390625 383.599609375 11.7001953125 378.400390625 18.099609375 c 0
 371.400390625 26.900390625 369.299804688 31.599609375 364.400390625 51.2998046875 c 0
 362.400390625 58.900390625 359.599609375 67.900390625 358 71.2001953125 c 0
 356.400390625 74.5 354.599609375 79.400390625 353.900390625 82.099609375 c 0xd0
 353.200195312 84.7998046875 352.200195312 87 351.700195312 87 c 0
 351.099609375 87 347.299804688 84 343.099609375 80.2001953125 c 0
 327.400390625 66.2998046875 315.299804688 57.599609375 299.5 49.099609375 c 0
 295.099609375 46.7001953125 289.5 43.2998046875 287 41.5 c 0
 270.200195312 29.2998046875 242 20.400390625 217 19.400390625 c 0
 160.099609375 16.900390625 117.900390625 48 74.599609375 124 c 0
 63.7001953125 143.200195312 44.599609375 181.299804688 39.900390625 193.299804688 c 0
 29.2998046875 220.599609375 22.900390625 253.400390625 18.400390625 303.5 c 0
 16.7001953125 323.099609375 16.7001953125 325.200195312 18.900390625 394 c 0
 19.599609375 416 20.099609375 421.099609375 22.400390625 431.299804688 c 0
 23.900390625 437.900390625 26.400390625 445.799804688 28.099609375 449.299804688 c 0
 34.2998046875 461.599609375 47.599609375 471 61.400390625 472.900390625 c 0
 90.2001953125 477 115.099609375 453.299804688 112.599609375 424.400390625 c 0
 112.200195312 420.5 111.400390625 415.799804688 110.799804688 413.900390625 c 0
 110.200195312 412 109.400390625 400.599609375 108.900390625 388.5 c 0
 106.599609375 322.099609375 106.599609375 325.799804688 108.900390625 302.5 c 0
 112.400390625 267.799804688 116.599609375 245.299804688 123 227.900390625 c 0
 124.599609375 223.5 131.099609375 209.700195312 137.5 197.200195312 c 0
 157.099609375 158.900390625 171.200195312 136.900390625 185.5 122.400390625 c 0
 196.599609375 111.099609375 200 109.5 212 109.599609375 c 0
 223.200195312 109.599609375 230.299804688 111.799804688 238.900390625 117.900390625 c 0
 242 120 248.599609375 123.900390625 253.5 126.599609375 c 0
 258.5 129.200195312 265.200195312 133.200195312 268.5 135.400390625 c 0
 276 140.400390625 291.299804688 155.099609375 299.299804688 165 c 0
 310.099609375 178.400390625 328.799804688 208.200195312 333 218.900390625 c 0
 336 226.5 339.700195312 242.099609375 342.099609375 257.099609375 c 0
 344.099609375 269.599609375 344.200195312 271.700195312 343.099609375 288.5 c 0
 342 306.400390625 342.400390625 316.5 345 333.5 c 0
 345.599609375 337.400390625 346.5 354.900390625 347 372.5 c 0
 348.200195312 414.400390625 350.299804688 427.599609375 358.400390625 445.400390625 c 0
 365.299804688 460.400390625 375.200195312 470 388.799804688 474.700195312 c 0xe0
EndSplineSet
EndChar
StartChar: v
Encoding: 118 118 86
Width: 500
InSpiro: 1
Flags: W
HStem: 430.568 20G<55.5859 79.4169>
LayerCount: 2
Back
Fore
SplineSet
27.503043041 427.479650809 m 0
 32.3037109375 438.430664062 48.267578125 450.568359375 62.9042024684 450.568359375 c 0
 95.9296875 450.568359375 126.693359375 388.7734375 159.212553892 267.031834224 c 0
 180.504438717 187.321735809 198.504388635 142.821026352 209.922928182 142.821026352 c 0
 212.680011514 142.821026352 215.05338969 145.415478111 216.996755921 150.735177922 c 0
 228.405469714 181.964974771 291.986427443 296.977423714 308.884047536 344.038690713 c 0
 326.586422554 393.341266615 386.80541773 431.214965343 410.26048876 431.214965343 c 0
 413.336772488 431.214965343 415.780642715 430.563461485 417.413230254 429.200790156 c 0
 420.286774091 426.802330224 421.608503864 421.398136766 421.608503864 413.55451825 c 0
 421.608503864 344.471324945 319.077654495 86.1540473939 271.216771071 25.5224187031 c 0
 255.756835488 5.93730019286 237.253182821 -4.10338553535 217.833022921 -4.10338553535 c 0
 176.940338757 -4.10338553535 131.983955614 40.415984223 102.824309853 134.087929084 c 0
 95.83203125 156.549804688 67.7841796875 240.905273438 56.500487862 272.9816158 c 0
 35.3729910586 333.041109731 24.4788919143 380.22278476 24.4788919143 407.884399987 c 0
 24.4788919143 416.273121733 25.4807998801 422.866623595 27.503043041 427.479650809 c 0
  Spiro
    25.5317 422.981 o
    34.9263 436.987 o
    47.9055 446.857 o
    61.8129 450.568 o
    95.2266 429.115 o
    129.192 360.888 o
    166.192 240.905 o
    185.646 178.792 o
    202.732 143.043 o
    213.656 141.591 o
    224.482 167.308 o
    241.237 202.689 o
    260.687 240.905 o
    280.849 281.178 o
    299.507 322.063 o
    313.059 355.669 o
    344.409 396.573 o
    391.051 422.359 o
    428.829 419.67 o
    407.674 326.877 o
    342.307 158.098 o
    280.958 37.8637 o
    219.048 -1.43294 o
    157.796 23.2937 o
    111.48 106.28 o
    92.4995 165.503 o
    69.8616 233.589 o
    48.375 296.08 o
    32.3455 350.045 o
    24.1507 395.568 o
    0 0 z
  EndSpiro
EndSplineSet
Validated: 1
EndChar
StartChar: w
Encoding: 119 119 87
Width: 500
InSpiro: 1
Flags: W
HStem: 0.00878906 334.982<161.315 249.994>
VStem: 203.217 109.125<191.614 295.483> 369.253 89.9863<161.256 391.353>
LayerCount: 2
Back
Fore
SplineSet
346.896426162 -9.9912109375 m 0
 314.185469581 -9.9912109375 282.129097495 38.3700641164 251.16796875 121.762695312 c 1
 236.171875 86.3564453125 218.146484375 52.5224609375 207.245539079 35.4021592634 c 0
 189.9296875 8.20703125 175.833984375 0.0087890625 161.314768859 0.0087890625 c 0
 105.770511567 0.0087890625 56.7749653649 186.538737014 14.0293193816 396.895111081 c 0
 7.310546875 429.958984375 7.0087890625 432.979492188 7.0087890625 436.021201203 c 0
 7.0087890625 460.86328125 27.13671875 480.991210938 51.975858345 480.991210938 c 0
 73.5751953125 480.991210938 91.8671875 465.771484375 109.661333445 378.203248913 c 0
 115.854492188 347.725585938 137.822265625 248.681640625 167.702148438 155.705078125 c 1
 186.83984375 200.666015625 200.100585938 247.8828125 203.217290243 276.204996019 c 0
 207.78125 317.678710938 226.978515625 334.991210938 249.994156065 334.991210938 c 0
 270.848632812 334.991210938 288.639648438 320.77734375 312.342716001 226.928423342 c 0
 312.475585938 226.40234375 322.877929688 185.21484375 341.2421875 139.323242188 c 1
 358.9453125 191.25390625 369.252929688 244.67578125 369.252929688 287.070580683 c 0
 369.252929688 310.854492188 366.008789062 358.389648438 366.008789062 365.686880671 c 0
 366.008789062 383.86328125 386.13671875 403.991210938 410.986904658 403.991210938 c 0
 453.416763347 403.991210938 459.239257812 335.482755214 459.239257812 297.877929688 c 0
 459.239257812 197.090820312 429.348632812 100.87109375 393.635799529 29.598505376 c 0
 384.23828125 10.84375 372.530273438 -9.9912109375 346.896426162 -9.9912109375 c 0
  Spiro
    366.009 359 o
    372.136 381.695 o
    388.305 397.864 o
    411 403.991 o
    432.836 398.352 o
    448.862 383.331 o
    455.895 361.95 o
    458.247 325.421 o
    459.115 308.774 o
    459.239 297.878 o
    449.911 198.918 o
    424.291 103.963 o
    386.235 14.8277 o
    380.821 6.63343 o
    367.762 -4.45173 o
    346 -9.99118 o
    336.553 -8.95093 o
    322.958 -3.69027 o
    309.307 8.9393 o
    286.218 45.3121 o
    267.02 83.1617 o
    251.168 121.763 v
    235.212 86.9367 o
    217.381 53.1882 o
    197.98 20.8499 o
    188.086 9.83687 o
    175.081 2.5975 o
    160 0.00882403 o
    150.208 1.22438 o
    133.333 8.65712 o
    118.368 27.8999 o
    72.4834 158.615 o
    36.8262 293.293 o
    7.91447 426.988 o
    7.41174 429.97 o
    7.10925 432.984 o
    7.00882 436 o
    13.1364 458.695 o
    29.3054 474.864 o
    52 480.991 o
    72.0629 476.285 o
    87.588 463.55 o
    96.0855 445.012 o
    116.777 347.527 o
    140.273 250.318 o
    167.702 155.705 v
    184.784 201.283 o
    197.499 247.971 o
    205.281 294.956 o
    212.858 315.417 o
    228.749 329.671 o
    250 334.991 o
    269.45 330.585 o
    284.742 318.609 o
    293.616 301.074 o
    310.25 236.206 o
    324.939 185.014 o
    341.242 139.323 v
    356.36 191.641 o
    365.932 244.772 o
    369.253 298.058 o
    368.414 319.383 o
    366.849 345.796 o
    0 0 z
  EndSpiro
EndSplineSet
Validated: 1
EndChar
StartChar: uni0401
Encoding: 1025 1025 114
Width: 500
InSpiro: 1
Flags: W
HStem: 7.7002 89.7998<113.686 403.788> 289 90<138.3 382.476> 298.3 87.7998<138.373 394.753> 515.5 90.0996<122.846 387.692> 528.9 84.5<122.846 242.977 245.736 400.41> 660.5 92.0996<259.955 342.394>
VStem: 99.9004 87.0996<667.871 736.565>
LayerCount: 2
Back
Fore
SplineSet
135.5 757.799804688 m 0x86
 142.5 759.200195312 145.700195312 759.200195312 152.599609375 757.900390625 c 0
 166.299804688 755.400390625 178.299804688 746.200195312 184.700195312 733.200195312 c 0
 188.400390625 725.700195312 188.5 725.400390625 188.799804688 712 c 0
 189.099609375 700.200195312 188.900390625 697.700195312 187 692 c 0
 184.299804688 684 179.200195312 676.200195312 173.700195312 671.700195312 c 0
 145.799804688 648.900390625 105.299804688 664.5 99.900390625 700 c 0
 97.900390625 713.200195312 100.299804688 727.799804688 105.799804688 737 c 0
 111.900390625 746.900390625 124.400390625 755.700195312 135.5 757.799804688 c 0x86
282.5 752.599609375 m 0
 284.700195312 753.299804688 290.5 753.900390625 295.299804688 753.900390625 c 0
 303.200195312 754 305.200195312 753.599609375 314.700195312 750 c 0
 327.900390625 745 332.400390625 742.400390625 338.099609375 736.299804688 c 0
 352.5 721 354.900390625 701.799804688 344.900390625 683.099609375 c 0
 337 668.200195312 318.5 658.599609375 301.5 660.5 c 0
 295.200195312 661.200195312 281 666.200195312 272.799804688 670.700195312 c 0
 266.5 674.099609375 257.900390625 683.400390625 254.700195312 690.200195312 c 0
 253.299804688 693.099609375 251.599609375 698.400390625 251 702 c 0
 247 723.799804688 260.700195312 745.700195312 282.5 752.599609375 c 0
57 636.400390625 m 0
 71.599609375 640.299804688 87.2998046875 636.700195312 98.599609375 626.799804688 c 0
 101.700195312 624.099609375 103.900390625 623.400390625 119.299804688 620.299804688 c 0
 144 615.5 180.200195312 609.400390625 197 607.299804688 c 0
 208.299804688 605.900390625 218.5 605.5 243.5 605.599609375 c 0xd6
 278.400390625 605.599609375 272.200195312 604.900390625 316.099609375 613.400390625 c 0
 339.099609375 617.799804688 359.599609375 619.599609375 368.900390625 618 c 0
 399.799804688 612.799804688 416.200195312 579.299804688 401.299804688 551.799804688 c 0
 397.599609375 545 388.299804688 536.5 380.599609375 532.900390625 c 0
 375.200195312 530.400390625 372.200195312 529.799804688 361.900390625 528.900390625 c 0x8e
 348.400390625 527.900390625 339.700195312 526.5 317.5 522 c 0
 288.900390625 516.200195312 281.5 515.599609375 244 515.5 c 0
 222.099609375 515.5 205.099609375 516 197.5 516.799804688 c 0
 179.200195312 518.799804688 151.400390625 522.799804688 136.299804688 525.599609375 c 0
 128.900390625 527 122.599609375 527.900390625 122.400390625 527.700195312 c 0
 122.200195312 527.5 123.299804688 514.599609375 125 498.900390625 c 0
 128.099609375 468.700195312 132.5 417.5 133.5 400 c 0
 133.799804688 394.200195312 134.299804688 387.099609375 134.599609375 384.299804688 c 2
 135.099609375 379 l 1
 140.299804688 379 l 2xd6
 147.799804688 379 168.700195312 381.400390625 206.900390625 386.5 c 0
 277 395.799804688 295.299804688 396.299804688 336.5 390.099609375 c 0
 347.5 388.400390625 361.5 386.599609375 367.599609375 386.099609375 c 0
 380.400390625 385 387.700195312 382.599609375 395.099609375 377 c 0
 407.200195312 367.900390625 413.200195312 355.700195312 413.200195312 340.400390625 c 0
 413.099609375 321.400390625 401 304.700195312 382.799804688 298.299804688 c 0
 376.099609375 296 356.5 296 341 298.299804688 c 0xa6
 335.200195312 299.200195312 324.200195312 300.900390625 316.5 302 c 0
 291.799804688 305.700195312 276.700195312 305 216.5 297 c 0
 179.200195312 292 151.599609375 289 143 289 c 2
 138.299804688 289 l 1xc6
 137.700195312 255.700195312 l 2
 136.299804688 187.099609375 135.400390625 179.400390625 122.099609375 123 c 0
 115.799804688 96.2998046875 112.400390625 78.2998046875 113.400390625 77.2998046875 c 0
 114.299804688 76.400390625 139.200195312 79.7998046875 159.200195312 83.599609375 c 0
 231.799804688 97.2998046875 233.200195312 97.5 277.5 97.5 c 0
 313.299804688 97.5 322.200195312 96.900390625 346.299804688 92.900390625 c 0
 368.400390625 89.2001953125 393.599609375 82.2998046875 404.299804688 76.900390625 c 0
 416.5 70.7001953125 425.700195312 57.7998046875 428 43.7001953125 c 0
 431.700195312 20.5 415.700195312 -2.2001953125 392.200195312 -7.099609375 c 0
 384.099609375 -8.7001953125 376.099609375 -7.7998046875 363.299804688 -3.7001953125 c 0
 339 4.2001953125 320.599609375 6.900390625 286.5 7.7001953125 c 0
 250 8.5 241.200195312 7.599609375 181 -3.900390625 c 0
 144.700195312 -10.7001953125 133.700195312 -12.099609375 110.5 -12.7001953125 c 0
 88 -13.2998046875 77.2998046875 -12 66.099609375 -7.5 c 0
 39.599609375 3.2998046875 24.2001953125 27.400390625 22.2998046875 61 c 0
 21.2998046875 79.900390625 24.2001953125 99.7001953125 35 146 c 0
 38.7998046875 162.200195312 42.599609375 179.299804688 43.5 184 c 0
 48.400390625 210.5 49.2001953125 304 44.900390625 374.5 c 0
 41.7998046875 427.099609375 37.2001953125 476.599609375 27.900390625 557.5 c 0
 27.400390625 562.5 26.2998046875 569.5 25.5 573.200195312 c 0
 23.599609375 581.900390625 23.599609375 597 25.5 604.5 c 0
 29.400390625 619.400390625 42.2001953125 632.400390625 57 636.400390625 c 0
EndSplineSet
EndChar
StartChar: uni0410
Encoding: 1040 1040 118
Width: 500
InSpiro: 1
Flags: W
HStem: 232.551 86.7194<176.73 281.746> 661.428 20G<205.15 238.573>
VStem: 7.02765 96.3864<11.9403 178.019>
LayerCount: 2
Back
Fore
SplineSet
251.255645541 518.423723973 m 0
 249.162369038 529.613085522 240.972910304 536.845762894 232.026694436 536.845762894 c 0
 221.930499108 536.845762894 210.870489702 527.634146697 206.521157749 504.502245939 c 0
 204.859375 495.6640625 204.146484375 486.46875 203.041736898 477.858046561 c 0
 195.251626933 417.139802765 161.862983942 369.514885828 161.862983942 339.243557495 c 0
 161.862983942 328.832468471 165.812356747 320.474047205 176.110773062 314.34160637 c 0
 181.746465764 310.985696975 186.339187761 309.751931076 190.739831866 309.751931076 c 0
 202.962933046 309.751931076 213.704172434 319.270312007 241.197062348 319.270312007 c 0
 245.108979033 319.270312007 249.360048991 319.077603232 254.002798658 318.637345275 c 0
 255.569252488 318.488803179 257.046455062 318.418057843 258.439648801 318.418057843 c 0
 277.981760867 318.418057843 280.99493536 332.337370425 281.947278589 340.715374862 c 0
 282.007087921 341.241532696 283.490853753 368.961972974 283.490853753 392.075576071 c 0
 283.490853753 402.599980092 283.183226302 412.169253896 282.293471296 417.78125022 c 0
 276.547455856 454.023381262 254.546948203 468.039990241 252.43810449 497.4628586 c 0
 251.935546875 504.474609375 252.530273438 511.610351562 251.255645541 518.423723973 c 0
  Spiro
    217.48 529.64 o
    189.88 423.84 o
    162.28 344.72 o
    176.08 314.36 o
    221.16 317.12 o
    250.6 318.96 o
    274.52 323.56 o
    281.88 340.12 o
    282.8 370.48 o
    264.4 463.4 o
    252.44 497.44 o
    239.56 535.16 o
    0 0 z
  EndSpiro
154.082414151 602.276469275 m 0
 168.614596345 662.430862687 192.783607291 681.428085467 217.516022147 681.428085467 c 0
 259.62996091 681.428085467 303.377472629 626.346200618 303.961523142 625.589844158 c 0
 338.253100877 581.181602488 341.616766707 541.030169331 347.963508125 465.270335655 c 0
 348.167849159 462.831155967 370.511279463 261.232615247 379.015080385 222.47550885 c 0
 384.131835938 199.155273438 391.922851562 177.416992188 402.483090928 156.878879597 c 0
 410.782226562 140.73828125 420.799804688 125.323242188 428.991454204 109.739505923 c 0
 439.131138179 90.4498426426 443.422902445 73.476942012 443.422902445 59.3853435801 c 0
 443.422902445 30.6620748222 425.59160002 13.9099600481 403.107732021 13.9099600481 c 0
 378.600438676 13.9099600481 348.565487557 33.8129481947 330.069468571 79.8103143076 c 0
 305.684937842 140.451698181 316.42048816 205.617891865 274.47806318 226.981497104 c 0
 266.049357786 231.274704633 257.324154522 232.550927045 249.580888344 232.550927045 c 0
 243.112558628 232.550927045 237.329432432 231.660368882 232.976726354 230.893966097 c 0
 219.857421875 228.583984375 206.426757812 224.543945312 193.160162778 222.442342432 c 0
 177.872070312 220.020507812 162.525390625 220.12890625 148.972390105 215.179715922 c 0
 126.714675572 207.051798762 123.997077506 190.081035632 122.055347862 173.890579623 c 0
 115.373300981 118.174591352 103.414082725 130.533679217 103.414082725 69.2655444796 c 0
 103.414082725 66.9221040775 103.456953743 61.9572850793 103.456953743 61.8834630198 c 0
 103.456953743 18.1135194622 82.1620694459 -1.42039049901 59.607074023 -1.42039049901 c 0
 36.7639735351 -1.42039049901 12.6283643924 18.6157374067 8.01260761031 53.8033711763 c 0
 7.34399438415 58.900458923 7.02764873506 64.3077788915 7.02764873506 69.9852174143 c 0
 7.02764873506 158.242371549 83.4740109991 311.774900607 101.423202841 379.89267398 c 0
 111.279296875 417.296875 116.599609375 458.924804688 135.579726768 530.371503981 c 0
 137.40625 537.247070312 147.53515625 575.174804688 154.082414151 602.276469275 c 0
  Spiro
    257.04 667.64 o
    304.88 624.4 o
    348.12 463.4 o
    369.28 289.52 o
    402.4 157.04 o
    443.8 56.76 o
    430 25.48 o
    374.8 21.8 o
    329.72 80.68 o
    307.64 173.6 o
    295.68 206.72 o
    274.52 226.96 o
    192.64 222.36 o
    148.48 215 o
    133.76 205.8 o
    121.8 171.76 o
    107.08 111.96 o
    97.88 26.4 o
    20.6 19.96 o
    8.64 89.88 o
    49.12 238.92 o
    100.64 376.92 o
    127.32 499.28 o
    156.76 613.36 o
    211.96 679.6 o
    0 0 z
  EndSpiro
EndSplineSet
Validated: 1
EndChar
StartChar: uni0411
Encoding: 1041 1041 117
Width: 500
InSpiro: 1
Flags: W
HStem: -27.4004 89.9004<119.915 257> 358.1 89.5<138.682 342.199> 583.4 89.7998<111.84 373.5>
VStem: 31.2002 91<71.4004 324.5 429.9 578.258>
LayerCount: 2
Back
Fore
SplineSet
53 676 m 0
 59.599609375 677.299804688 70.099609375 676.5 81.099609375 673.599609375 c 0
 97.5 669.400390625 104.099609375 668.799804688 152.5 667.799804688 c 0
 219.099609375 666.299804688 223.400390625 666.400390625 255 670.200195312 c 0
 282.099609375 673.400390625 283.099609375 673.400390625 322.299804688 673.200195312 c 0
 344.599609375 673.099609375 365 672.599609375 368.799804688 672 c 0
 395.099609375 667.799804688 412.099609375 642.099609375 405.5 616.5 c 0
 402 603.200195312 393.599609375 593.099609375 381.099609375 587.099609375 c 2
 373.5 583.5 l 1
 330 583.400390625 l 2
 289 583.400390625 285.299804688 583.200195312 265 580.700195312 c 0
 232.400390625 576.599609375 209.099609375 575.400390625 191.799804688 576.900390625 c 0
 183.900390625 577.599609375 162.700195312 578.200195312 144.5 578.299804688 c 2
 111.5 578.5 l 1
 112.599609375 563 l 2
 113.299804688 554.5 115.200195312 537.599609375 116.900390625 525.5 c 0
 121.099609375 495.700195312 122.900390625 476.799804688 123.700195312 451.400390625 c 2
 124.299804688 429.900390625 l 1
 128.400390625 430.599609375 l 2
 134.900390625 431.599609375 144.700195312 434.400390625 155.5 438.299804688 c 0
 165.900390625 442 172.5 443.5 192 446.799804688 c 0
 210.799804688 450 281.900390625 450.5 304 447.599609375 c 0
 333.200195312 443.700195312 360.400390625 435.200195312 370.599609375 426.700195312 c 0
 372.200195312 425.400390625 379.599609375 420.200195312 387 415.200195312 c 0
 403.599609375 404.099609375 410.599609375 397.799804688 421.599609375 384.099609375 c 0
 443.599609375 356.700195312 462 324.599609375 470.400390625 298.700195312 c 0
 481.5 264.799804688 481.799804688 207.299804688 471 154 c 0
 465.400390625 126.299804688 460.299804688 108.200195312 455.099609375 97.5 c 0
 452.5 92 448.900390625 84.599609375 447.200195312 81 c 0
 444.200195312 74.7998046875 433.400390625 60.7998046875 423.900390625 51 c 0
 418.5 45.5 401 31.7998046875 392.700195312 26.7001953125 c 0
 383.5 21 366.200195312 12.5 353.599609375 7.2998046875 c 0
 347.5 4.7998046875 335.099609375 -0.400390625 326 -4.2001953125 c 0
 297.400390625 -16.400390625 291.099609375 -18.099609375 257 -23.7001953125 c 2
 233.5 -27.5 l 1
 193.5 -27.400390625 l 2
 144.099609375 -27.2001953125 131.700195312 -25.7998046875 100 -16.599609375 c 0
 89.400390625 -13.5 87.7001953125 -13.2998046875 78 -13.7001953125 c 0
 69.099609375 -14.099609375 66.599609375 -13.7998046875 61.599609375 -12.099609375 c 0
 45.099609375 -6.2998046875 33.7001953125 7.099609375 31.099609375 24 c 0
 29.7001953125 32.5 29.7998046875 72.400390625 31.2001953125 107 c 0
 31.7998046875 122.099609375 32.400390625 154.799804688 32.5 179.5 c 0
 32.7001953125 208.799804688 33.099609375 225.900390625 33.7998046875 228.5 c 0
 35.2998046875 233.700195312 35.400390625 398.400390625 34 440 c 0
 32.7998046875 473.799804688 32.2001953125 481.099609375 27.400390625 515.5 c 0
 25.5 529.299804688 23.400390625 547.700195312 22.7998046875 556.5 c 0
 21.900390625 570.200195312 21.2998046875 573.599609375 18.7998046875 580.5 c 0
 14.900390625 590.799804688 14.5 602.200195312 17.7998046875 611.599609375 c 0
 19.599609375 616.700195312 19.7001953125 618.299804688 18.900390625 621.599609375 c 0
 18.2998046875 623.700195312 18 629.599609375 18.2001953125 634.599609375 c 0
 18.5 642.700195312 19 644.599609375 22.2001953125 651.099609375 c 0
 28.400390625 663.700195312 40.400390625 673.299804688 53 676 c 0
295.799804688 358 m 0
 286.200195312 359.400390625 253.599609375 360 239 359 c 0
 232.700195312 358.599609375 222.5 358.200195312 216.400390625 358.099609375 c 0
 203.099609375 358 190.599609375 355.599609375 176.5 350.5 c 0
 171 348.5 161.900390625 345.799804688 156.299804688 344.5 c 0
 144.900390625 341.900390625 145.299804688 342.200195312 133.599609375 332 c 2
 125 324.5 l 1
 125 275 l 2
 124.900390625 235.900390625 124.599609375 223.799804688 123.5 217.5 c 0
 122.299804688 211 122.099609375 203.700195312 122.599609375 179.5 c 0
 123 161.299804688 122.799804688 142 122.200195312 130.5 c 0
 121.599609375 120.099609375 120.799804688 102.5 120.400390625 91.400390625 c 2
 119.799804688 71.400390625 l 1
 127.200195312 69.2001953125 l 2
 147.400390625 63.400390625 156.599609375 62.5 196 62.5 c 0
 227 62.5 227.799804688 62.599609375 247.5 65.7998046875 c 0
 269.299804688 69.400390625 267.299804688 68.7998046875 310.799804688 86.900390625 c 0
 341.099609375 99.5 346 102.400390625 355 112.5 c 0
 357 114.700195312 360.700195312 118.400390625 363.299804688 120.799804688 c 0
 365.900390625 123.099609375 368 125.400390625 368 125.799804688 c 0
 368 126.200195312 369.5 129 371.400390625 132.099609375 c 0
 377 141.400390625 385.099609375 177.900390625 387.900390625 206.400390625 c 0
 390.200195312 229.299804688 388.900390625 257 384.900390625 270.5 c 0
 380.900390625 283.799804688 369.900390625 303.400390625 355.799804688 322.200195312 c 0
 347.099609375 333.700195312 346.700195312 334 332.5 343.5 c 0
 317.099609375 353.700195312 312.599609375 355.5 295.799804688 358 c 0
EndSplineSet
EndChar
StartChar: uni0414
Encoding: 1044 1044 120
Width: 500
InSpiro: 1
Flags: W
HStem: -14.2002 85.1006<425.93 473.582> -12.2998 90.2002<167.488 326.951> 0 88.7002<15.9572 77.0851>
LayerCount: 2
Back
Fore
SplineSet
256 677.599609375 m 0x20
 265.5 680.200195312 278.700195312 678.700195312 288.200195312 673.900390625 c 0
 290.5 672.700195312 294.799804688 669.5 297.799804688 666.700195312 c 0
 307 657.900390625 310.299804688 650.599609375 312.5 633.700195312 c 0
 313.299804688 627.799804688 316.599609375 611.900390625 319.900390625 598.200195312 c 0
 329 560.400390625 330.099609375 553.799804688 333 516 c 0
 335.299804688 485.799804688 336.299804688 477.900390625 339 469.200195312 c 0
 341.599609375 460.900390625 342.599609375 454.5 345 430.5 c 0
 346.099609375 419.5 347.900390625 406.900390625 349 402.5 c 0
 352.599609375 387.599609375 353.099609375 384.799804688 354 370.599609375 c 0
 354.5 362.799804688 355.799804688 353 356.900390625 348.700195312 c 0
 358 344.400390625 359.599609375 334.5 360.5 326.700195312 c 0
 363.400390625 300.400390625 364 296.599609375 369 275 c 0
 371.700195312 263.200195312 374.599609375 248.799804688 375.400390625 243 c 0
 376.5 235.599609375 381.700195312 216.599609375 393 179 c 0
 401.799804688 149.599609375 410.599609375 118.5 412.5 110 c 0
 415.700195312 96.2001953125 419.5 85.5 425.900390625 73 c 0
 426.5 71.900390625 429.299804688 71.2998046875 436.599609375 70.900390625 c 0
 446.099609375 70.2998046875 452.099609375 68.7001953125 458 65.099609375 c 0
 488.900390625 46.5 486.900390625 1 454.5 -14.2001953125 c 0x80
 445.400390625 -18.400390625 437 -19.400390625 420.400390625 -18.2001953125 c 0
 411.400390625 -17.599609375 404.400390625 -17.5 400.5 -18.2001953125 c 0
 393.599609375 -19.2998046875 388.099609375 -18.7001953125 379.5 -16 c 0
 375.599609375 -14.7998046875 369 -14 361 -13.599609375 c 0
 354.099609375 -13.400390625 347.200195312 -12.7001953125 345.5 -12.2001953125 c 0
 343.700195312 -11.7001953125 325.900390625 -11.7001953125 301 -12.2998046875 c 0x40
 250 -13.5 222.900390625 -12.5 157.5 -7 c 0
 130.299804688 -4.7001953125 97.7001953125 -2.599609375 80 -2 c 0
 63.2001953125 -1.400390625 47 -0.5 44 0 c 0
 16.2001953125 4.900390625 0.7001953125 37.900390625 14 64 c 0
 22.099609375 79.900390625 35.2998046875 87.5 57.099609375 88.7001953125 c 0
 64.7001953125 89.099609375 69 89.7001953125 69 90.400390625 c 0
 69 91 70.599609375 94.7001953125 72.5 98.5 c 0
 74.5 102.400390625 78.2998046875 113.400390625 81.099609375 123 c 0
 83.7998046875 132.599609375 89.400390625 151.5 93.5 165 c 0
 105.700195312 205.599609375 107.900390625 213.900390625 110 228.5 c 0
 112.400390625 245.599609375 115 255.200195312 119.599609375 264.400390625 c 0
 125.299804688 275.799804688 130.700195312 299.200195312 136.5 338.5 c 0
 141.200195312 369.799804688 142 373.200195312 156.599609375 428.5 c 0
 176 501.599609375 176.599609375 503.599609375 184.099609375 525.200195312 c 0
 188.900390625 538.900390625 191.799804688 549.200195312 193.099609375 557 c 0
 195.5 570.799804688 200.099609375 585.099609375 210.799804688 611 c 0
 215.200195312 621.700195312 220.299804688 635 222 640.5 c 0
 223.799804688 646 226.400390625 652.700195312 227.700195312 655.400390625 c 0
 232.599609375 665.200195312 244.299804688 674.299804688 256 677.599609375 c 0x20
254 437.599609375 m 0
 254 443 251.200195312 434 241.700195312 398.200195312 c 0
 229.900390625 353.5 229.5 351.900390625 225 321.5 c 0
 218.799804688 279.5 210.200195312 243 203 228.700195312 c 0
 200.700195312 224 199.5 219.5 198 208.700195312 c 0
 195.900390625 194.5 193.599609375 186.200195312 174 120 c 0
 162.5 81.099609375 162.900390625 83.2998046875 167.200195312 82.599609375 c 0
 172.900390625 81.599609375 206.5 79.099609375 230 77.900390625 c 0x40
 259.599609375 76.400390625 327 77.5 327 79.599609375 c 0
 327 84.5 322.299804688 101.400390625 302.5 167.5 c 0
 290.700195312 206.900390625 287.799804688 217.700195312 286.599609375 227.5 c 0
 285.700195312 234.099609375 283.700195312 245.099609375 282 252 c 0
 276.799804688 273.299804688 274.099609375 287.900390625 272.400390625 305 c 0
 271.599609375 314.099609375 269.700195312 326.200195312 268.299804688 332 c 0
 266.700195312 338.599609375 265.299804688 348.700195312 264.599609375 359.099609375 c 0
 263.900390625 368.200195312 263.099609375 376.099609375 262.700195312 376.599609375 c 0
 260.799804688 379.799804688 254 427 254 437.599609375 c 0
EndSplineSet
EndChar
StartChar: uni0415
Encoding: 1045 1045 121
Width: 500
InSpiro: 1
Flags: W
HStem: -9.2002 93.2998<148.229 423.885> 278 90.2002<142.7 382.242> 285.1 93.3008<142.855 382.5> 565 89.5996<112.594 412.6>
VStem: 58.2002 89.7998<65.7002 277.694>
LayerCount: 2
Fore
SplineSet
327 653.900390625 m 0xd8
 335 654.299804688 357.5 654.700195312 377.099609375 654.599609375 c 2
 412.599609375 654.5 l 1
 420.200195312 650.700195312 l 2
 438.099609375 641.900390625 448.400390625 622.5 445.200195312 603.5 c 0
 442 584.200195312 427 569.200195312 408 566.099609375 c 0
 404.400390625 565.5 389.599609375 565 375 565 c 0
 360.400390625 564.900390625 340.400390625 564.400390625 330.5 563.900390625 c 0
 320.599609375 563.400390625 281.200195312 562.5 243 562.099609375 c 0
 173.299804688 561.200195312 171 561.099609375 118.200195312 556.400390625 c 2
 111.799804688 555.799804688 l 1
 112.400390625 552.700195312 l 2
 113.200195312 548.299804688 117.5 503.900390625 120.400390625 471 c 0
 122.200195312 451.099609375 123.700195312 439.700195312 126 429.700195312 c 0
 128.799804688 416.799804688 130.299804688 406.799804688 133.299804688 379.5 c 2
 134.5 368.5 l 1
 144.5 368.200195312 l 2xd8
 156.700195312 367.799804688 190.400390625 369.400390625 226.5 372.099609375 c 0
 241.400390625 373.200195312 266.299804688 374.5 282 375.099609375 c 0
 297.700195312 375.599609375 319.299804688 376.5 330 377.200195312 c 0
 340.700195312 377.799804688 356.900390625 378.400390625 366 378.400390625 c 2
 382.5 378.5 l 1
 389.299804688 375.299804688 l 2
 412.099609375 364.5 421.700195312 338.099609375 411.099609375 315.400390625 c 0
 405.400390625 303.200195312 391.5 292.200195312 379.700195312 290.5 c 0
 362.200195312 288 350.299804688 287.299804688 286 285.099609375 c 0xb8
 269.799804688 284.599609375 244.099609375 283.200195312 229 282.099609375 c 0
 195.900390625 279.599609375 166.099609375 278 152.599609375 278 c 2
 142.700195312 278 l 1
 143.299804688 242.299804688 l 2
 143.700195312 221.099609375 144.700195312 196.099609375 145.900390625 181 c 0
 147.5 160.599609375 148 146.400390625 148 110.599609375 c 2
 148 65.7001953125 l 1
 161.799804688 66.400390625 l 2
 183.400390625 67.5 203.5 69.7001953125 216.5 72.400390625 c 0
 246.700195312 78.599609375 276 80.5 325 79.5 c 0
 348.700195312 79 357.200195312 79.099609375 359.5 80 c 0
 361.200195312 80.7001953125 367.900390625 81.599609375 374.5 82 c 0
 381.099609375 82.5 389.700195312 83.400390625 393.700195312 84.099609375 c 0
 399.5 85.099609375 402.299804688 85.099609375 408 84.099609375 c 0
 430.099609375 80.099609375 446 62.599609375 447.700195312 40.400390625 c 0
 449.099609375 22.7998046875 439.700195312 5.7998046875 424.299804688 -2.2998046875 c 0
 415.400390625 -6.900390625 409.5 -8 394.200195312 -8 c 0
 387 -8 380 -8.5 378 -9.2001953125 c 0
 375.5 -10 359.200195312 -10.400390625 321 -10.5 c 0
 263.299804688 -10.7001953125 259.799804688 -10.900390625 230.5 -16.5 c 0
 210.799804688 -20.2001953125 201.200195312 -21.2001953125 166 -23.599609375 c 0
 153.099609375 -24.400390625 136.900390625 -26.099609375 130 -27.2001953125 c 0
 111.900390625 -30.2998046875 91 -30.2998046875 81.400390625 -27.2998046875 c 0
 57.900390625 -19.900390625 44.900390625 4.2001953125 50.5 29.599609375 c 0
 51.400390625 33.900390625 53.599609375 41.099609375 55.2001953125 45.5 c 2
 58.2001953125 53.5 l 1
 58 103.5 l 2
 57.900390625 143 57.5 158.700195312 55.900390625 178.5 c 0
 54.7998046875 193.099609375 53.599609375 221.900390625 53 247.5 c 0
 52.099609375 293.700195312 51.5 303.099609375 47.400390625 338 c 0
 46.099609375 349.799804688 44 368.099609375 42.900390625 378.5 c 0
 41.7998046875 389 39.599609375 403.400390625 38 410.5 c 0
 34 428.400390625 33.400390625 433 31 460.5 c 0
 26.7001953125 510.400390625 23 545.599609375 17.900390625 583.700195312 c 0
 15.2998046875 603.700195312 15 607.700195312 16 613.200195312 c 0
 19.099609375 631.200195312 33.2998046875 646.200195312 50.7998046875 649.900390625 c 0
 58.400390625 651.5 63.5 651.299804688 74.599609375 648.900390625 c 0
 90.400390625 645.5 105.200195312 645.400390625 140 648.5 c 0
 167.400390625 650.900390625 177.599609375 651.299804688 241.5 652.099609375 c 0
 280.599609375 652.700195312 319 653.5 327 653.900390625 c 0xd8
EndSplineSet
EndChar
StartChar: uni0419
Encoding: 1049 1049 125
Width: 500
Flags: W
VStem: 23 89.5996<186.395 637.3> 34.7998 90.2002<186.001 514.265> 326.6 89.5<142.974 302.757> 332.9 88.6992<42.8611 311.984> 342.1 87.5<13.1161 317.623> 356 90<555.607 635.034>
LayerCount: 2
Fore
SplineSet
157.700195312 763 m 0x00
 162.400390625 764.700195312 165.299804688 765 173.5 764.700195312 c 0
 192 764 201.299804688 758.200195312 213.700195312 739.200195312 c 0
 219.5 730.299804688 223.099609375 726.099609375 228.400390625 721.599609375 c 2
 235.5 715.700195312 l 1
 245.700195312 716.299804688 l 2
 259.5 717 265.299804688 719.5 270.5 727.400390625 c 0
 281.299804688 743.700195312 300.900390625 751.299804688 319.5 746.400390625 c 0
 326.900390625 744.5 333 741 339.299804688 735.099609375 c 0
 354.599609375 720.799804688 357.299804688 697.900390625 346.200195312 676.5 c 0
 341.299804688 667 321.599609375 647.299804688 309.799804688 640 c 0
 301.200195312 634.700195312 298.400390625 633.700195312 281 629.5 c 0
 266.200195312 626 237.099609375 625 222.5 627.5 c 0
 204.799804688 630.599609375 190.599609375 636.700195312 177.900390625 646.700195312 c 0
 174.5 649.299804688 169.900390625 652.599609375 167.599609375 653.900390625 c 0
 161.200195312 657.599609375 156.799804688 661.400390625 153.5 666 c 0
 151.900390625 668.299804688 146.599609375 674.099609375 141.900390625 678.799804688 c 0
 136.200195312 684.599609375 132.400390625 689.400390625 130.700195312 693 c 0
 124.099609375 707.200195312 124.900390625 725.599609375 132.700195312 741.299804688 c 0
 138 751.900390625 145.900390625 758.799804688 157.700195312 763 c 0x00
52 667.799804688 m 0
 57.400390625 669.700195312 60.2001953125 670 68.599609375 669.799804688 c 0
 77.900390625 669.5 79.2001953125 669.200195312 86.2001953125 665.700195312 c 0
 99.099609375 659.400390625 108.200195312 647.5 111 633.5 c 0
 112.900390625 624.200195312 113.299804688 563 112.200195312 466 c 0
 111.400390625 393.200195312 111.400390625 376.900390625 112.599609375 369 c 0x80
 113.299804688 363.799804688 114.400390625 345.900390625 115 329.200195312 c 0
 115.5 312.5 116.299804688 298.400390625 116.700195312 297.700195312 c 0
 117.099609375 297.099609375 117.700195312 285.099609375 118.099609375 271 c 0
 118.900390625 244.299804688 121.099609375 216.400390625 123.599609375 202.099609375 c 0
 124.299804688 197.5 125 192 125 189.900390625 c 0
 125 187.700195312 125.5 186 126 186 c 0
 127.599609375 186 146.200195312 214.900390625 160.5 239.5 c 0
 167.5 251.599609375 179.599609375 271.900390625 187.5 284.5 c 0
 195.299804688 297.200195312 208 317.599609375 215.599609375 330 c 0
 223.099609375 342.400390625 231.5 355.5 234.200195312 359.200195312 c 0
 236.900390625 362.799804688 240.299804688 368.900390625 241.900390625 372.700195312 c 0
 243.400390625 376.400390625 248.299804688 385.099609375 252.700195312 392 c 0
 261.799804688 406.200195312 264.5 411.299804688 273.099609375 430.700195312 c 0
 279 444.200195312 283.599609375 452.599609375 289.099609375 460.299804688 c 0
 290.599609375 462.400390625 293.900390625 469.400390625 296.400390625 475.799804688 c 0
 298.900390625 482.200195312 303.5 494 306.599609375 502 c 0
 313.5 520 319.599609375 531.5 334.599609375 555.599609375 c 0
 350.900390625 581.700195312 356 591.900390625 356 598.400390625 c 0
 356 612.5 364.599609375 627.700195312 376.799804688 635.400390625 c 0
 386.299804688 641.299804688 400.400390625 643.599609375 411.900390625 640.900390625 c 0
 428.700195312 637.099609375 442.799804688 621.900390625 446 604.299804688 c 0x44
 447 598.5 446.299804688 579.099609375 444.5 564.5 c 0
 444.200195312 562.299804688 443.299804688 547.900390625 442.5 532.5 c 0
 440.700195312 499 439.5 486.400390625 437 470.5 c 0
 435.900390625 463.900390625 433.900390625 447 432.5 433 c 0
 429.700195312 405.900390625 428.400390625 396.099609375 422.099609375 356.5 c 0
 414.5 308.799804688 411.200195312 274.5 412.5 256 c 0
 412.799804688 251.299804688 414.400390625 228.799804688 416.099609375 206 c 0x20
 417.700195312 183.200195312 419.299804688 159.299804688 419.599609375 153 c 0
 419.900390625 146.700195312 420.799804688 139.5 421.599609375 137 c 0x10
 424.900390625 126.200195312 429.400390625 89.900390625 430.5 64.5 c 0
 431.099609375 52.400390625 430.900390625 48.2001953125 429.599609375 42.599609375 c 0
 425.299804688 24.2998046875 411 10.7998046875 392.5 7.7998046875 c 0
 370 4 346.400390625 20.2001953125 342.099609375 42.2998046875 c 0x08
 341.599609375 45.2001953125 340.599609375 56.2998046875 340.099609375 67 c 0
 338.900390625 88.900390625 336.200195312 108.299804688 332.900390625 118 c 0x10
 331.200195312 123.099609375 330.599609375 128.299804688 329.900390625 142.5 c 0
 329.5 152.400390625 328 176 326.599609375 195 c 0
 321.5 262.299804688 321.400390625 268.5 324.099609375 301.5 c 0
 325.099609375 314 327.599609375 335.799804688 328.5 339.799804688 c 0
 329.599609375 344.299804688 327 341.799804688 324 335.299804688 c 0
 318.299804688 323.099609375 315.799804688 318.599609375 309 309 c 0
 305.299804688 303.799804688 299.099609375 294.299804688 295.299804688 288 c 0
 291.400390625 281.700195312 281.599609375 265.700195312 273.400390625 252.5 c 0
 265.299804688 239.299804688 256.299804688 224.700195312 253.5 220 c 0
 250.599609375 215.299804688 242.099609375 200.900390625 234.5 188 c 0
 212 149.5 207.900390625 143.700195312 151.400390625 69 c 0
 143.700195312 58.7998046875 134.099609375 45.099609375 130 38.5 c 0
 109.5 5.099609375 102.200195312 -2.400390625 86.2998046875 -6.5 c 0
 61.900390625 -12.900390625 37 2.7001953125 31.400390625 27.7001953125 c 0
 30 34 29.900390625 36.599609375 30.900390625 43.7001953125 c 0
 31.5 48.2998046875 33 54.7001953125 34.400390625 57.7998046875 c 0
 36.7001953125 63.2001953125 36.900390625 64.7998046875 37.5 89.7001953125 c 0
 38 113.099609375 37.900390625 116.599609375 36.2998046875 122.200195312 c 0
 34.7001953125 127.700195312 34.5 132 34.7998046875 157.299804688 c 0x60
 35 174.900390625 34.7001953125 188.200195312 34.099609375 191.299804688 c 0
 32.2001953125 200.5 29 239.900390625 28.400390625 260.5 c 0
 28.099609375 271.5 27.5 283.900390625 26.900390625 288 c 0
 26.400390625 292.099609375 25.5 308.599609375 25 324.5 c 0
 24.5 340.5 23.599609375 355.799804688 23 358.5 c 0
 21.5 365.5 21.400390625 387.799804688 22.2001953125 520.400390625 c 2
 23 637.299804688 l 1x80
 26 643.799804688 l 2
 31.599609375 655.900390625 40 663.599609375 52 667.799804688 c 0
EndSplineSet
EndChar
StartChar: uni041D
Encoding: 1053 1053 129
Width: 500
Flags: W
HStem: 305.7 88.7002<143.764 350.8>
VStem: 39.4004 93.5996<396.174 656.094> 55.0996 87.9004<-7.11521 306.751> 350.3 90.4004<-21.959 182.34 205.973 305.2 396.1 688.638>
LayerCount: 2
Fore
SplineSet
381.799804688 693.599609375 m 0xd0
 394.400390625 698 409.700195312 696.299804688 421 689 c 0
 431.200195312 682.5 439.299804688 670 440.799804688 658.5 c 0
 441.200195312 655.200195312 441.200195312 631.099609375 440.700195312 605 c 0
 439.700195312 550.599609375 440.5 401.299804688 442.099609375 327.5 c 0
 444.799804688 202.599609375 444.799804688 168.099609375 442.099609375 110.5 c 0
 441.5 97.2998046875 440.5 68.900390625 440 47.2998046875 c 0
 439.099609375 13.599609375 438.700195312 7.2998046875 437.099609375 2.099609375 c 0
 433.299804688 -10.099609375 425.200195312 -19.400390625 413.099609375 -25.2998046875 c 0
 406.799804688 -28.400390625 406 -28.5 394.5 -28.5 c 0
 383.099609375 -28.5 382.200195312 -28.2998046875 375.700195312 -25.2998046875 c 0
 362.799804688 -19.2001953125 353.400390625 -7.2998046875 350.5 6.599609375 c 0
 348.900390625 14.099609375 349.599609375 54.2001953125 352.5 123.5 c 0
 353.299804688 144.200195312 354 179.900390625 353.900390625 204.5 c 0
 353.799804688 251.900390625 352.799804688 304.599609375 352 305.200195312 c 0
 351.700195312 305.5 346.099609375 305.299804688 339.5 304.799804688 c 0
 324.200195312 303.599609375 281.5 304.5 250 306.599609375 c 0
 236.5 307.5 213.799804688 308.299804688 199.5 308.400390625 c 0
 175 308.5 172.599609375 308.299804688 158.900390625 305.700195312 c 0
 150.900390625 304.200195312 144.099609375 303 143.900390625 303 c 0
 143.700195312 303 143.700195312 240.799804688 143.799804688 164.799804688 c 0
 144.099609375 59.7001953125 143.900390625 25.2001953125 143 21 c 0
 140.599609375 10 132.599609375 -1.400390625 123.200195312 -7.400390625 c 0
 115.400390625 -12.2998046875 107.5 -14.2001953125 96.900390625 -13.7998046875 c 0
 88.2001953125 -13.5 86.5 -13.099609375 79.7001953125 -9.7001953125 c 0
 66.7998046875 -3.2998046875 57.599609375 8.7001953125 55.099609375 22.5 c 0xb0
 54.400390625 26.5 53.900390625 75.7998046875 53.599609375 171.5 c 0
 53.2001953125 307.799804688 52.5 343.099609375 49.5 394.5 c 0
 45.599609375 461.5 40.7001953125 561.400390625 39.400390625 602 c 0
 38.5 631.5 40.5 639.799804688 51 651.200195312 c 0
 71.5 673.599609375 107 669.900390625 122.700195312 643.799804688 c 0
 128 635.099609375 128.700195312 629.900390625 130 591 c 0
 130.599609375 571.5 132 539.099609375 133 519 c 0
 134 498.900390625 135.799804688 463.599609375 137 440.5 c 0
 138.200195312 417.400390625 139.400390625 397.400390625 139.599609375 396.099609375 c 0
 140.099609375 394 140.5 393.799804688 143.799804688 394.400390625 c 0
 164.900390625 398.099609375 169.200195312 398.400390625 197.5 398.400390625 c 0
 215.599609375 398.400390625 236.599609375 397.599609375 253.5 396.5 c 0
 281.5 394.5 337.299804688 393.799804688 346.099609375 395.299804688 c 2
 350.799804688 396.099609375 l 1
 350.299804688 475.299804688 l 2
 350 518.900390625 350.299804688 577.900390625 350.799804688 606.5 c 0
 351.700195312 655.200195312 351.900390625 658.900390625 353.900390625 665.200195312 c 0
 358 678.099609375 368.599609375 688.900390625 381.799804688 693.599609375 c 0xd0
EndSplineSet
EndChar
StartChar: uni041E
Encoding: 1054 1054 130
Width: 500
Flags: W
VStem: 11 91.2998<164.344 451.404> 370.1 90<149.454 378.219>
LayerCount: 2
Back
Fore
SplineSet
242.5 679 m 0
 246.900390625 679.5 256 679.599609375 262.700195312 679.400390625 c 0
 317.599609375 677.200195312 361.700195312 651.5 385.900390625 607.5 c 0
 399.299804688 583.200195312 405.700195312 557.5 411.5 505.5 c 0
 415.5 469.599609375 417.299804688 460.200195312 425.5 434.400390625 c 0
 442.400390625 381.299804688 450.099609375 349.799804688 455.400390625 312.799804688 c 0
 459.099609375 287 460.099609375 274 460.099609375 249.099609375 c 0
 460.099609375 197 451.200195312 155.400390625 431.5 114.5 c 0
 391.799804688 32.400390625 315.200195312 -18 235.5 -14.7001953125 c 0
 208.099609375 -13.5 185 -7.400390625 158 5.900390625 c 0
 90.099609375 39.2998046875 43.400390625 98.400390625 24.5 175 c 0
 18.599609375 199.099609375 13.400390625 234.299804688 11 266.5 c 0
 9.7001953125 284.5 9.7001953125 328.799804688 11 346.099609375 c 0
 16.900390625 422.400390625 36.7998046875 490.400390625 71.400390625 552.5 c 0
 99.900390625 603.5 131 637.200195312 169 658.299804688 c 0
 187.400390625 668.400390625 214 675.900390625 242.5 679 c 0
275.400390625 587.400390625 m 0
 264.700195312 590.200195312 253.900390625 590.200195312 239.5 587.599609375 c 0
 232.400390625 586.299804688 224.599609375 584.5 222.200195312 583.599609375 c 0
 193.400390625 573.099609375 167.799804688 544.400390625 143 494.900390625 c 0
 120.5 450.099609375 108.900390625 410.799804688 102.299804688 357 c 0
 99.7001953125 336.299804688 99.7998046875 275.099609375 102.299804688 253.5 c 0
 110.799804688 182.299804688 123.799804688 149.099609375 155.900390625 116.900390625 c 0
 170.099609375 102.700195312 181.900390625 94.2001953125 199 86.099609375 c 0
 225 73.7001953125 247.599609375 71.900390625 272.5 80.099609375 c 0
 310.400390625 92.7001953125 343 128.200195312 358.900390625 174.200195312 c 0
 366.799804688 197.299804688 370.099609375 218.799804688 370.099609375 249 c 0
 370.099609375 295.400390625 361.400390625 340.400390625 339.5 408 c 0
 329.5 438.599609375 327.200195312 450.200195312 322.5 491.5 c 0
 318.400390625 528.5 316.599609375 538.900390625 312.299804688 552 c 0
 305.799804688 571.5 294.400390625 582.5 275.400390625 587.400390625 c 0
EndSplineSet
EndChar
StartChar: uni0420
Encoding: 1056 1056 132
Width: 500
Flags: W
HStem: 267.5 90.2998<130.2 291.322> 598.4 90<145.633 314.596>
VStem: 43.2002 89.5<-17.8502 265.849> 369.8 90<428.807 545.095>
LayerCount: 2
Fore
SplineSet
211 688.400390625 m 0
 218.099609375 689 243.700195312 688.200195312 253 687 c 0
 267.200195312 685.200195312 281.700195312 681.5 312.299804688 672 c 0
 362 656.400390625 382.799804688 647.700195312 403.5 633.900390625 c 0
 424.099609375 620.200195312 442 599.599609375 450 580.400390625 c 0
 458 561.200195312 460.5 542.599609375 459.799804688 507.200195312 c 0
 459.200195312 480.400390625 457.700195312 468.5 452 445.5 c 0
 440.599609375 399.799804688 418.700195312 363.700195312 384.700195312 334.299804688 c 0
 342.400390625 297.799804688 290.5 275.599609375 228 267.400390625 c 0
 210.099609375 265.099609375 163.799804688 264.5 145 266.299804688 c 0
 137 267.099609375 130.400390625 267.700195312 130.200195312 267.5 c 0
 130.099609375 267.400390625 130.599609375 262.799804688 131.400390625 257.400390625 c 0
 134.799804688 234.5 135.5 221.400390625 135.400390625 180 c 0
 135.299804688 147 134.799804688 130 132.700195312 97 c 0
 131.200195312 74.2001953125 129.799804688 45.7998046875 129.400390625 34 c 0
 128.799804688 10.7998046875 127.700195312 3.7998046875 123.299804688 -4.099609375 c 0
 119.599609375 -11.099609375 110.299804688 -19.5 102.299804688 -23.2998046875 c 0
 95.900390625 -26.2998046875 94.900390625 -26.5 84 -26.5 c 0
 73.099609375 -26.5 72.099609375 -26.2998046875 65.7001953125 -23.2998046875 c 0
 52.2001953125 -16.900390625 42.400390625 -4.400390625 39.7998046875 9.900390625 c 0
 38.400390625 17.5 39.7998046875 58.5 43.2001953125 108 c 0
 44.7998046875 131.400390625 45.2998046875 149.900390625 45.400390625 180 c 0
 45.5 227.400390625 44.900390625 234.200195312 36.5 277 c 0
 29.900390625 310.700195312 25.7998046875 334 22.599609375 357 c 0
 8 458.5 9.400390625 545 26.7001953125 623.5 c 0
 31.5 645.200195312 34.2998046875 653.599609375 38.900390625 660.099609375 c 0
 55 682.599609375 87.5 685.299804688 107.099609375 665.799804688 c 2
 111.799804688 661.099609375 l 1
 123.200195312 666.200195312 l 2
 150.299804688 678.299804688 179.200195312 685.700195312 211 688.400390625 c 0
249 596.400390625 m 0
 240.5 598.099609375 220.799804688 599.099609375 213.5 598.400390625 c 0
 178.5 594.900390625 145.299804688 580.5 114.700195312 555.5 c 2
 105.299804688 547.799804688 l 1
 104.599609375 539.299804688 l 2
 100.799804688 493.099609375 102.599609375 439.099609375 109.599609375 385.5 c 0
 110.900390625 375.099609375 112.299804688 364.400390625 112.700195312 361.900390625 c 2
 113.200195312 357.299804688 l 1
 122.400390625 357.799804688 l 2
 127.400390625 358 138.400390625 357.5 146.799804688 356.599609375 c 0
 166.200195312 354.599609375 196.400390625 354.5 214 356.599609375 c 0
 265.700195312 362.5 309.599609375 383 338.200195312 414.5 c 0
 354.200195312 432.200195312 365.299804688 459.299804688 369.099609375 490.299804688 c 0
 369.799804688 496.200195312 370.099609375 508 369.799804688 520.299804688 c 0
 369.400390625 538.799804688 369.200195312 540.900390625 367.099609375 545.299804688 c 0
 362.700195312 554.299804688 350.5 562.700195312 329.700195312 571 c 0
 313.700195312 577.400390625 259.700195312 594.400390625 249 596.400390625 c 0
EndSplineSet
EndChar
StartChar: uni0421
Encoding: 1057 1057 135
Width: 500
Flags: W
HStem: 572.473 64.1652<216.381 280.977>
VStem: 15.0156 97.7687<182.649 386.155>
LayerCount: 2
Back
Fore
SplineSet
344.471501809 514.716796875 m 0
 291.152247652 514.716796875 296.639673816 552.453125 273.027607318 552.453125 c 0
 267.641601562 552.453125 262.453125 556.603515625 262.453125 564.377056042 c 0
 262.453125 569.79113899 259.936306208 572.473477168 255.257335855 572.473477168 c 0
 242.878979452 572.473477168 215.368094129 553.700251106 179.291560671 517.068592305 c 0
 149.102539062 486.415039062 139.811523438 470.56640625 139.811523438 444.456787285 c 0
 139.811523438 426.981445312 135.649414062 411.442382812 130.345546903 409.674514369 c 0
 121.373706824 406.684048642 112.784300694 363.329111166 112.784300694 310.299217785 c 0
 112.784300694 277.751810557 116.019897705 241.559883797 124.388539769 208.818838894 c 0
 129.391601562 189.245117188 134.208984375 178.809570312 158.704252991 154.314301696 c 0
 185.859375 127.159179688 195.471679688 124.451171875 257.821153227 119.13434276 c 0
 368.123946982 109.728311368 406.592236629 100.538432423 406.592236629 79.217955946 c 0
 406.592236629 72.1084768584 402.314789727 63.6501468781 394.997066439 53.3851665427 c 0
 377.047359916 28.2061078059 358.804520907 17.4058120456 313.534873994 17.4058120456 c 0
 295.876998161 17.4058120456 274.107081126 19.0490420316 246.63857668 22.1231330157 c 0
 159.623046875 31.861328125 102.075195312 46.2607421875 102.075195312 62.5675483352 c 0
 102.075195312 67.681640625 96.4150390625 71.3203125 92.5360528533 71.3203125 c 0
 81.6279296875 71.3203125 61.806640625 100.094726562 37.7912856358 149.972199381 c 0
 19.1620678342 188.663207904 15.0155873627 204.731968257 15.0155873627 249.594230234 c 0
 15.0155873627 253.201676798 15.0423986153 256.995302906 15.09064685 261.001841847 c 0
 15.8056640625 320.376953125 20.431640625 360.330078125 26.768185415 367.93369426 c 0
 38.5789390674 382.106155753 72.3294288578 485.600533768 85.6805611782 502.879080889 c 0
 88.2593669635 506.216477014 88.8821957592 508.612371853 88.8821957592 510.792181557 c 0
 88.8821957592 512.82893675 88.3384333458 514.677038214 88.3384333458 516.928249177 c 0
 88.3384333458 521.703360705 90.7849255346 528.292139773 106.056566776 542.342004548 c 0
 120 555.169921875 130.376953125 569.698242188 130.376953125 574.989164613 c 0
 130.376953125 582.299804688 150.188476562 597.932617188 172.012313169 609.580793471 c 0
 205.53175924 627.471342405 245.066456907 636.638638293 279.917656064 636.638638293 c 0
 308.693503043 636.638638293 334.276407023 630.388897174 350.644042683 617.639463268 c 0
 359.115015234 611.041069529 365.90395632 602.08899983 365.90395632 578.802898182 c 0
 365.90395632 567.033443728 364.169668687 551.602249684 360.041711852 530.962465509 c 0
 357.169921875 516.603515625 356.137695312 514.716796875 344.471501809 514.716796875 c 0
EndSplineSet
Validated: 1
EndChar
StartChar: uni0422
Encoding: 1058 1058 134
Width: 500
Flags: W
HStem: 582.3 92.2002<21.5676 190.1 280.2 459.074>
VStem: 189.4 90.0996<307.701 581.7> 216.1 89.9004<-2.05279 438.753>
LayerCount: 2
Fore
SplineSet
48.2998046875 673.5 m 0xc0
 52 674.400390625 57.5 674.799804688 62 674.5 c 0
 109.900390625 671.599609375 211 671.400390625 357.799804688 674 c 0
 404.700195312 674.900390625 424.900390625 674.900390625 429.299804688 674.099609375 c 0
 443.900390625 671.599609375 457 661.599609375 463.299804688 648.299804688 c 0
 467.599609375 639.099609375 468.299804688 626.599609375 465.099609375 616.099609375 c 0
 461 602.700195312 449.599609375 591.299804688 436 587.099609375 c 0
 430.099609375 585.299804688 425.700195312 585.099609375 388 584.5 c 0
 365.200195312 584.200195312 331.599609375 583.700195312 313.400390625 583.400390625 c 2
 280.200195312 582.700195312 l 1
 279.5 563.299804688 l 2xc0
 278 522.599609375 281.099609375 478.700195312 292.5 381.5 c 0
 303.700195312 285.799804688 306 254.200195312 306 193 c 0
 306 174 306.5 130.5 307.200195312 96.2998046875 c 0
 308.5 28.400390625 308.299804688 25.599609375 303.200195312 15.099609375 c 0
 287.900390625 -16.099609375 243.900390625 -18.5 225.099609375 10.900390625 c 0
 218.599609375 20.900390625 218.799804688 19.2001953125 217.400390625 82 c 0
 216.700195312 113.599609375 216.099609375 159.099609375 216.099609375 183 c 0xa0
 215.900390625 252.099609375 214.400390625 274.5 203 371.799804688 c 0
 196.099609375 430.900390625 195.299804688 439.099609375 193 465.400390625 c 0
 190.099609375 499.5 188.700195312 537.599609375 189.400390625 561.099609375 c 2
 190.099609375 581.700195312 l 1
 139.799804688 582.299804688 l 2
 82.400390625 583 54.2001953125 584.299804688 45.7001953125 586.700195312 c 0
 24.400390625 592.599609375 10.099609375 615.400390625 13.900390625 637.099609375 c 0
 17.2001953125 655.200195312 30.599609375 669.5 48.2998046875 673.5 c 0xc0
EndSplineSet
EndChar
StartChar: uni0424
Encoding: 1060 1060 136
Width: 500
Flags: W
HStem: -13.5 21G<229.55 240.45>
VStem: 27.4004 89.1992<325.746 504.532> 169.5 90.9004<307.6 555.959> 190 89.5996<-7.70535 211.511 664.325 727.07>
LayerCount: 2
Fore
SplineSet
221.099609375 733.400390625 m 0xd0
 227.5 735.099609375 236.799804688 735.400390625 242.900390625 733.900390625 c 0
 260.400390625 729.900390625 274.400390625 714.5 277.200195312 696.200195312 c 0
 278.099609375 690.400390625 278 687.900390625 276.200195312 678.799804688 c 0
 275 673 273.799804688 667.5 273.400390625 666.700195312 c 0
 273 665.5 273.900390625 665 277.700195312 664.5 c 0
 307.900390625 660.5 334.099609375 653.099609375 360.299804688 641.299804688 c 0
 414.400390625 617.099609375 455.400390625 575.5 470.400390625 529.5 c 0
 487 478.599609375 478.799804688 411.099609375 448.900390625 352 c 0
 412.599609375 280.200195312 350.599609375 230.900390625 275.200195312 214 c 0
 270.599609375 213 266.599609375 211.900390625 266.299804688 211.599609375 c 0
 266 211.299804688 267.599609375 193.599609375 269.799804688 172.299804688 c 0
 276.799804688 106.799804688 278.5 85.900390625 279.599609375 50 c 0
 280.299804688 25.7998046875 279.599609375 19.900390625 275 10.400390625 c 0
 271.099609375 2.5 262.200195312 -6.099609375 253.299804688 -10.2998046875 c 0
 246.900390625 -13.2998046875 245.900390625 -13.5 235 -13.5 c 0
 224.099609375 -13.5 223.099609375 -13.2998046875 216.799804688 -10.2998046875 c 0
 207.900390625 -6.099609375 202.700195312 -1.7998046875 197.900390625 5.2998046875 c 0
 192.200195312 14 190 22 190 34.900390625 c 0
 190 48.599609375 188.400390625 78.7001953125 186.400390625 101.599609375 c 0
 184.299804688 126.5 175.400390625 211 174.799804688 211.599609375 c 0
 174.5 211.799804688 169.799804688 213.099609375 164.400390625 214.5 c 0
 135.599609375 221.5 109.299804688 234.099609375 85.900390625 252.200195312 c 0
 51.2001953125 279 33.2998046875 310.5 27.400390625 355 c 0
 25.099609375 372.900390625 25.900390625 403.400390625 29.5 426.900390625 c 0
 33.7001953125 455.299804688 47.2001953125 515.900390625 53.400390625 534.299804688 c 0
 60.400390625 555.299804688 70.7001953125 575.400390625 84.099609375 594.5 c 0
 92.5 606.400390625 115.900390625 629.700195312 128 638.299804688 c 0
 139 646.099609375 159.799804688 656.599609375 172 660.599609375 c 0
 176.700195312 662.099609375 180.799804688 663.700195312 181.099609375 664.299804688 c 0
 181.5 664.799804688 182 667.299804688 182.400390625 669.900390625 c 0
 183.799804688 679.900390625 190.400390625 705.799804688 192.700195312 710.400390625 c 0
 196 716.900390625 204.700195312 726 210.900390625 729.299804688 c 0
 213.5 730.799804688 218.099609375 732.599609375 221.099609375 733.400390625 c 0xd0
280.5 572.900390625 m 0
 274.400390625 574 267.700195312 575.099609375 265.400390625 575.400390625 c 2
 261.299804688 576 l 1
 260.400390625 566.700195312 l 2xe0
 259.400390625 556 259.200195312 304 260.200195312 303.400390625 c 0
 261.299804688 302.700195312 279.900390625 309 288.799804688 313.099609375 c 0
 330.099609375 332.200195312 363.799804688 371.200195312 379.5 418.200195312 c 0
 389.299804688 447.700195312 391.5 481.400390625 385 501.200195312 c 0
 380.299804688 515.299804688 368.299804688 530.400390625 352.099609375 542.5 c 0
 334.200195312 555.900390625 304.799804688 568.400390625 280.5 572.900390625 c 0
169.5 432.099609375 m 0
 169.5 500.200195312 169.400390625 556 169.400390625 556 c 1
 168.799804688 556 160.200195312 546 156.700195312 541.200195312 c 0
 151.299804688 533.799804688 143.200195312 518.099609375 139.5 508 c 0
 135.299804688 496.299804688 123.299804688 443.200195312 118.900390625 417 c 0
 117.099609375 406.099609375 116.599609375 399.5 116.599609375 383 c 0
 116.5 360.900390625 117.299804688 355.5 122.5 344.200195312 c 0
 125.400390625 338 134.700195312 327.900390625 144.099609375 320.900390625 c 0
 151.299804688 315.599609375 168 306.599609375 168.900390625 307.599609375 c 0
 169.200195312 307.900390625 169.5 363.900390625 169.5 432.099609375 c 0
EndSplineSet
EndChar
StartChar: uni0425
Encoding: 1061 1061 139
Width: 500
Flags: W
HStem: 658.991 20G<39.1511 54.3357 404.597 428.24>
VStem: 338.706 104.285<22.012 80.738>
LayerCount: 2
Fore
SplineSet
338.706054688 66.4908479642 m 0
 338.706054688 73.1665496491 325.008789062 89.0999753354 325.008789062 106 c 2
 325.008789062 106.186523438 l 1
 299.04296875 162.50390625 268.104492188 217.6953125 234.518554688 272.405273438 c 1
 161.768554688 162.5390625 l 1
 121.356445312 68.2421875 l 2
 119.946289062 64.9521484375 108.69921875 41.0087890625 80.7565078019 41.0087890625 c 0
 55.13671875 41.0087890625 35.0087890625 61.13671875 35.0087890625 85.9605302586 c 0
 35.0087890625 99.0658352732 81.8364901287 204.864517029 84.4560546875 208.8203125 c 2
 181.581054688 355.5 l 1
 180.061788841 357.815858803 49.3196662498 552.771022908 28.5468870551 586.355475648 c 0
 9.2421875 617.56640625 7.0087890625 625.783203125 7.0087890625 634.049007457 c 0
 7.0087890625 658.86328125 27.13671875 678.991210938 51.1655659794 678.991210938 c 0
 57.505859375 678.991210938 77.9599609375 677.58984375 110.954015921 624.246833542 c 0
 111.784340988 622.904408715 111.784340988 622.904408715 235.594726562 437.072265625 c 1
 378.456054688 652.8203125 l 2
 381.655273438 657.65234375 393.577148438 672.991210938 415.616616365 672.991210938 c 0
 440.86328125 672.991210938 460.991210938 652.86328125 460.991210938 628.051471761 c 0
 460.991210938 619.337890625 458.508789062 610.676757812 453.543945312 603.1796875 c 2
 289.182617188 354.958984375 l 1
 360.049175329 243.32258722 397.18152642 171.383832717 417.763317402 115.149183274 c 0
 420.981445312 106.356445312 427.358398438 92.3515625 428.731445312 80.908203125 c 1
 432.25 77.3896484375 442.991210938 66.6484375 442.991210938 48.2805668164 c 0
 442.991210938 23.13671875 422.86328125 3.0087890625 398.063304417 3.0087890625 c 0
 377.413367171 3.0087890625 338.706054688 30.7220036194 338.706054688 66.4908479642 c 0
EndSplineSet
Validated: 1
EndChar
StartChar: uni0427
Encoding: 1063 1063 139
Width: 500
Flags: W
HStem: 603.6 86.9004<118.831 152.353>
VStem: 25.4004 90.1992<388.918 605.124> 302.4 90.2998<75.8555 283.989 437.1 659.24> 313 84.5<42.5 283.989>
LayerCount: 2
Fore
SplineSet
109.299804688 690.5 m 0xe0
 134.599609375 697.299804688 160.599609375 680.099609375 165.099609375 653.799804688 c 0
 167.299804688 640.400390625 162.5 625.700195312 152.599609375 615.599609375 c 0
 147.400390625 610.200195312 138.299804688 604.900390625 132.299804688 603.599609375 c 0
 127.5 602.5 123.5 597.200195312 120.599609375 588.099609375 c 0
 116.299804688 574.599609375 115.5 565.099609375 115.599609375 531.5 c 0
 115.799804688 486.299804688 118.400390625 456.099609375 124.5 428.299804688 c 0
 132.200195312 393.599609375 146.900390625 363.799804688 162.700195312 350.700195312 c 0
 170 344.700195312 175 342.099609375 184.099609375 339.900390625 c 0
 198.400390625 336.200195312 214.799804688 338.299804688 230 345.799804688 c 0
 256 358.5 280.599609375 388.099609375 295 424.299804688 c 2
 300.200195312 437.099609375 l 1
 301.099609375 495.799804688 l 2
 302 556.400390625 301.799804688 575 299.900390625 607.5 c 0
 298.599609375 629.099609375 299.200195312 634 304.200195312 644.099609375 c 0
 317.5 670.700195312 354.299804688 676.700195312 375.299804688 655.599609375 c 0
 385.299804688 645.599609375 388.099609375 637.799804688 390.400390625 612.799804688 c 0
 396.5 549.599609375 398.099609375 494.599609375 395 456.5 c 0
 393.799804688 442.599609375 392.5 337.900390625 392.700195312 269.5 c 0xe0
 392.700195312 240.099609375 393.599609375 200.900390625 395 165 c 0
 396.299804688 133.400390625 397.299804688 92.900390625 397.400390625 75 c 2
 397.5 42.5 l 1
 394.299804688 35.7001953125 l 2
 385.799804688 17.7001953125 366.099609375 7 347.099609375 9.900390625 c 0
 332.599609375 12.2001953125 319.099609375 22.2001953125 313 35.2001953125 c 0xd0
 309.299804688 43.099609375 308 51.7998046875 308 69 c 0
 308 76.400390625 307.5 94.2001953125 307 108.5 c 0
 304.299804688 180.200195312 303 219.599609375 302.400390625 250.299804688 c 0
 302 268.799804688 301.5 284 301.299804688 284 c 0
 301.099609375 284 296.099609375 280.799804688 290.200195312 276.900390625 c 0
 270.400390625 263.799804688 247.299804688 254.299804688 225.5 250.400390625 c 0
 211.5 247.900390625 185.099609375 247.900390625 171.5 250.400390625 c 0
 116.599609375 260.599609375 74.900390625 299.299804688 50.5 362.5 c 0
 34 405.400390625 27.099609375 448.5 25.400390625 521.700195312 c 0
 24.2001953125 571.5 28.2998046875 602.200195312 39.900390625 629 c 0
 53.599609375 660.900390625 77.2998046875 681.799804688 109.299804688 690.5 c 0xe0
EndSplineSet
EndChar
StartChar: uni042C
Encoding: 1068 1068 146
Width: 500
Flags: W
HStem: 6.88631 89.9817<142.922 280.217> 666.991 20G<29.5685 54.4317>
VStem: -2.99118 89.9824<138.815 355.698 508.079 680.481> 22.237 89.9156<465.764 607.268> 328.05 89.9997<153.242 303.727>
LayerCount: 2
Fore
SplineSet
231.11848822 6.8863130928 m 0xe8
 229.616881797 6.8863130928 144.283183704 15.1767774614 85.9448271313 45.2637364608 c 1
 78.4479303251 30.8384020635 63.371402231 21.0088240257 45.997159605 21.0088240257 c 0
 21.1252124248 21.0088240257 1.00561200897 41.1526835598 2.81993237274 215.90148581 c 0
 3.68756508147 299.4687431 21.2959117315 347.376673 21.2959117315 412.488089537 c 0
 21.2959117315 420.026797702 21.0088240257 427.860584443 21.0088240257 429.477283817 c 0
 21.0088240257 432.821150187 22.2369810084 439.213911918 22.2369810084 453.092108822 c 0xd8
 22.2369810084 515.99185117 -2.99117597432 608.740253956 -2.99117597432 636 c 2
 -2.99117597432 642 l 2
 -2.99117597432 666.863343584 17.1368952449 686.991175974 42.0000456607 686.991175974 c 0
 66.8633435843 686.991175974 86.9911759743 666.863104755 86.9911759743 642 c 2
 86.9911759743 638.865461015 l 1
 94.248962703 582.963017346 110.516820141 527.145843344 112.152630554 465.763944248 c 1
 155.172587829 481.536744625 203.895540644 484.991175974 204.842168175 484.991175974 c 0
 246.046824603 484.991175974 361.35880315 439.553930931 404.785404283 303.343589327 c 0
 413.31616204 276.586316182 418.049539937 248.613284603 418.049539937 224.077500518 c 0
 418.049539937 105.702902914 328.206106146 6.8863130928 231.11848822 6.8863130928 c 0xe8
231.153984043 96.8679881151 m 0
 286.765531968 96.8679881151 328.049822567 175.402233071 328.049822567 220.328343462 c 0
 328.049822567 295.295713754 275.519263136 378.336050179 204.255000419 394.484223566 c 1
 120.970119378 384.054521643 133.114462372 367.167501519 107.570030713 357.728241777 c 1
 102.356024332 314.392305133 93.459091899 273.03509003 92.976672391 232.511851358 c 2
 92.1069142735 159.452169486 l 1
 94.1022154448 157.112502175 95.9697597045 154.421932433 97.5460905493 151.492685758 c 0
 120.02830699 109.714680863 229.710553172 96.8679881151 231.153984043 96.8679881151 c 0
EndSplineSet
Validated: 33
EndChar
StartChar: uni042D
Encoding: 1069 1069 145
Width: 500
Flags: W
HStem: 287.9 71.1992<39.0372 75.7204> 298.5 90<110.5 327.398> 577.4 89<148.253 284.57>
LayerCount: 2
Fore
SplineSet
198.5 666.400390625 m 0x60
 220.799804688 669.400390625 248.700195312 667.900390625 269.900390625 662.599609375 c 0
 349.400390625 642.5 409.200195312 569.799804688 425.5 473.5 c 0
 432.900390625 429.900390625 430.5 359.200195312 419.400390625 298.799804688 c 0
 403.200195312 209.700195312 367.900390625 132.900390625 316 73.599609375 c 0
 281 33.7001953125 233.099609375 -0.400390625 194 -13.400390625 c 0
 145.900390625 -29.2998046875 95.7998046875 -26.7001953125 52.400390625 -6 c 0
 32.099609375 3.7001953125 22 18 22 37 c 0
 22 49.599609375 26.900390625 60.7998046875 36.2001953125 69.7001953125 c 0
 42.5 75.5 47.599609375 78.400390625 55.7001953125 80.5 c 0
 67.099609375 83.5 76.2998046875 82.2001953125 89.599609375 76 c 0
 114.599609375 64.2998046875 139.599609375 63.099609375 166.900390625 72.400390625 c 0
 176.099609375 75.599609375 186.5 81.2001953125 199.5 90.099609375 c 0
 259.599609375 131 301.799804688 196.599609375 324 283.5 c 0
 326.099609375 291.700195312 327.799804688 298.599609375 327.700195312 298.599609375 c 0
 327.599609375 298.700195312 321.200195312 297.700195312 313.5 296.400390625 c 0
 284.099609375 291.400390625 257.400390625 290.900390625 215 294.5 c 0
 192.299804688 296.400390625 146.900390625 298.5 126.5 298.5 c 2
 110.5 298.5 l 1x60
 100.400390625 293.700195312 l 2
 94.400390625 290.900390625 87.599609375 288.5 83.900390625 287.900390625 c 0
 65.400390625 284.900390625 45.900390625 295.299804688 37.2998046875 312.799804688 c 0
 34 319.400390625 33.5 321.299804688 33.2001953125 329.599609375 c 0
 32.599609375 341.900390625 35.099609375 350.400390625 41.7998046875 359.099609375 c 0xa0
 51.400390625 371.799804688 71.599609375 381.900390625 96.5 386.599609375 c 0
 104.200195312 388.099609375 111 388.5 126 388.5 c 0
 150.900390625 388.400390625 194.099609375 386.5 218.5 384.400390625 c 0
 229.299804688 383.400390625 247.900390625 382.700195312 261.5 382.599609375 c 0
 284.200195312 382.599609375 286.5 382.700195312 303.5 385.799804688 c 0
 313.400390625 387.5 325.400390625 389.200195312 330.099609375 389.599609375 c 2
 338.799804688 390.299804688 l 1
 339.400390625 394.799804688 l 2
 341.200195312 408.200195312 339 448.099609375 335.5 465.5 c 0
 325.5 515.200195312 296.400390625 556.400390625 261.099609375 571 c 0
 247.5 576.5 242 577.5 223.5 577.400390625 c 0
 207.799804688 577.299804688 205.599609375 577.099609375 194.799804688 574.200195312 c 0
 166 566.599609375 132.700195312 549.900390625 87.7001953125 520.299804688 c 0
 79 514.599609375 70 509 67.7001953125 507.799804688 c 0
 50.5 499.099609375 29.900390625 502.299804688 15.900390625 516 c 0
 1.099609375 530.5 -1.7998046875 554.200195312 9.2998046875 571.599609375 c 0
 13.7001953125 578.700195312 19.900390625 583.700195312 39.2998046875 596.299804688 c 0
 107.299804688 640.299804688 152.799804688 660.299804688 198.5 666.400390625 c 0x60
EndSplineSet
EndChar
StartChar: uni042E
Encoding: 1070 1070 164
Width: 500
Flags: W
HStem: 332.724 90.2218<89.2545 133.92> 650.991 20G<293.22 328.456>
VStem: -10.9912 89.9824<534.157 686.481> -2.91447 89.9833<22.6926 333.92 422.946 679.819>
LayerCount: 2
Fore
SplineSet
-10.9911759743 22 m 0xe0
 -10.9911759743 35.54121475 -3.11277282904 128.610606304 -3.11277282904 190.370908255 c 0
 -3.11277282904 198.597466579 -2.91446838955 241.418604308 -2.91446838955 241.814925923 c 0xd0
 -2.91446838955 242.075153125 -2.99996370153 260.934868331 -2.99996370153 273.196375634 c 0
 -2.99996370153 360.31099175 1.31559107596 492.706025385 1.31559107596 531.453481355 c 0
 1.31559107596 589.269274405 -10.9911759743 638.907580519 -10.9911759743 640 c 2
 -10.9911759743 648 l 2
 -10.9911759743 672.863343584 9.13689524494 692.991175974 34.0000456607 692.991175974 c 0
 58.8633435843 692.991175974 78.9911759743 672.863104755 78.9911759743 648 c 2
 78.9911759743 645.525082189 l 1xe0
 88.4259866806 606.177625585 91.3140481575 566.51089499 91.3140481575 531.353252285 c 0
 91.3140481575 510.529513686 90.3008734399 470.412545575 89.2545372554 422.945925782 c 1
 109.149128771 424.071751872 123.517875642 424.884251388 133.919744318 425.470625668 c 1
 159.031656824 578.119310828 260.440586565 670.991175974 326 670.991175974 c 0
 330.912222972 670.991175974 346.12696527 670.991175974 372.8139861 641.578782063 c 0
 440.187147139 567.32523521 454.14851059 445.064955321 464.129017503 357.665212957 c 0
 470.991175974 297.572986413 470.991175974 297.572986413 470.991175974 296 c 0
 470.991175974 158.934976139 446.253503832 89.876043014 405.443626083 49.0661652654 c 0
 381.554255176 25.1767943584 350.198622012 9.00882402568 333.492112391 9.00882402568 c 0
 317.164676381 9.00882402568 270.819066383 24.4514102192 230.74241091 64.5280656921 c 0
 162.483528026 132.786948576 141.82874039 243.088865509 132.260204275 335.252901975 c 1
 112.715639029 334.146697705 98.2594508828 333.32882176 87.5458378709 332.724122358 c 1
 87.2035415661 308.950850822 86.9824403494 285.53731101 86.9824403494 271.037367559 c 0
 86.9824403494 261.9761236 87.0687847466 242.007453541 87.0687847466 241.819283894 c 0xd0
 87.0687847466 241.544641478 86.8848472627 200.273740631 86.8848472627 191.450553767 c 0
 86.8848472627 161.593054501 88.9911759743 140.598914792 88.9911759743 140 c 0
 88.9911759743 138.082723056 88.9911759743 138.082723056 88.9911586155 138.082518222 c 0
 76.8602400418 -5.06232094773 57.4347254706 -22.9911759743 33.9840311036 -22.9911759743 c 0
 9.13665641574 -22.9911759743 -10.9911759743 -2.86310475506 -10.9911759743 22 c 0xe0
311.419022339 572.569705907 m 1
 251.862631556 535.813894985 213.973999939 424.633076544 220.519853738 357.055923054 c 0
 229.919242214 260.019854541 251.07631647 138.999856635 330.017951083 102.783378131 c 1
 393.449283984 143.921783334 378.622887959 313.3078958 377.9183693 319.477396992 c 0
 366.595591105 418.631468595 355.691107229 508.32503895 311.419022339 572.569705907 c 1
EndSplineSet
Validated: 33
EndChar
StartChar: uni0431
Encoding: 1073 1073 147
Width: 500
Flags: W
HStem: 622.6 86.7002<267.877 450.174>
VStem: 165.2 92.2998<523.872 606.294>
LayerCount: 2
Fore
SplineSet
370.5 709.299804688 m 0
 373.799804688 709.5 386 709.700195312 397.599609375 709.799804688 c 0
 420.700195312 710 425.099609375 709.299804688 434.599609375 703.900390625 c 0
 441.599609375 699.900390625 449.5 691.299804688 453.099609375 683.599609375 c 0
 464.299804688 659.599609375 449.5 631.200195312 422.400390625 624.599609375 c 0
 418.799804688 623.700195312 408.200195312 623 395 622.599609375 c 0
 331.799804688 620.900390625 285 612.599609375 265.299804688 599.5 c 0
 258 594.599609375 256.599609375 591.200195312 257.5 580.599609375 c 0
 260.200195312 549.5 277.400390625 519.200195312 315 479.299804688 c 2
 322.700195312 471.200195312 l 1
 337.099609375 469.5 l 2
 354.400390625 467.400390625 364.799804688 464.900390625 370.900390625 461.299804688 c 0
 378.700195312 456.799804688 384.799804688 450.299804688 388.700195312 442.299804688 c 0
 391.900390625 435.799804688 392.400390625 433.700195312 392.799804688 426.200195312 c 0
 393.099609375 419.200195312 392.799804688 416.299804688 391 411.099609375 c 2
 388.900390625 404.700195312 l 1
 391.700195312 401.599609375 l 1
 429.700195312 360.400390625 451 326.900390625 463 289.5 c 0
 486 217.599609375 472.700195312 133.700195312 427.5 66 c 0
 394.5 16.5 349.5 -15.099609375 296.400390625 -26.099609375 c 0
 282 -29.099609375 250.599609375 -29.7998046875 235 -27.599609375 c 0
 210.700195312 -24 189.299804688 -17.2998046875 166.5 -6.099609375 c 0
 125.400390625 14.099609375 92.099609375 45.2998046875 64.400390625 89.5 c 0
 51.099609375 110.799804688 36 143.799804688 27.599609375 169.5 c 0
 3.2001953125 245.099609375 25.7998046875 327.599609375 88.400390625 391.900390625 c 0
 120.400390625 424.599609375 158.099609375 446.900390625 203.599609375 460 c 1
 210.799804688 462 l 1
 201.400390625 476.099609375 l 2
 178.200195312 510.799804688 166.400390625 544.700195312 165.200195312 579.799804688 c 0
 164.700195312 597.599609375 165.799804688 606.400390625 170.200195312 619 c 0
 184.400390625 659.200195312 223.299804688 686.5 284.5 699 c 0
 304.700195312 703.200195312 344.599609375 707.900390625 370.5 709.299804688 c 0
302.099609375 364.299804688 m 2
 282.5 384 l 1
 276 383.900390625 l 2
 243.599609375 383.200195312 201.400390625 368.900390625 176 349.900390625 c 0
 133 317.799804688 106.700195312 265.700195312 111 221.099609375 c 0
 112.799804688 202.599609375 119.400390625 182.299804688 132.5 155.5 c 0
 156 107.700195312 187.900390625 76.7998046875 227.200195312 63.900390625 c 0
 266.400390625 51.099609375 300.700195312 59.599609375 330.400390625 89.5 c 0
 342.400390625 101.5 351.400390625 114.299804688 360.299804688 132 c 0
 388.599609375 188.200195312 388.700195312 246.700195312 360.599609375 294.400390625 c 0
 348.900390625 314.299804688 333.400390625 332.700195312 302.099609375 364.299804688 c 2
EndSplineSet
EndChar
StartChar: uni0432
Encoding: 1074 1074 148
Width: 500
Flags: W
VStem: 112 90.5<93.5003 207.995> 384.4 88.6992<155.816 333.18>
LayerCount: 2
Fore
SplineSet
323 735.900390625 m 0
 345.299804688 738.400390625 373.400390625 735.799804688 392 729.5 c 0
 419.5 720.099609375 439.299804688 699 446 672 c 0
 448.799804688 661 449.599609375 643 448 630.400390625 c 0
 445.5 610.5 438 585.400390625 424 550.5 c 0
 420 540.599609375 413.5 522.799804688 409.5 510.900390625 c 0
 405.5 499 400.299804688 484.900390625 398 479.400390625 c 0
 393.099609375 468 381 443.599609375 377.299804688 437.799804688 c 0
 376 435.599609375 375 433.700195312 375.200195312 433.599609375 c 0
 375.400390625 433.400390625 379.900390625 431 385.400390625 428.200195312 c 0
 434.400390625 402.599609375 464.599609375 353.799804688 473.099609375 286.5 c 0
 474.799804688 273.799804688 474.700195312 233.700195312 473.099609375 220.5 c 0
 463.900390625 145.299804688 439.5 91.599609375 393 43.599609375 c 0
 343.200195312 -7.7001953125 284.5 -29.2001953125 231.5 -15.5 c 0
 197.700195312 -6.7001953125 167.799804688 15 147.400390625 45.599609375 c 0
 124.099609375 80.5 112.099609375 131.099609375 112 194.299804688 c 0
 112 201.799804688 111.799804688 208 111.599609375 208 c 0
 111.299804688 208 100.299804688 202.299804688 87 195.400390625 c 0
 60.7001953125 181.599609375 55.2998046875 179.299804688 46.7998046875 177.900390625 c 0
 34.2998046875 175.900390625 19.2998046875 180.900390625 9.599609375 190.299804688 c 0
 0.5 199.299804688 0 200.900390625 0 222.799804688 c 2
 0 241.599609375 l 1
 3 246.299804688 l 2
 8.7001953125 255.299804688 14 259.200195312 35.2998046875 270.099609375 c 0
 60.2001953125 282.799804688 83.099609375 295.099609375 101.5 305.799804688 c 2
 115.599609375 313.900390625 l 1
 116.799804688 332.299804688 l 2
 119.900390625 379.900390625 126.700195312 436.400390625 135.599609375 489 c 0
 139.700195312 513.299804688 150.099609375 565.5 153.5 579.099609375 c 0
 164.900390625 624.200195312 190 664.299804688 225 693.5 c 0
 252.200195312 716.200195312 288.799804688 732 323 735.900390625 c 0
358.299804688 645.099609375 m 0
 356.5 646.900390625 335.5 647.200195312 326.799804688 645.5 c 0
 302.599609375 640.900390625 279.599609375 625.900390625 263 603.799804688 c 0
 247.700195312 583.5 243.200195312 571.299804688 233.5 522.900390625 c 0
 223.599609375 474.200195312 210.200195312 385.5 212.299804688 383.299804688 c 0
 213.799804688 381.799804688 244 410.5 259.400390625 428 c 0
 291.599609375 464.5 311.400390625 498.900390625 324.400390625 540.5 c 0
 326.5 547.099609375 332.700195312 564 338.200195312 578 c 0
 350.200195312 608.599609375 355.299804688 623.599609375 357.700195312 635.200195312 c 0
 359 641.599609375 359.099609375 644.299804688 358.299804688 645.099609375 c 0
327.099609375 354.599609375 m 0
 316.200195312 356.900390625 316.400390625 357 306.5 346.900390625 c 0
 280.799804688 320.900390625 246.700195312 292.799804688 210.900390625 268.200195312 c 2
 203.200195312 262.900390625 l 1
 202.5 234.200195312 l 2
 200.599609375 162.900390625 204.799804688 128.900390625 218.799804688 101.599609375 c 0
 227.200195312 85.2998046875 242.200195312 73.400390625 257.700195312 71 c 0
 295.299804688 64.900390625 353.099609375 118.400390625 372.099609375 176.799804688 c 0
 380.900390625 203.900390625 384.400390625 225.900390625 384.400390625 254.5 c 0
 384.400390625 277.5 382.900390625 288.400390625 377.400390625 305 c 0
 373.5 316.599609375 369.900390625 323.700195312 363.400390625 332.200195312 c 0
 355.299804688 342.700195312 340.799804688 351.700195312 327.099609375 354.599609375 c 0
EndSplineSet
EndChar
StartChar: uni0433
Encoding: 1075 1075 152
Width: 500
Flags: W
HStem: 380.009 93.9824<53.2654 77.0281 168.742 434.105>
VStem: 64.0088 89.8489<28.4336 246.753> 77.0281 90.0559<197.045 377.365>
LayerCount: 2
Fore
SplineSet
377 473.991175974 m 0xa0
 377.846297731 473.991175974 445.991175974 469.350003681 445.991175974 424.976727726 c 0
 445.991175974 400.136656416 425.863104755 380.008824026 401 380.008824026 c 0
 397.250134425 380.008824026 397.250134425 380.008824026 375.13317848 383.69498335 c 1
 304.111275607 377.986425191 239.621248123 380.59304798 167.084053036 377.364736008 c 1xa0
 164.290746015 305.016876039 155.998548661 91.3549506992 155.857690874 89.5237994603 c 2
 153.857690874 63.5237994603 l 2
 152.058181653 40.1301795952 132.561866136 22.0088240257 108.984843261 22.0088240257 c 0
 84.1366564157 22.0088240257 64.0088240257 42.1368952449 64.0088240257 63.8560590521 c 0xc0
 64.0088240257 68.7408942319 65.0269713753 68.6819218546 66.0765677902 95.6215631707 c 2
 77.0281319008 376.711708677 l 1
 55.9726225034 380.470623709 40.0088240257 398.857585558 40.0088240257 421.119010146 c 0
 40.0088240257 448.213873259 63.6573596522 468.530518261 96.872798227 468.530518261 c 0
 103.678393501 468.530518261 107.297730254 467.677606219 125.727612728 463.334526321 c 1
 148.501686405 471.523713574 287.901029735 466.425166203 369.677665291 473.525928587 c 0
 374.383651208 473.934554933 375.691825604 473.991175974 377 473.991175974 c 0xa0
EndSplineSet
Validated: 1
EndChar
StartChar: uni0434
Encoding: 1076 1076 149
Width: 500
Flags: W
HStem: -142.9 88.5<94.2056 215.241> 375.9 88.6992<213.993 313.734>
VStem: 336.6 114<229.4 326.1> 357.7 90.2998<-3.13051 87.586>
LayerCount: 2
Fore
SplineSet
237.5 464.599609375 m 0xd0
 249.400390625 466.599609375 281.700195312 465.700195312 294 463.200195312 c 0
 319.5 457.799804688 342.299804688 447.700195312 361.599609375 432.900390625 c 0
 364.400390625 430.799804688 366.900390625 429 367.299804688 429 c 0
 367.599609375 429 370.5 430.599609375 373.700195312 432.5 c 0
 391.599609375 443.099609375 413.5 440.700195312 429 426.299804688 c 0
 441.700195312 414.5 446.900390625 399.700195312 450.599609375 364.5 c 0xe0
 453 340.900390625 453.099609375 301.200195312 450.700195312 290 c 0
 444.799804688 262.5 440.599609375 246.5 434.400390625 227.900390625 c 2
 431 217.400390625 l 1
 433.5 197.900390625 l 2
 434.900390625 187.200195312 437.799804688 164.799804688 440 148 c 0
 445.400390625 107.5 448 81.2998046875 448 68.7001953125 c 0
 448 18.599609375 430.299804688 -32.2998046875 399.5 -70.5 c 0
 366.599609375 -111.400390625 321.799804688 -137.5 268.5 -146.900390625 c 0
 230.200195312 -153.599609375 188.099609375 -152.299804688 135 -142.900390625 c 0
 114.900390625 -139.299804688 107.099609375 -136 99.099609375 -127.5 c 0
 82.2001953125 -109.700195312 82.599609375 -82.2998046875 99.900390625 -64.900390625 c 0
 112.599609375 -52.2001953125 124.700195312 -49.7001953125 151.5 -54.400390625 c 0
 183.900390625 -59.900390625 189.299804688 -60.400390625 216.5 -60.5 c 0
 245.099609375 -60.5 251.400390625 -59.7001953125 270.5 -53.900390625 c 0
 290.599609375 -47.7001953125 305.5 -38.7998046875 320.099609375 -24.099609375 c 0
 331.099609375 -13 338.299804688 -2.900390625 345.099609375 11.400390625 c 0
 354.400390625 30.900390625 358.700195312 52.2998046875 357.700195312 74.2998046875 c 0
 357.400390625 81.400390625 357 87.400390625 356.700195312 87.599609375 c 0
 356.5 87.7998046875 351.599609375 83.400390625 345.799804688 77.7001953125 c 0
 324.599609375 57 303.400390625 41.7001953125 278.5 29.5 c 0
 262.599609375 21.599609375 241.099609375 13.900390625 228.299804688 11.400390625 c 0
 204 6.7998046875 178.099609375 9.599609375 155 19.5 c 0
 102.900390625 41.7998046875 60.900390625 100.900390625 48.400390625 169.5 c 0
 45.900390625 183.599609375 45.2998046875 218.299804688 47.400390625 235 c 0
 55.400390625 298.700195312 86.5 357.5 138.799804688 408.099609375 c 0
 175.700195312 443.900390625 201.599609375 458.700195312 237.5 464.599609375 c 0xd0
280 374 m 0
 274.099609375 375.400390625 268.299804688 376 261 375.900390625 c 0
 243.700195312 375.799804688 236.299804688 373 219.799804688 359.799804688 c 0
 177.900390625 326.400390625 148.900390625 282.599609375 138.900390625 237.700195312 c 0
 136 224.700195312 135.200195312 196.900390625 137.400390625 184.400390625 c 0
 143.5 149.200195312 165.099609375 114.900390625 188.599609375 103.400390625 c 0
 195.900390625 99.7998046875 197 99.5 205 99.599609375 c 0
 212.299804688 99.599609375 214.900390625 100.099609375 223.5 103.400390625 c 0
 237.099609375 108.599609375 244.799804688 112.599609375 257.299804688 120.900390625 c 0
 287.099609375 140.900390625 316 177.5 334.599609375 218.900390625 c 2
 339.299804688 229.400390625 l 1
 337.900390625 245.400390625 l 2
 337.200195312 254.299804688 336.599609375 276 336.599609375 293.799804688 c 2
 336.5 326.099609375 l 1
 332.200195312 329.5 l 2
 326.599609375 333.900390625 322.700195312 338.799804688 318.299804688 347.200195312 c 0
 311.5 360.099609375 297.799804688 369.700195312 280 374 c 0
EndSplineSet
EndChar
StartChar: uni0436
Encoding: 1078 1078 151
Width: 500
Flags: W
VStem: 161.4 88.5996<-2.7895 124.191> 222.3 82.7998<358.262 500.019>
LayerCount: 2
Fore
SplineSet
251.400390625 505.599609375 m 0x40
 261.700195312 507.900390625 274.900390625 505.700195312 284 500.200195312 c 0
 290.099609375 496.400390625 298 487.799804688 301 481.5 c 0
 302.599609375 478.099609375 304.400390625 472.200195312 305.099609375 468.299804688 c 0x40
 306.400390625 460.400390625 306 457 301.200195312 439 c 0
 299.5 432.700195312 297.5 422.599609375 296.599609375 416.5 c 0
 295 405.700195312 290.900390625 358.799804688 291.5 358.200195312 c 0
 291.900390625 357.700195312 316.900390625 384.900390625 328.900390625 398.900390625 c 0
 348.799804688 422 366.099609375 445.400390625 381.200195312 469.400390625 c 0
 392.299804688 487.099609375 394.599609375 489.900390625 401.200195312 494.299804688 c 0
 429 512.700195312 465.799804688 496.700195312 471.099609375 463.900390625 c 0
 473 452 470.400390625 442.299804688 461.400390625 427.799804688 c 0
 426.200195312 370.700195312 378.099609375 314.099609375 316.299804688 256.700195312 c 2
 300.099609375 241.700195312 l 1
 303 238.099609375 l 2
 304.599609375 236.099609375 316.400390625 221.200195312 329.200195312 205 c 0
 368.799804688 154.799804688 367.900390625 155.799804688 417.799804688 106.700195312 c 0
 441.200195312 83.7001953125 443.599609375 80.599609375 446.5 69.2998046875 c 0
 451.799804688 48.900390625 441.799804688 28 422.099609375 18.2001953125 c 0
 414.799804688 14.599609375 414.400390625 14.5 403 14.5 c 0
 391.599609375 14.5 391.299804688 14.599609375 383.900390625 18.2001953125 c 0
 375.400390625 22.5 365.599609375 30.7001953125 354.299804688 43 c 0
 350 47.7001953125 342 55.7001953125 336.5 60.7001953125 c 0
 314.799804688 80.5 297.200195312 100.099609375 269.5 135.5 c 2
 258.5 149.400390625 l 1
 257.299804688 140.5 l 2
 253.299804688 110.700195312 250 68.400390625 250 46 c 0
 250 23.7001953125 246.599609375 13.2001953125 236.099609375 3 c 0
 217.900390625 -14.7001953125 190.099609375 -14.2998046875 172.599609375 4 c 0
 166.700195312 10.2001953125 163.400390625 15.900390625 161.400390625 23.5 c 0x80
 158.900390625 32.5 159.900390625 72.599609375 163.5 110.5 c 0
 164.200195312 118.200195312 164.700195312 124.599609375 164.599609375 124.700195312 c 0
 164.5 124.799804688 158.599609375 119.700195312 151.5 113.400390625 c 0
 122 87.2001953125 101.799804688 72.5 81 62 c 0
 60 51.5 49.7998046875 48.900390625 38 51 c 0
 18.400390625 54.5 4.2001953125 69 0.900390625 88.7001953125 c 0
 -2.099609375 106.700195312 8 126.799804688 24.099609375 134.700195312 c 0
 26.5 136 32.5 138.799804688 37.400390625 141 c 0
 53.099609375 148.099609375 66.2001953125 157.900390625 97.7998046875 186.200195312 c 0
 105.700195312 193.200195312 124.900390625 209.799804688 140.599609375 223.099609375 c 2
 169.099609375 247.200195312 l 1
 155.299804688 261.299804688 l 2
 147.700195312 269.099609375 123.5 295.799804688 101.5 320.5 c 0
 59.2998046875 368 53 374.799804688 30.400390625 398 c 0
 22.599609375 406 15.2998046875 414.400390625 14.099609375 416.700195312 c 0
 0.099609375 444.5 16.400390625 477 46.900390625 482.200195312 c 0
 55.900390625 483.700195312 64.2998046875 482.400390625 73.7998046875 478 c 0
 79.7001953125 475.299804688 82.900390625 472.5 99.5 455.700195312 c 0
 120.099609375 434.900390625 131.200195312 422.799804688 172.400390625 376.200195312 c 0
 187.099609375 359.5 199.400390625 346 199.599609375 346.299804688 c 0
 199.799804688 346.5 201.099609375 361 202.5 378.599609375 c 0
 203.900390625 396.099609375 205.5 414.599609375 206.099609375 419.5 c 0
 209.099609375 445 216.700195312 475.5 222.299804688 484.900390625 c 0
 228.400390625 495.099609375 239.299804688 502.799804688 251.400390625 505.599609375 c 0x40
EndSplineSet
EndChar
StartChar: uni0437
Encoding: 1079 1079 154
Width: 500
Flags: W
HStem: -33.827 90.2422<151.036 303.3> 215.026 90.4314<172.881 308.706>
VStem: 44.0088 88.1038<341.43 395.79> 348.011 89.9929<96.5725 180.26>
LayerCount: 2
Fore
SplineSet
166.008824026 260.053415709 m 0
 166.008824026 269.064242915 169.250619807 305.457089845 221.624654918 305.457089845 c 0
 225.362749438 305.457089845 255.759640069 305.015416414 263.025707799 304.841040588 c 0
 282.288167132 304.378767541 348.194698406 312.713087508 342.7406939 350.799527873 c 0
 336.957859391 391.182256085 268.466215509 419.530010636 216.768742405 422.855281834 c 1
 187.405736663 418.55450934 143.577955307 400.573985656 132.112585826 366.988548041 c 0
 125.488125734 347.583557079 108.613467164 335.008824026 88.9784507453 335.008824026 c 0
 64.1366564157 335.008824026 44.0088240257 355.136895245 44.0088240257 377.806067899 c 0
 44.0088240257 397.569381756 59.3071955 429.471008457 85.5064944506 455.670307408 c 0
 139.631397631 509.795210588 213.688508415 512.991175974 223.571682059 512.991175974 c 0
 277.430757749 512.991175974 422.597387958 468.868034853 435.576820957 352.237508669 c 0
 435.898533041 349.346669782 435.991175974 347.673334891 435.991175974 346.034846879 c 0
 435.991175974 338.51813682 434.041415075 288.331358566 383.251828286 250.71247915 c 1
 405.055305724 231.819277267 438.003629182 193.388020766 438.003629182 142.276573029 c 0
 438.003629182 43.3351592635 340.729674729 -33.8269655324 216.797382299 -33.8269655324 c 0
 180.179656181 -33.8269655324 143.863831768 -26.3919169406 124.304134092 -16.2132064305 c 0
 106.857094132 -7.13390612837 70.4031426211 20.9572470721 64.161826235 27.1985634582 c 0
 58.399280966 32.9611087272 54.0088240257 44.4805543636 54.0088240257 56.0632037543 c 0
 54.0088240257 80.8633435843 74.1368952449 100.991175974 98.9442590288 100.991175974 c 0
 108.634510399 100.991175974 118.269020797 97.9199917896 126.301348665 91.7776234201 c 2
 156.888220093 68.3876629161 l 1
 173.118630263 60.7607555297 195.021346229 56.4151904621 217.709616056 56.4151904621 c 0
 273.649196477 56.4151904621 339.571019453 82.8320939361 348.010766758 135.220841251 c 1
 347.019364577 191.406973916 273.11170546 215.025685418 225.116474829 215.025685418 c 0
 223.740140421 215.025685418 219.125767609 215.006262791 214.012828674 215.006262791 c 0
 173.150260925 215.006262791 166.008824026 248.514661753 166.008824026 260.053415709 c 0
EndSplineSet
Validated: 33
EndChar
StartChar: uni0438
Encoding: 1080 1080 153
Width: 500
Flags: W
VStem: 23.2998 101<168.104 445.189> 327.4 89.5996<359.584 443.07> 338.6 85.4004<20.9422 245.504>
LayerCount: 2
Fore
SplineSet
64.099609375 468.400390625 m 0xa0
 84.7001953125 474 106 464 115.700195312 444.200195312 c 0
 120.599609375 434.400390625 121.299804688 423.599609375 118.099609375 410.299804688 c 0
 110.5 378.5 111.200195312 356.900390625 122.700195312 271.5 c 0
 123.599609375 264.599609375 124.299804688 252.900390625 124.299804688 244 c 0
 124.299804688 221.200195312 122 205 111.900390625 153.099609375 c 0
 105.799804688 121.900390625 105.400390625 119 106.799804688 119 c 0
 108 119 119.200195312 131.599609375 127.700195312 142.5 c 0
 131.599609375 147.5 141.599609375 161.599609375 150 174 c 0
 184 223.900390625 193.5 235.5 240.799804688 284.299804688 c 0
 251.299804688 295.099609375 265 309.5 271.099609375 316.299804688 c 0
 308.5 357.400390625 324.099609375 385.599609375 327.400390625 418.099609375 c 0
 328.299804688 426.599609375 331.5 438.5 334.299804688 443.299804688 c 0
 343.799804688 459.5 364.400390625 468.200195312 382.900390625 463.900390625 c 0
 399.799804688 460 413.799804688 445.200195312 417 428 c 0xc0
 417.599609375 424.599609375 417.900390625 396.799804688 417.700195312 355.5 c 0
 417.599609375 309.900390625 417.900390625 282.099609375 418.799804688 268.5 c 0
 419.5 257.5 421.400390625 228.299804688 423 203.5 c 0
 426.900390625 143 427.799804688 124.799804688 428.599609375 89.5 c 0
 429.400390625 56 428.700195312 49.2001953125 424 39.099609375 c 0
 409.700195312 8.900390625 367.400390625 5.099609375 347.400390625 32.2001953125 c 0
 339.900390625 42.400390625 339.200195312 46.2998046875 338.599609375 84.5 c 0
 338.299804688 102.700195312 337.5 126.099609375 337 136.5 c 0
 335.200195312 169.400390625 330 245.299804688 329.599609375 245.700195312 c 0
 328.799804688 246.5 278.5 194 265.200195312 178.599609375 c 0
 253 164.5 246.799804688 156.099609375 228 128.5 c 0
 194.099609375 78.7001953125 175.700195312 57.2001953125 151.299804688 38.900390625 c 0
 122.700195312 17.400390625 88.2001953125 6.7998046875 63.5 11.900390625 c 0
 46 15.5 29 28.7998046875 21.2001953125 45 c 0
 14.099609375 59.5 11.2998046875 75.2998046875 12.2998046875 95.5 c 0
 13.2998046875 114.799804688 15.2998046875 128.099609375 25 177.5 c 0
 27.7001953125 191.299804688 30.7998046875 208.599609375 31.7998046875 216 c 0
 35.599609375 241.5 35.599609375 242.599609375 30.099609375 286 c 0
 24.099609375 333.799804688 22.5 354.099609375 23.2998046875 376 c 0
 24.400390625 404.700195312 29.2998046875 433 35.599609375 445.799804688 c 0
 40.599609375 456.099609375 52.099609375 465.200195312 64.099609375 468.400390625 c 0xa0
EndSplineSet
EndChar
StartChar: uni0439
Encoding: 1081 1081 156
Width: 500
Flags: W
HStem: 442.991 20G<351.215 384.268> 485.531 89.9611<203.761 279.417>
VStem: 23.0605 90.1357<126.54 402.915> 42.0088 89.9824<183.224 478.481> 304.009 115.603<110.356 226.832>
LayerCount: 2
Fore
SplineSet
23.060546875 147.702907016 m 0xe8
 23.060546875 150.615124959 29.030444935 310.616125337 42.0087890625 438.307617188 c 1
 42.0087890625 440 l 2
 42.0087890625 464.86328125 62.13671875 484.991210938 87 484.991210938 c 0
 111.86328125 484.991210938 131.991210938 464.86328125 131.991210938 440 c 2
 131.991210938 436 l 2xd8
 131.991210938 433.129599825 113.196289062 222.020593472 113.196289062 149.575974213 c 0
 113.196289062 142.455078125 114.168945312 133.506835938 116.317382812 125.083007812 c 1
 176.176757812 184.486328125 274.391601562 296.442382812 320.533340456 422.028441712 c 0
 325.69140625 436.067382812 336.296875 462.991210938 366.133624391 462.991210938 c 0
 402.40301519 462.991210938 409.482943395 433.01261184 413.100669762 417.694042886 c 0
 415.834960938 406.116210938 419.611328125 392.499023438 419.611328125 375.894495755 c 0
 419.611328125 369.38671875 419.03125 362.419921875 417.39448002 346.000243447 c 0
 410.420898438 276.04296875 413.22265625 195.461914062 397.755859375 112.512695312 c 1
 393.921875 43.4853515625 l 2
 392.598632812 19.669921875 372.916992188 1.0087890625 348.988173331 1.0087890625 c 0
 324.13671875 1.0087890625 304.008789062 21.13671875 304.008789062 39.0405762857 c 0
 304.008789062 93.7128519991 315.729329975 150.778285167 320.362304688 230.5546875 c 1
 295.546875 193.419921875 237.9609375 112.512695312 165.662193601 46.8534403786 c 0
 132.673828125 16.89453125 121.836914062 13.0087890625 112.191129453 13.0087890625 c 0
 68.5556306797 13.0087890625 23.060546875 75.0908783165 23.060546875 147.702907016 c 0xe8
  Spiro
    87 484.991 o
    109.695 478.864 o
    125.864 462.695 o
    131.991 440 [
    131.991 436 ]
    129.325 408.599 o
    122.631 321.477 o
    113.947 159.995 o
    113.671 156.659 o
    113.35 153.696 o
    113.196 149.319 o
    113.527 141.865 o
    114.555 133.577 o
    116.317 125.083 v
    185.694 200.898 o
    261.712 305.962 o
    324.771 433.563 o
    329.297 442.293 o
    342.629 455.93 o
    367 462.991 o
    387.249 458.192 o
    402.839 445.223 o
    411.209 426.381 o
    411.866 423.154 o
    412.693 419.462 o
    413.658 415.334 o
    416.166 404.714 o
    418.554 391.437 o
    419.611 375.896 o
    419.406 369.244 o
    418.741 362.285 o
    417.547 355.08 o
    412.689 275.578 o
    408.171 194.622 o
    397.756 112.513 v
    393.922 43.4854 ]
    387.014 21.9072 o
    370.963 6.71798 o
    349 1.00879 o
    326.305 7.1363 o
    310.136 23.3053 o
    304.009 46 o
    305.027 66.017 o
    307.119 103.494 o
    308.818 126.524 o
    314.182 160.28 o
    317.864 195.039 o
    320.362 230.555 v
    284.435 180.255 o
    225.077 108.756 o
    141.23 24.665 o
    132.008 18.1947 o
    121.742 14.3014 o
    111 13.0088 o
    85.5077 20.4538 o
    56.2455 45.7311 o
    31.9375 92.9531 o
    27.0875 111.078 o
    24.0837 129.431 o
    23.0605 147.707 o
    23.1785 153.793 o
    23.5366 159.866 o
    24.1367 165.882 o
    28.4958 256.343 o
    34.1775 347.53 o
    42.0088 438.308 v
    42.0088 440 ]
    48.1363 462.695 o
    64.3053 478.864 o
    0 0 z
  EndSpiro
249.365573917 485.531037223 m 0
 154.591477238 485.531037223 96.0088240257 578.507909489 96.0088240257 608.043209594 c 0
 96.0088240257 632.863343584 116.136895245 652.991175974 140.984061082 652.991175974 c 0
 158.613331641 652.991175974 173.952880684 642.858784143 181.926333808 626.779100645 c 0
 185.134921569 620.308494387 209.028410685 575.492182736 247.940819207 575.492182736 c 0
 257.410231865 575.492182736 273.253601314 587.172413354 279.781214356 597.335766016 c 0
 287.180244004 608.855895531 301.226091575 616.991175974 317.02012482 616.991175974 c 0
 341.863343584 616.991175974 361.991175974 596.863104755 361.991175974 572 c 0
 361.991175974 539.657852323 308.332985503 485.531037223 249.365573917 485.531037223 c 0
  Spiro
    317 616.991 o
    339.695 610.864 o
    355.864 594.695 o
    361.991 572 o
    361.082 562.75 o
    354.688 547.511 o
    337.38 526.111 o
    319.925 511.126 o
    301.059 499.182 o
    281.41 490.092 o
    276.709 488.635 o
    265.675 486.573 o
    248.259 485.531 o
    206.387 491.99 o
    169.808 509.093 o
    139.766 533.222 o
    124.476 550.387 o
    111.446 568.793 o
    100.682 587.994 o
    98.0879 594.442 o
    96.527 601.167 o
    96.0088 608 o
    102.136 630.695 o
    118.305 646.864 o
    141 652.991 o
    157.629 649.82 o
    171.518 641.074 o
    181.318 628.006 o
    191.623 610.994 o
    214.249 587.376 o
    247.935 575.492 o
    249.566 575.518 o
    251.208 575.596 o
    252.852 575.726 o
    260.206 579.587 o
    270.231 586.562 o
    279.115 596.298 o
    289.005 607.235 o
    301.974 614.422 o
    0 0 z
  EndSpiro
EndSplineSet
Validated: 1
EndChar
StartChar: uni043B
Encoding: 1083 1083 156
Width: 500
Flags: W
VStem: 345.4 89.1992<-19.83 60.025>
LayerCount: 2
Fore
SplineSet
232.5 479.799804688 m 0
 243.099609375 481.900390625 251.099609375 480.700195312 261.599609375 475.5 c 0
 270.400390625 471.200195312 277.900390625 463.5 282.299804688 454.299804688 c 0
 285.099609375 448.299804688 285.5 446.200195312 285.799804688 437 c 2
 286.200195312 426.5 l 1
 290.099609375 422.299804688 l 2
 296 415.900390625 298.799804688 409.099609375 302.400390625 392.700195312 c 0
 310.200195312 357.599609375 319.099609375 332.5 349.799804688 259 c 0
 374.200195312 200.299804688 385.299804688 169.400390625 392.900390625 137.400390625 c 0
 395.200195312 128.099609375 397.700195312 117.799804688 398.599609375 114.5 c 0
 399.400390625 111.200195312 405.5 97.5 412 84 c 0
 427.799804688 51.5 433.099609375 35.400390625 434.599609375 15.7001953125 c 0
 435.700195312 1.099609375 431.700195312 -10.2998046875 421.799804688 -20.2998046875 c 0
 408.099609375 -34.2001953125 387.799804688 -37.599609375 370 -28.900390625 c 0
 356.700195312 -22.2998046875 348.200195312 -10.2001953125 345.400390625 6.2001953125 c 0
 343.299804688 18.599609375 341.900390625 22.400390625 329.5 48 c 0
 316.200195312 75.599609375 313.200195312 83.7001953125 307.900390625 106.400390625 c 0
 300.900390625 136.5 293.799804688 157.900390625 276.700195312 200 c 0
 266.200195312 225.799804688 254.099609375 254.799804688 254 254 c 0
 254 253.700195312 250.900390625 244.299804688 247.099609375 233 c 0
 221.700195312 157.700195312 178.5 83.2001953125 115.900390625 6.400390625 c 0
 100.799804688 -12.2001953125 95 -18.099609375 89.099609375 -21.2998046875 c 0
 76.099609375 -28.400390625 60.7001953125 -28.900390625 47.900390625 -22.7998046875 c 0
 38.099609375 -18.2001953125 31.2998046875 -11.400390625 26.2998046875 -1.2998046875 c 0
 22.599609375 6.2001953125 22.5 6.599609375 22.5 17.400390625 c 0
 22.599609375 34 23.900390625 36.5 44.599609375 61.5 c 0
 85 110.299804688 120.5 165.099609375 142 212.099609375 c 0
 156.700195312 244 164.5 266.799804688 175.299804688 309 c 0
 190.400390625 367.599609375 194.599609375 391.099609375 196 423.5 c 0
 197.099609375 450.799804688 198.900390625 456.299804688 210.200195312 467.799804688 c 0
 216 473.599609375 224.700195312 478.299804688 232.5 479.799804688 c 0
EndSplineSet
EndChar
StartChar: uni043C
Encoding: 1084 1084 157
Width: 500
InSpiro: 1
Flags: W
VStem: 86.2002 88.5996<392.6 461.235>
LayerCount: 2
Fore
SplineSet
328.700195312 472.400390625 m 0
 336.299804688 474.299804688 341 474.299804688 349.299804688 472.5 c 0
 362.799804688 469.700195312 375.900390625 459.900390625 383.400390625 447 c 0
 396.200195312 425.200195312 404.5 397 414.5 341.5 c 0
 417.599609375 324.5 422.5 299.900390625 425.5 287 c 0
 434.599609375 247.400390625 439.5 221.5 451 153 c 0
 454.900390625 129.599609375 460.099609375 99 462.599609375 85 c 0
 468.400390625 52.900390625 468.400390625 46.2001953125 462.700195312 34.7998046875 c 0
 448.5 6 411 0.7001953125 389.099609375 24.5 c 0
 379.799804688 34.599609375 379 37.7998046875 364.5 125 c 0
 360.299804688 150 354.400390625 184 351.400390625 200.5 c 0
 346.200195312 229.200195312 336.5 274.799804688 335.5 275.799804688 c 0
 334.799804688 276.5 335.5 277.599609375 325 259 c 0
 299.099609375 213.400390625 279.099609375 191.099609375 253.599609375 179.5 c 0
 225.299804688 166.5 193.599609375 169.400390625 166.5 187.5 c 0
 157.299804688 193.599609375 144.5 206.400390625 138.299804688 215.900390625 c 0
 135.799804688 219.599609375 133.900390625 221.700195312 133.599609375 220.900390625 c 0
 133.200195312 219.599609375 119.099609375 142.5 113 108.5 c 0
 111.400390625 99.7001953125 109.200195312 85.7001953125 108.099609375 77.400390625 c 0
 104.5 50.900390625 97.599609375 32.5 87.7998046875 22.599609375 c 0
 77.7998046875 12.7001953125 62.7001953125 7.7001953125 49.2998046875 9.900390625 c 0
 20.599609375 14.7998046875 3.7998046875 44.2001953125 14.2998046875 71.099609375 c 0
 17.7998046875 80.099609375 17.7998046875 80 20 96.7998046875 c 0
 21 105.099609375 24.2001953125 124 26.900390625 138.700195312 c 0
 29.7001953125 153.5 34.900390625 181.700195312 38.5 201.5 c 0
 59.2001953125 314.299804688 70.2998046875 366 86.2001953125 422.5 c 0
 92.099609375 443.599609375 94.2998046875 448.400390625 101.799804688 456.200195312 c 0
 117.400390625 472.599609375 142 474.400390625 160.700195312 460.599609375 c 0
 175.400390625 449.799804688 181.900390625 429.799804688 176.599609375 411.400390625 c 2
 174.799804688 405.299804688 l 1
 178.900390625 392.599609375 l 2
 183.700195312 378 186.700195312 365.200195312 194.400390625 327.5 c 0
 202.200195312 289.299804688 207.400390625 272.700195312 213.900390625 265 c 2
 216.799804688 261.5 l 1
 221.5 266 l 2
 227.5 271.900390625 236.200195312 285 249.900390625 309 c 0
 262.299804688 330.700195312 264.900390625 337.5 271.5 365.5 c 0
 288.299804688 437.5 290.900390625 444.700195312 305 459 c 0
 312 466.099609375 319.099609375 470.099609375 328.700195312 472.400390625 c 0
EndSplineSet
EndChar
StartChar: uni043D
Encoding: 1085 1085 160
Width: 500
InSpiro: 1
Flags: W
VStem: 25 90.9739<285.141 474.422> 37.9877 89.8493<20.6907 196.221 284.842 415.061> 268.057 101.369<363.398 462.039> 281.954 90.0418<94.5624 202.235 291.69 397.311 398.978 464.026>
LayerCount: 2
Fore
SplineSet
25 413 m 0x80
 24.8617013112 416.438217103 19.2550805498 448.364497336 25 457 c 0
 47.8376123536 491.328464312 46.1368951501 480.991175974 71.080023587 480.991175974 c 0
 95.9872258272 480.991175974 116.562165375 460.921282936 116.562165375 434.220002221 c 0
 116.562165375 429.705168444 115.973920823 424.780624544 115.973920823 416.776186779 c 0x80
 115.973920823 380.595101753 127.992674168 318.416044911 127.992674168 303.99998782 c 2
 127.836915957 284.841727928 l 1
 202.575121251 292.991175974 202.849219853 292.991175974 205 292.991175974 c 0
 205.338238609 292.991175974 205.383728595 291.690091609 280.852739758 291.690091609 c 1
 281.473458659 308.124119137 281.954429087 324.433977441 281.954429087 340.437622158 c 0x50
 281.954429087 348.20412592 281.841154709 355.750982044 281.577538151 363.12560203 c 1
 276.309181282 368.850416785 268.057191399 380.572465787 268.057191399 398.129625147 c 0
 268.057191399 416.371164585 276.008824044 425.81731263 276.008824044 430.006871802 c 0
 276.008824044 454.863343747 296.136895295 474.991175974 320.712384121 474.991175974 c 0
 346.519443815 474.991175974 369.426484911 452.795430988 369.426484911 424.703758564 c 0x20
 369.426484911 418.733217798 371.996190407 341.076389241 371.996190407 340.231273621 c 0
 371.996190407 294.378242735 368.164755362 247.04006224 368.164755362 200.95472915 c 0
 368.164755362 165.777577692 370.397079951 127.452613501 381.567582814 92.9419967088 c 1
 395.030415238 85.1349206362 403.991175974 70.5618988287 403.991175974 53.9834999283 c 0
 403.991175974 29.1366564157 383.863104755 9.00882402568 356.025991131 9.00882402568 c 0
 355.287593221 9.00882402568 316.934580434 11.8779476148 298.894797043 55.7885352857 c 0
 283.99261828 92.0618880663 278.131984639 143.681680209 278.131984639 201.37862464 c 0
 278.131984639 202.890619935 211.343605337 203.382848819 127.100426917 194.253576003 c 1
 125.989677736 57.6314266538 l 2
 125.788751119 32.9174528022 105.723781661 13.0088240257 80.9976822104 13.0088240257 c 0
 56.1308432828 13.0088240257 36.0073258321 33.1447352506 36.0073258321 58.0000121804 c 2
 37.9876590261 301.580995046 l 1x50
 26.221833978 404.104542345 25.9357726096 389.735937128 25 413 c 0x80
  Spiro
    25 413 o
    23.6638 424 o
    22.416 442.537 o
    25 457 o
    41.5416 478.466 o
    53.1354 482.399 o
    71.08 480.991 o
    93.9213 474.811 o
    110.317 458.192 o
    116.562 434.22 o
    116.41 429.475 o
    116.126 423.847 o
    115.974 416.776 o
    119.085 374.706 o
    124.882 331.567 o
    127.993 304 [
    127.837 284.842 v
    180.548 290.573 o
    200.657 292.69 o
    205 292.991 o
    208.036 292.654 o
    227.754 292.027 o
    280.853 291.69 v
    281.414 308.06 o
    281.807 324.355 o
    281.954 340.438 o
    281.915 348.125 o
    281.792 355.699 o
    281.578 363.126 v
    275.737 370.834 o
    270.387 382.537 o
    268.057 398.13 o
    270.115 413.558 o
    273.951 423.942 o
    276.009 430.007 o
    282.126 452.697 o
    298.22 468.864 o
    320.712 474.991 o
    344.79 468.209 o
    362.545 450.204 o
    369.426 424.704 o
    370.092 400.375 o
    371.331 361.145 o
    371.996 340.231 o
    371.005 294.031 o
    369.156 247.31 o
    368.165 200.955 o
    369.155 165.023 o
    373.134 128.43 o
    381.568 92.942 v
    393.355 83.0677 o
    401.175 69.7024 o
    403.991 53.9835 o
    397.754 31.3003 o
    380.812 15.1357 o
    356.026 9.00882 o
    344.914 11.3728 o
    321.535 24.1654 o
    298.895 55.7885 o
    286.898 96.7886 o
    280.199 146.103 o
    278.132 201.379 o
    257.735 202.232 o
    203.631 200.491 o
    127.1 194.254 v
    125.99 57.6314 ]
    119.742 35.0985 o
    103.587 19.0741 o
    80.9977 13.0088 o
    58.3016 19.1381 o
    42.1338 35.3088 o
    36.0073 58 [
    37.9877 301.581 v
    29.6046 370.822 o
    26.1666 396.572 o
    0 0 z
  EndSpiro
EndSplineSet
Validated: 33
EndChar
StartChar: uni043E
Encoding: 1086 1086 161
Width: 500
Flags: W
HStem: 14.8771 89.9797<190.615 309.264> 369.009 93.9962<146.999 228.499>
VStem: 31.9038 90.0634<179.115 340.932> 336.936 90.0572<134.365 316.179>
LayerCount: 2
Fore
SplineSet
205.000000014 369.008824084 m 0
 198.869700239 369.008824084 196.242570259 369.998308619 194.12778222 369.998308619 c 0
 191.494316668 369.998308619 185.849691921 370.067455254 177.87600652 369.320619669 c 0
 144.679595721 366.211359695 121.967273076 305.896050143 121.967273076 259.131003361 c 0
 121.967273076 186.593008219 176.612206211 104.856805121 258.707037367 104.856805121 c 0
 262.03563363 104.856805121 266.931190159 104.991175974 267.333860467 104.991175974 c 0
 267.4191636 104.991175974 267.625239621 104.985145717 268.215727226 104.985145717 c 0
 333.4253348 104.985145717 336.936245563 210.771173885 336.936245563 233.556243945 c 0
 336.936245563 259.222627324 330.598829814 330.688794642 263.612383247 369.137934572 c 1
 228.840596657 375.824816609 l 1
 221.573362951 371.280821591 213.286681467 369.008824084 205.000000014 369.008824084 c 0
31.9038437813 260.903698488 m 0
 31.9038437813 352.766094196 84.5447685967 463.004975699 187.408859909 463.004975699 c 0
 190.515494015 463.004975699 195.24745768 463.004975699 199.315378589 462.016976971 c 0
 206.856895904 460.185326434 209.967704753 466.991175974 227 466.991175974 c 0
 232.325426004 466.991175974 289.506297957 457.237907672 303.116745276 450.199286654 c 0
 325.736996225 438.501260129 426.99344343 378.020194213 426.99344343 232.665372572 c 0
 426.99344343 193.734102924 420.509147669 108.224430968 368.499902475 56.2151857704 c 0
 343.159750543 30.8750338361 308.528964478 15.0038618123 268.04402524 15.0038618123 c 0
 267.518123271 15.0038618123 264.756596241 14.8770862638 260.247303777 14.8770862638 c 0
 128.762594546 14.8770862638 31.9038437813 133.707401436 31.9038437813 260.903698488 c 0
EndSplineSet
Validated: 1
EndChar
StartChar: uni043F
Encoding: 1087 1087 162
Width: 500
Flags: W
HStem: 369.522 91.4693<116.285 257.484> 369.522 81.4693<119.383 292.188>
VStem: 28.0096 89.9824<37.5196 369.522> 291.881 90.0716<26.6025 362.335>
LayerCount: 2
Fore
SplineSet
327 450.991175974 m 2x70
 349.874395632 450.991175974 382.23384294 435.327368647 382.23384294 346.695086954 c 0
 382.23384294 337.544050523 381.952974418 329.246138524 381.952974418 321.098890894 c 0
 381.952974418 299.178059358 383.986245503 284.751494757 383.989336304 284.408415757 c 2
 385.993015576 62.000016573 l 2
 385.993015576 37.1444740017 365.868434062 17.0088240257 341.002422153 17.0088240257 c 0
 316.292277979 17.0088240257 296.233174973 36.8928323942 296.010663696 61.5915842426 c 2
 294.040087406 280.325552364 l 1
 292.279732054 292.535134268 291.881383519 304.097785569 291.881383519 314.792925909 c 0
 291.881383519 324.334455623 292.198432428 334.066604885 292.198432428 345.9695097 c 0
 292.198432428 354.532964512 292.034328732 361.103545956 258.636863973 363.637729754 c 0
 234.594129962 365.462081017 175.598447864 366.539883993 116.285419712 369.521867029 c 1
 117.991942169 76.0000044546 l 2
 117.991942169 51.1402114256 97.8656230965 31.0088240257 73.0015690836 31.0088240257 c 0
 48.2372214837 31.0088240257 28.1535282766 50.9790789031 28.0095902321 75.7364225567 c 2
 26.008057831 419.999995545 l 2
 26.008057831 444.859788574 46.1343769035 464.991175974 70.9993368427 464.991175974 c 0
 82.6635996613 464.991175974 89.4747456142 460.991176659 90.6289164661 460.991176338 c 0xb0
 92.6920994374 460.991175762 266.019054481 453.285586307 296.704727089 450.991175974 c 1
 327 450.991175974 l 2x70
EndSplineSet
Validated: 1
EndChar
StartChar: uni0441
Encoding: 1089 1089 198
Width: 500
Flags: W
HStem: 26.9826 93.557<173.818 286.689> 393.509 89.9674<171.704 301.524>
VStem: 33.2069 90.0363<171.662 337.822> 295.599 88.3917<141.895 190.481>
LayerCount: 2
Fore
SplineSet
33.690701042 230.49818078 m 0
 33.690701042 236.19967667 33.20688856 258.002972727 33.20688856 258.280841457 c 0
 33.20688856 375.425010396 113.035889712 483.090486303 227.369297185 483.090486303 c 0
 236.111691484 483.090486303 246.708150828 483.476656177 246.903531336 483.476656177 c 0
 337.015739289 483.476656177 397.991175974 415.415927641 397.991175974 381.945676472 c 0
 397.991175974 357.136656416 377.863104755 337.008824026 353.6007329 337.008824026 c 0
 346.854859903 337.008824026 328.940619258 338.564814089 314.409672595 358.543895378 c 0
 305.856217894 370.304324395 283.164015729 393.509282162 246.148355507 393.509282162 c 0
 240.712361293 393.509282162 238.804690648 393.008824026 235.039464305 393.008824026 c 0
 233.312283343 393.008824026 232.289283389 393.114132001 229.651072458 393.114132001 c 0
 158.050936141 393.114132001 123.243204294 315.548393987 123.243204294 259.90266026 c 0
 123.243204294 251.745545199 123.991175974 240.171313899 123.991175974 238.25990347 c 0
 123.991175974 237.002083791 123.667273681 235.313513862 123.667273681 230.715185169 c 0
 123.667273681 169.214746381 181.606197952 127.566278339 219.700476842 120.539627615 c 0
 238.69951974 117.035173865 271.350457637 117.929078197 287.455708109 134.034328669 c 0
 287.455798486 134.034419046 287.455798486 134.034419046 289.599457571 141.894502357 c 2
 295.599457571 163.894502357 l 2
 300.832045342 183.080657517 318.328620039 196.991175974 339.063203754 196.991175974 c 0
 363.863343584 196.991175974 383.991175974 176.863104755 383.991175974 152 c 0
 383.991175974 125.046933958 352.893775516 26.9825947893 249.875353296 26.9825947893 c 0
 149.659626298 26.9825947893 33.690701042 109.273934087 33.690701042 230.49818078 c 0
EndSplineSet
Validated: 33
EndChar
StartChar: uni0443
Encoding: 1091 1091 164
Width: 500
Flags: W
HStem: -162.2 90.2002<102.595 197.448>
VStem: 37 85.9004<359.891 461.843> 330.9 99.3994<180.247 476.367>
LayerCount: 2
Fore
SplineSet
362.5 486.900390625 m 0
 370.599609375 489.700195312 382.900390625 489.700195312 391 487 c 0
 408.700195312 481 418.900390625 468.5 430.299804688 439 c 0
 451.5 384.200195312 455.099609375 319.599609375 442 229.700195312 c 0
 432.400390625 163.900390625 424.799804688 135.700195312 407.700195312 101.299804688 c 0
 404.700195312 95.2998046875 400.400390625 84.7001953125 398.099609375 77.5 c 0
 384.799804688 37 365.400390625 -2.599609375 344.099609375 -32.5 c 0
 326.200195312 -57.5 298.099609375 -87.400390625 274.5 -106.400390625 c 0
 234.700195312 -138.400390625 192.099609375 -157.5 150.200195312 -162.200195312 c 0
 131 -164.299804688 119.700195312 -160.900390625 108.5 -149.599609375 c 0
 101.400390625 -142.400390625 97.5 -134.900390625 95.7998046875 -125.099609375 c 0
 92.599609375 -106.400390625 103.099609375 -86.099609375 120.099609375 -78 c 0
 126.599609375 -75 130.400390625 -74 144.900390625 -72 c 0
 167.099609375 -68.900390625 193.099609375 -56.2998046875 218 -36.400390625 c 0
 222.700195312 -32.599609375 232.599609375 -23.5 240 -16.099609375 c 2
 253.5 -2.7001953125 l 1
 244.5 -0.900390625 l 2
 224.700195312 3.099609375 201.299804688 12.900390625 184 24.599609375 c 0
 139.5 54.400390625 102.200195312 106.099609375 64.599609375 190.200195312 c 0
 41.2001953125 242.599609375 30 296.900390625 30 358.5 c 0
 30 388.099609375 33.099609375 422.900390625 37 436 c 0
 43.2001953125 457 65 470.799804688 86.5 467.200195312 c 0
 105.799804688 464 120.799804688 449.099609375 124 429.900390625 c 0
 125 424.400390625 124.799804688 420.700195312 122.900390625 406.400390625 c 0
 119.799804688 383.700195312 119.5 335 122.400390625 314.5 c 0
 126.099609375 287.799804688 132.099609375 263.200195312 139.900390625 243.400390625 c 0
 149.099609375 220.099609375 167 183.599609375 180.099609375 161.700195312 c 0
 214.799804688 103.799804688 256.099609375 76.099609375 285.5 91 c 0
 293.900390625 95.2001953125 306.099609375 106.900390625 313.599609375 118 c 0
 318.200195312 124.700195312 319.099609375 127 321.799804688 138.5 c 0
 332.400390625 182.5 337.900390625 225.299804688 342 294.700195312 c 0
 343.900390625 326.700195312 343.700195312 332 337.599609375 374.5 c 0
 330.900390625 421.700195312 329.599609375 435.799804688 330.900390625 446 c 0
 333.599609375 466.5 344.5 480.700195312 362.5 486.900390625 c 0
EndSplineSet
EndChar
StartChar: uni0444
Encoding: 1092 1092 167
Width: 500
InSpiro: 1
Flags: W
HStem: 39.5801 90.6729<151.235 194.889 285.319 333.135> 367.224 89.8311<127.661 200.847>
VStem: -4.30273 89.8926<189.819 326.918> 195.357 89.9619<-166.877 42.5178 134.138 351.44>
LayerCount: 2
Fore
SplineSet
-2.1474609375 279.843608519 m 0
 -2.1474609375 386.065839434 103.536935529 457.0546875 183.552911956 457.0546875 c 0
 190.260742188 457.0546875 197.833984375 456.397460938 206.235351562 454.525390625 c 1
 208.51953125 477.368164062 227.756835938 494.991210938 251.011179042 494.991210938 c 0
 275.86328125 494.991210938 295.991210938 474.86328125 295.991210938 451.801408587 c 0
 295.991210938 444.591167789 347.677602002 434.328257373 400.719869543 381.285989832 c 0
 541.540738761 240.465120614 438.239500473 52.4204107773 284.857421875 39.580078125 c 1
 283.990234375 -130.231445312 l 2
 283.864257812 -155.001953125 263.775390625 -174.991210938 238.998692759 -174.991210938 c 0
 214.133789062 -174.991210938 194.0078125 -154.859375 194.329883688 -68.9710408497 c 0
 194.359375 -61.1064453125 194.649414062 -4.279296875 194.888671875 42.5986328125 c 1
 89.1494140625 56.8876953125 -4.302734375 139.0625 -4.302734375 248.005204661 c 0
 -4.302734375 262.184999869 -2.1474609375 279.524495818 -2.1474609375 279.843608519 c 0
  Spiro
    239 -174.991 o
    216.304 -168.863 o
    200.135 -152.693 o
    194.008 -130 o
    194.339 -65.1113 o
    194.632 -7.62038 o
    194.889 42.5986 v
    96.3398 77.9404 o
    23.7886 149.61 o
    -4.30273 248.058 o
    -4.06544 257.532 o
    -3.34097 267.163 o
    -2.11914 276.886 o
    -2.13515 277.889 o
    -2.14446 278.893 o
    -2.14746 279.892 o
    20.8238 361.597 o
    79.9596 423.078 o
    159.877 454.154 o
    167.87 455.809 o
    175.766 456.756 o
    183.472 457.055 o
    190.516 456.815 o
    198.116 456.012 o
    206.235 454.525 v
    213.679 475.151 o
    229.591 489.587 o
    251 494.991 o
    273.695 488.864 o
    289.864 472.695 o
    295.991 450 o
    295.94 449.185 o
    295.792 447.261 o
    295.557 444.303 o
    323.924 434.724 o
    361.221 413.811 o
    400.288 381.718 o
    435.318 337.849 o
    459.167 285.971 o
    467.991 228 o
    465.721 205.975 o
    450.464 156.61 o
    409.73 97.8398 o
    373.482 69.0699 o
    331.236 49.1643 o
    284.857 39.5801 v
    283.99 -130.231 ]
    277.787 -152.825 o
    261.627 -168.903 o
    0 0 z
  EndSpiro
285.319335938 130.252929688 m 1
 333.532226562 137.984375 373.401367188 177.91796875 377.991210938 229.594726562 c 1
 377.025390625 279.536132812 338.666015625 328.299804688 289.13671875 351.440429688 c 1
 287.4765625 321.639648438 286.130859375 289.256835938 285.985351562 260.6796875 c 2
 285.319335938 130.252929688 l 1
  Spiro
    285.319 130.253 v
    329.714 147.934 o
    362.664 182.632 o
    377.991 229.595 v
    365.555 278.192 o
    333.932 320.702 o
    289.137 351.44 v
    287.616 321.046 o
    286.497 290.258 o
    285.985 260.68 [
    0 0 z
  EndSpiro
184.177970319 367.223632812 m 0
 159.062927125 367.223632812 87.837890625 338.150699187 87.837890625 279.603614653 c 0
 87.837890625 277.017578125 87.9912109375 276.224609375 87.9912109375 274.167113526 c 0
 87.9912109375 266.024414062 85.58984375 260.939453125 85.58984375 248.253001625 c 0
 85.58984375 188.033203125 139.697265625 146.3828125 195.357421875 134.137695312 c 1
 196.020507812 263.424804688 196.033203125 263.657226562 196.073242188 264.408203125 c 2
 201.16015625 360.049804688 l 1
 194.598632812 363.904296875 187.862304688 367.223632812 184.177970319 367.223632812 c 0
  Spiro
    195.357 134.138 v
    195.829 225.148 o
    196.017 259.046 o
    196.073 264.408 [
    201.16 360.05 v
    194.656 363.62 o
    188.67 366.222 o
    183.892 367.224 o
    181.969 366.911 o
    179.266 366.189 o
    174.894 365.394 o
    134.65 350.941 o
    101.526 320.87 o
    87.8379 279.793 o
    87.8776 277.554 o
    87.9515 275.872 o
    87.9912 274 o
    87.3697 266.567 o
    86.2114 258.465 o
    85.5898 247.174 o
    101.649 194.351 o
    142.21 155.713 o
    0 0 z
  EndSpiro
EndSplineSet
Validated: 33
EndChar
StartChar: uni0445
Encoding: 1093 1093 166
Width: 500
Flags: W
VStem: 343.4 86.6992<-5.78499 48.4442>
LayerCount: 2
Fore
SplineSet
390.5 481.599609375 m 0
 420.799804688 489 450.5 461.799804688 445.299804688 431.5 c 0
 443 418.299804688 439.900390625 413.599609375 418.599609375 392.099609375 c 0
 389.599609375 362.599609375 371.5 339.900390625 343.5 298 c 0
 326.700195312 272.900390625 300 229.900390625 300 228.099609375 c 0
 300 227.400390625 308.5 215.799804688 318.799804688 202.200195312 c 0
 329.200195312 188.599609375 352.5 157.700195312 370.700195312 133.5 c 0
 388.900390625 109.299804688 406.900390625 85.5 410.700195312 80.5 c 0
 425.599609375 60.900390625 432.799804688 40.400390625 430.099609375 25.5 c 0
 425.799804688 2.2001953125 406.200195312 -13.2001953125 382.599609375 -11.7998046875 c 0
 364.900390625 -10.7001953125 349.700195312 0.7998046875 343.400390625 17.7001953125 c 0
 342.5 20.400390625 339.400390625 25.400390625 336.700195312 29 c 0
 334 32.599609375 313.5 59.7998046875 291.099609375 89.5 c 0
 268.799804688 119.099609375 250 144 249.5 144.799804688 c 0
 248.700195312 145.799804688 246.200195312 142.700195312 238.799804688 131.700195312 c 0
 202.400390625 77.599609375 169.599609375 39.900390625 124 0 c 0
 114.900390625 -8 103.700195312 -18 99.099609375 -22.400390625 c 0
 87.900390625 -32.900390625 79.400390625 -37 67.599609375 -37.7001953125 c 0
 48.7998046875 -38.900390625 32.7998046875 -29.5 24.2001953125 -12.2001953125 c 0
 20.599609375 -4.7998046875 20.5 -4.400390625 20.5 6.900390625 c 0
 20.5 17.900390625 20.7001953125 18.900390625 23.7001953125 25.2998046875 c 0
 27.7998046875 34 34.5 41 61 64.400390625 c 0
 88.2001953125 88.400390625 95.099609375 95.099609375 109 110.599609375 c 0
 134.200195312 138.700195312 158.900390625 172.400390625 184.900390625 213.799804688 c 2
 190.099609375 222.099609375 l 1
 173.799804688 242.799804688 l 2
 136.599609375 290.099609375 92.599609375 343.200195312 58.599609375 381.900390625 c 0
 29.900390625 414.5 29.099609375 415.700195312 26.7998046875 428.900390625 c 0
 22.7001953125 452.599609375 39.5 475.700195312 63.900390625 480.099609375 c 0
 78.099609375 482.599609375 92.5 477.700195312 103.400390625 466.799804688 c 0
 120.799804688 449.200195312 182.599609375 376.099609375 226.5 321.200195312 c 2
 240.299804688 303.900390625 l 1
 242.299804688 307.200195312 l 2
 282.900390625 373.599609375 328.200195312 432.200195312 364.700195312 465.5 c 0
 376.099609375 476 381.700195312 479.5 390.5 481.599609375 c 0
EndSplineSet
EndChar
StartChar: uni044C
Encoding: 1100 1100 173
Width: 500
Flags: W
HStem: 0 85<120.889 303.718>
VStem: 50.7002 89.5<364.336 490.842>
LayerCount: 2
Fore
SplineSet
82.400390625 496.5 m 0
 90.5 498.299804688 95.099609375 498.299804688 103.5 496.5 c 0
 123.099609375 492.400390625 137.200195312 478.5 140.200195312 460.5 c 0
 141.200195312 454.700195312 140.900390625 452.799804688 137.200195312 435.900390625 c 0
 129.5 401.099609375 125.799804688 378.700195312 122.099609375 345 c 0
 119.599609375 322 118.5 307 119.400390625 307 c 0
 119.700195312 307 122.799804688 309.299804688 126.200195312 312.099609375 c 0
 149.400390625 330.900390625 180.5 346.200195312 211.200195312 354 c 0
 232.599609375 359.400390625 243 360.5 270.5 360.5 c 0
 298.5 360.5 308.700195312 359.299804688 331.400390625 353.599609375 c 0
 386.5 339.599609375 429.200195312 307.799804688 449.5 265.5 c 0
 458.200195312 247.400390625 462.299804688 232 464 211.200195312 c 0
 468.599609375 155.099609375 439.700195312 97.099609375 386.5 55.7001953125 c 0
 362.900390625 37.400390625 336.200195312 23.2998046875 306.5 13.5 c 0
 278.700195312 4.2998046875 261.400390625 1.2998046875 228 0 c 0
 215.099609375 -0.5 196.200195312 -1.900390625 186 -3.099609375 c 0
 164.5 -5.599609375 135.700195312 -6.099609375 123.5 -4.099609375 c 0
 110.799804688 -2.099609375 97.400390625 1.7001953125 88.2998046875 6 c 0
 74.099609375 12.599609375 65.7001953125 23.2998046875 63 37.900390625 c 0
 62.400390625 41.400390625 62.099609375 44.7998046875 62.400390625 45.5 c 0
 62.7001953125 46.400390625 61.599609375 47 59.2998046875 47.5 c 0
 42.7998046875 50.599609375 29.5 61.900390625 23.900390625 77.5 c 0
 22 83 21.7001953125 86.7001953125 20.7998046875 122 c 0
 19.099609375 189.900390625 20.599609375 273.5 24.5 322.5 c 0
 29.400390625 384.099609375 42.2998046875 458.799804688 50.7001953125 474.200195312 c 0
 56.400390625 484.599609375 69.2001953125 493.599609375 82.400390625 496.5 c 0
291.5 274.5 m 0
 279.299804688 276.299804688 260.599609375 276.299804688 248.5 274.400390625 c 0
 204.599609375 267.700195312 167.099609375 237.200195312 142.799804688 188.5 c 0
 138.299804688 179.599609375 129.599609375 158.099609375 127.599609375 151 c 0
 126.799804688 148 124.400390625 133.400390625 122.5 118.5 c 0
 120.5 103.700195312 118.700195312 90 118.400390625 88.2998046875 c 0
 117.900390625 85.5 118.099609375 85 119.700195312 85 c 0
 120.799804688 85 125 83.7998046875 129.099609375 82.400390625 c 0
 135.400390625 80.099609375 138.200195312 79.7998046875 148 79.7998046875 c 0
 154.299804688 79.7998046875 168.099609375 80.7001953125 178.700195312 81.900390625 c 0
 189.200195312 83.099609375 208.400390625 84.5 221.200195312 85 c 0
 251.599609375 86.2001953125 265.099609375 88.900390625 287 98.2998046875 c 0
 307.799804688 107.200195312 325 119 339.599609375 134.200195312 c 0
 359.799804688 155.299804688 369 176 369 200.099609375 c 0
 369 220.299804688 363.5 234.599609375 350.5 247.5 c 0
 336 262 317.099609375 270.599609375 291.5 274.5 c 0
EndSplineSet
EndChar
StartChar: uni044D
Encoding: 1101 1101 176
Width: 500
Flags: W
HStem: 22.8039 89.9922<145.685 266.73> 232.146 94.8453<133.321 329.025> 405.998 90.0388<145.411 297.239>
LayerCount: 2
Fore
SplineSet
429.61226638 293.656723993 m 0
 429.61226638 221.583037655 429.351871123 249.674505969 429.351871123 249.230233432 c 0
 429.351871123 126.282916495 317.458592796 22.8038625076 193.544436822 22.8038625076 c 0
 193.427273856 22.8038625076 184.151426237 22.9058651366 181.828584239 22.9058651366 c 0
 153.690648739 22.9058651366 133.220652288 35.5600162722 120.840705275 42.6296540413 c 0
 116.753874715 44.9634614195 112.627359356 47.2148066437 109.300402088 48.618549326 c 0
 104.572662144 50.6133240753 99.9649558508 53.5878191126 49.5400043166 101.820385376 c 0
 40.399280966 110.961108727 36.0088240257 122.480554364 36.0088240257 134.063203755 c 0
 36.0088240257 158.863343584 56.1368952449 178.991175974 80.9380144766 178.991175974 c 0
 92.2041434548 178.991175974 103.40828691 174.837774769 112.092671249 166.530972358 c 2
 152.657091559 127.730222495 l 1
 164.316395435 121.974212809 178.168353724 112.872146238 181.47129233 112.872146238 c 0
 181.849002112 112.872146238 183.082024923 112.991175974 183.958983384 112.991175974 c 0
 185.081704848 112.991175974 190.940541311 112.796083069 194.921020501 112.796083069 c 0
 258.723112177 112.796083069 324.767906982 162.91949126 337.250409913 227.50626313 c 1
 304.978403761 229.230691017 250.563050994 232.145799201 250.562346857 232.145836923 c 0
 134.721474979 238.351597916 116.008824026 258.048927635 116.008824026 282.011268317 c 0
 116.008824026 306.863343584 136.136895245 326.991175974 151.57958537 326.991175974 c 0
 162.115305022 326.991175974 162.205480184 317.622472249 337.095240458 317.622472249 c 1
 328.556479165 361.173409617 297.851571343 403.684149438 248.540796532 404.95410948 c 0
 241.874960548 405.125782819 237.603917398 405.998156604 228.536393414 405.998156604 c 0
 144.682682211 405.998156604 95.4201996411 343.008824026 65 343.008824026 c 2
 57 343.008824026 l 2
 32.1366564157 343.008824026 12.0088240257 363.136895245 12.0088240257 387.977268744 c 0
 12.0088240257 410.247024052 28.1863331879 428.975383603 49.8814922312 432.428512723 c 1
 98.881858563 466.212751951 158.963064645 496.036907973 227.194268394 496.036907973 c 0
 234.700367157 496.036907973 242.30509841 495.675971604 250.222020892 495.359497857 c 0
 355.844098058 491.137325083 429.61226638 397.771441766 429.61226638 293.656723993 c 0
EndSplineSet
Validated: 33
EndChar
